<svg xmlns="http://www.w3.org/2000/svg" height="1024" preserveAspectRatio="none" style="display: block;" version="1.1" viewBox="0 0 2048 1152" width="1820">
<path d="M 0 0 L 663.6 0 L 686.089 0 L 1362.07 0 L 1381.89 0 L 2048 0 L 2048 1152 L 1381.92 1152 L 1362.07 1152 L 686.156 1152 L 663.65 1152 L 0 1152 L 0 0 z" fill="rgb(44,44,44)" transform="translate(0,0)"></path>
<path d="M 1362.07 0 L 1381.89 0 L 2048 0 L 2048 1152 L 1381.92 1152 L 1362.07 1152 L 1362.07 0 z" fill="rgb(44,44,44)" transform="translate(0,0)"></path>
<path d="M 1362.07 0 L 1381.89 0 L 1381.92 1152 L 1362.07 1152 L 1362.07 0 z" fill="rgb(254,254,254)" transform="translate(0,0)"></path>
<path d="M 1707.83 632.903 C 1712.29 632.567 1792.43 671.542 1801.96 676.021 L 1880.73 713.598 C 1897.28 721.459 1930.92 735.399 1944.34 746.212 C 1945.72 751.13 1923.64 969.574 1921.35 992.111 C 1894.43 1007.01 1858.8 1023.62 1830.92 1037.47 C 1791.92 1057.29 1752.77 1076.81 1713.46 1096.02 C 1710.77 1097.31 1706.92 1095.46 1704.41 1094.3 C 1667.77 1077.41 1631.93 1059.04 1595.52 1041.68 C 1575.41 1032.15 1555.35 1022.51 1535.34 1012.77 C 1525.63 1008.02 1510.12 1000.9 1501.41 995.064 C 1500.01 986.289 1499.45 973.119 1498.55 963.883 L 1491.3 888.58 L 1481.55 795.258 C 1480.44 784.477 1476.74 754.925 1478.12 745.638 C 1485.8 738.538 1532.39 718.292 1545 712.182 L 1707.83 632.903 z" fill="rgb(245,136,163)" transform="translate(0,0)"></path>
<path d="M 1707.11 647.858 C 1717.45 646.615 1898.93 740.416 1928.83 750.219 C 1913.9 761.177 1884.75 776.02 1867.86 785.059 L 1773.98 835.027 C 1763.18 840.684 1731.19 856.132 1723.66 863.541 C 1722.28 866.619 1722.18 870.114 1722.06 873.44 C 1721.43 889.893 1720.6 1031.05 1722.96 1038.08 C 1723.9 1040.88 1725.21 1042.19 1727.77 1043.55 C 1731.13 1043.69 1736.8 1041 1740.04 1039.48 C 1771.16 1024.86 1801.4 1008.7 1831.85 992.708 C 1848.74 983.834 1866.86 975.683 1883.43 966.204 C 1885.89 964.801 1886.74 963.076 1887.34 960.402 C 1886.65 956.712 1887.32 957.977 1885 955.367 C 1881.53 954.261 1877.7 954.653 1874.44 956.191 C 1833.32 975.61 1792.61 999.238 1751.71 1018.85 C 1775.95 990.764 1808.76 949.295 1830.3 919.332 C 1857.26 929.635 1884.15 940.127 1910.96 950.81 L 1907.7 983.032 C 1895.16 990.603 1876.33 999.63 1862.9 1006.46 L 1766.56 1054.76 C 1749.66 1063.18 1727.34 1073.58 1711.45 1082.81 C 1646.3 1051.64 1578.9 1019.59 1514.31 987.504 C 1511.27 963.439 1509.57 939.206 1507.3 915.045 C 1502.99 867.595 1498.01 820.207 1492.36 772.896 C 1503.97 799.555 1511.23 829.464 1520.44 856.958 C 1521.32 859.588 1524.25 860.275 1526.49 860.81 C 1529.51 860.114 1529.77 859.771 1531.76 857.361 C 1534.18 852.077 1521.84 812.318 1519.66 801.892 C 1526.58 812.178 1535.46 822.667 1543.16 832.576 C 1553.96 846.63 1564.63 860.781 1575.18 875.026 C 1610.47 922.74 1644.7 971.236 1677.83 1020.48 L 1664.66 1013.58 C 1646.82 1002.97 1561.5 867.799 1550.63 866.24 C 1543.73 867.295 1524.45 874.04 1526.27 883.276 C 1532.02 912.43 1533.93 942.782 1539.66 971.848 C 1544.78 975.161 1570.98 987.163 1577.69 990.43 L 1649.38 1025.15 C 1658.69 1029.62 1681.58 1041.23 1690.09 1042.99 C 1692.11 1042.35 1693.3 1042.2 1694.66 1040.46 C 1695.9 1038.88 1696.3 1036.78 1696.39 1034.81 C 1697.69 1006.42 1696.19 977.288 1696.15 948.81 C 1696.11 923.392 1697.8 896.58 1695.59 871.316 C 1695.48 870.034 1695.26 867.116 1694.5 866.102 C 1689.88 859.96 1568.39 804.831 1548.14 793.51 C 1531.17 784.023 1515.33 772.138 1500.54 759.572 C 1559.34 780.422 1616.74 805.644 1674.21 829.867 C 1683.58 833.816 1692.93 837.868 1702.54 841.202 C 1712.1 837.515 1729.28 828.074 1739 823.139 L 1811.73 785.894 C 1824.15 779.532 1836.7 773.329 1849.14 767.029 C 1857.39 762.851 1878.94 754.376 1880.5 744.812 C 1875.63 735.625 1863.84 744.579 1857.97 747.589 L 1828.12 762.72 L 1746.95 804.342 C 1732.76 811.596 1715.77 820.98 1701.5 827.094 C 1681.03 817.942 1660.37 809.243 1639.52 801.003 C 1664.46 786.431 1787.23 731.743 1794.87 721.926 C 1794.72 720.517 1794.86 718.582 1793.99 717.454 C 1789.97 712.3 1720.08 709.297 1708.97 708.094 C 1711.99 700.58 1721.96 681.794 1713.31 675.705 C 1701.88 675.934 1556.77 748.014 1536.77 757.245 C 1525.51 753.474 1514.21 749.809 1502.87 746.251 C 1530.19 735.459 1563.46 717.777 1590.48 704.492 C 1629.13 685.495 1668.77 667.166 1707.11 647.858 z" fill="rgb(44,44,44)" transform="translate(0,0)"></path>
<path d="M 1540.89 806.545 C 1545.59 807.796 1560.88 815.79 1565.89 818.399 C 1603.38 837.923 1645.09 852.686 1682.02 872.69 C 1682.76 885.629 1682.41 901.935 1682.53 915.18 L 1683.02 1001.34 C 1677.56 996.755 1647.93 951.206 1641.44 942.142 C 1608.73 896.35 1575.21 851.144 1540.89 806.545 z" fill="rgb(44,44,44)" transform="translate(0,0)"></path>
<path d="M 1910.42 777.952 L 1910.98 778.03 L 1911.51 779.034 C 1887.83 817.718 1851.29 863.775 1825.08 902.08 C 1808.63 896.501 1788.18 886.595 1771.75 879.419 C 1762.04 874.914 1752.27 870.535 1742.44 866.282 C 1760.99 855.885 1783.1 845.158 1802.17 835.156 L 1910.42 777.952 z" fill="rgb(44,44,44)" transform="translate(0,0)"></path>
<path d="M 1926.53 783.681 C 1928.37 790.36 1914.06 918.147 1912.56 936.571 C 1895 930.323 1876.79 922.867 1859.37 916.029 C 1852.14 913.347 1845.01 910.383 1838.01 907.144 C 1843.05 898.371 1857.53 879.11 1863.88 870.225 L 1926.53 783.681 z" fill="rgb(44,44,44)" transform="translate(0,0)"></path>
<path d="M 1735.86 877.405 C 1741.52 880.767 1756.81 887.033 1763.31 889.881 L 1817.3 913.338 C 1802.71 932.908 1787.87 952.297 1772.8 971.5 C 1761.16 985.721 1747.99 1003.26 1735.73 1016.49 C 1734.18 974.517 1734.26 919.389 1735.86 877.405 z" fill="rgb(44,44,44)" transform="translate(0,0)"></path>
<path d="M 1650.96 718.022 C 1659.23 717.543 1678.61 719.874 1689.79 719.763 C 1683.28 735.413 1677.56 753.594 1671.34 769.847 C 1657.38 776.39 1636.39 785.708 1623.77 793.721 C 1618.39 791.132 1608.62 787.695 1602.75 785.437 C 1586.13 778.792 1569.14 771.413 1552.58 764.482 C 1585.86 748.361 1617.16 733.359 1650.96 718.022 z" fill="rgb(44,44,44)" transform="translate(0,0)"></path>
<path d="M 1546.61 881.88 C 1555.16 890.17 1628.99 991.049 1632.9 1000.08 L 1632.15 1000.91 L 1629.53 1000.06 C 1606.37 988.564 1576.07 973.623 1552.44 963.783 C 1550.76 957.273 1549.08 943.462 1548.02 936.425 C 1545.45 919.647 1542.96 902.857 1540.55 886.054 C 1542.2 883.347 1543.34 883.485 1546.61 881.88 z" fill="rgb(44,44,44)" transform="translate(0,0)"></path>
<path d="M 1703.08 721.043 C 1719.22 720.999 1745.56 724.396 1763.41 725.135 C 1752.66 730.287 1741.98 735.564 1731.35 740.965 C 1717.21 747.757 1703.02 754.463 1688.79 761.082 C 1693.96 748.702 1698.83 733.775 1703.08 721.043 z" fill="rgb(44,44,44)" transform="translate(0,0)"></path>
<path d="M 1697.91 695.98 C 1697.86 698.236 1695.23 704.646 1694.29 707.147 C 1689.06 706.63 1683.67 706.308 1678.41 705.927 L 1677.74 705.595 C 1679.77 703.351 1694.13 697.609 1697.91 695.98 z" fill="rgb(44,44,44)" transform="translate(0,0)"></path>
<path d="M 1706.61 61.9461 C 1717.13 61.0084 1750.36 81.5213 1761.83 87.6907 L 1834.4 126.371 C 1849.16 134.314 1909.4 164.73 1917.53 172.866 C 1919.88 181.529 1918.96 253.273 1918.98 266.867 C 1919.04 306.626 1919.4 349.217 1919.03 389.174 C 1918.99 393.853 1918.22 400.532 1916.99 405.046 C 1909.47 410.604 1889.76 420.427 1880.76 425.152 C 1858.97 436.439 1837.26 447.89 1815.64 459.504 C 1794.16 471.064 1772.76 482.763 1751.43 494.601 C 1741.39 500.181 1724.72 510.314 1714.81 514.272 C 1710.69 514.76 1707.81 514.512 1704.04 512.637 C 1670.87 496.17 1637.68 477.552 1605.02 460.003 C 1585.64 449.527 1566.21 439.161 1546.72 428.907 C 1533.7 422.039 1516.15 413.135 1503.92 405.352 C 1501.94 381.915 1502.97 345.045 1502.96 320.676 L 1503.17 173.663 C 1511.01 167.535 1529.95 157.787 1539.68 152.423 C 1564.71 138.354 1589.97 124.697 1615.45 111.457 C 1645.32 95.5672 1676.26 76.5914 1706.61 61.9461 z" fill="rgb(109,214,198)" transform="translate(0,0)"></path>
<path d="M 1708.77 152.867 C 1717.01 154.554 1825.7 213.828 1833 220.013 L 1832.9 356.518 C 1820.11 362.341 1801.31 373.556 1788.54 380.666 C 1763.05 394.724 1737.68 408.987 1712.42 423.454 C 1708.27 423.942 1596.05 362.146 1589.29 355.071 C 1588.22 311.423 1589.1 262.934 1589.12 219.129 C 1600.2 211.313 1617.52 202.265 1629.8 195.483 L 1708.77 152.867 z" fill="rgb(44,44,44)" transform="translate(0,0)"></path>
<path d="M 1710.18 163.811 C 1714.82 165.58 1741.86 180.556 1747.75 183.921 C 1771.34 197.385 1799.64 210.896 1822.18 225.272 L 1822.71 349.408 C 1788.67 370.062 1747.13 391.48 1711.82 411.189 C 1708.82 411.174 1609.9 356.261 1599.73 350.661 C 1598.4 309.469 1599.19 265.095 1599.29 223.661 L 1710.18 163.811 z" fill="rgb(109,214,198)" transform="translate(0,0)"></path>
<path d="M 1709.38 196.111 C 1714.26 198.186 1732.65 209.088 1738.21 212.194 C 1756.03 222.058 1773.92 231.784 1791.89 241.373 C 1791.33 272.055 1791.06 302.741 1791.09 333.428 C 1788.27 335.161 1785.23 336.582 1782.31 338.169 C 1758.57 351.088 1734.43 363.998 1711.39 378.103 C 1710.84 378.077 1637.07 337.387 1629.78 333.449 L 1629.97 239.576 C 1652.09 229.074 1686.74 208.467 1709.38 196.111 z" fill="rgb(44,44,44)" transform="translate(0,0)"></path>
<path d="M 1709.67 208.291 C 1729.72 220.94 1758.72 236.146 1780.26 248.544 C 1780.9 274.425 1781.03 300.317 1780.64 326.203 C 1757.56 339.695 1733.82 351.526 1710.89 365.716 C 1704.74 363.035 1695.08 357.147 1688.9 353.677 C 1672.43 344.43 1657.46 335.434 1640.12 327.691 L 1640.21 246.534 C 1662.65 233.564 1686.84 220.911 1709.67 208.291 z" fill="rgb(109,214,198)" transform="translate(0,0)"></path>
<path d="M 1709.42 221.937 C 1728.4 233.529 1748.95 243.883 1768.13 255.694 L 1768.14 319.171 C 1750.78 327.683 1727.13 341.312 1710.45 351.428 C 1702.77 349.603 1662.43 325.401 1652.14 319.876 L 1651.95 253.27 C 1670.55 244.518 1691.32 232.199 1709.42 221.937 z" fill="rgb(44,44,44)" transform="translate(0,0)"></path>
<path d="M 1709.03 235.116 C 1719.16 239.53 1743.35 254.384 1754.76 260.608 C 1755.21 277.683 1754.93 296.035 1754.98 313.211 C 1740.99 322.114 1724.79 329.422 1709.99 338.807 C 1694.47 330.446 1679 322.006 1663.57 313.487 C 1663.49 295.679 1663.52 277.871 1663.66 260.064 C 1678.86 251.895 1693.99 243.578 1709.03 235.116 z" fill="rgb(109,214,198)" transform="translate(0,0)"></path>
<path d="M 1707.9 249.852 C 1713.44 249.377 1736.41 263.753 1742.59 267.421 L 1742.68 306.781 C 1732.23 313.186 1721.43 317.861 1710.48 324.982 C 1707.1 324.577 1680.71 309.483 1676.17 306.973 L 1676.06 266.771 C 1686.7 261.187 1697.32 255.547 1707.9 249.852 z" fill="rgb(44,44,44)" transform="translate(0,0)"></path>
<path d="M 1588.52 370.901 C 1593.92 371.831 1686.35 423.058 1696.04 428.657 L 1695.64 495.181 C 1682.36 488.745 1669.23 481.996 1656.27 474.939 C 1613.94 451.048 1569.28 429.595 1527.69 405.638 C 1548.09 394.268 1568.37 382.688 1588.52 370.901 z" fill="rgb(44,44,44)" transform="translate(0,0)"></path>
<path d="M 1726.97 82.6441 C 1782.31 110.512 1838.83 141.929 1894.05 170.921 L 1872.19 183.898 C 1859.74 190.791 1844.95 198.573 1833.2 206.152 C 1797.78 186.586 1762.21 167.305 1726.48 148.31 C 1726.96 126.464 1726.38 104.686 1726.97 82.6441 z" fill="rgb(44,44,44)" transform="translate(0,0)"></path>
<path d="M 1829.88 370.898 C 1847.03 378.119 1878.45 395.361 1894.48 404.804 C 1852.13 426.412 1810.18 448.81 1768.66 471.987 C 1755.24 479.461 1740.61 487.625 1726.89 494.326 L 1726.84 428.634 C 1734.48 423.734 1746.45 417.822 1754.7 413.098 C 1779.54 398.641 1804.6 384.572 1829.88 370.898 z" fill="rgb(44,44,44)" transform="translate(0,0)"></path>
<path d="M 1693.94 81.0604 C 1695.92 83.227 1695.23 139.567 1695.24 147.41 C 1685.67 153.803 1666.78 163.344 1656.14 169.046 C 1634.12 180.807 1612.18 192.693 1590.3 204.704 C 1578.78 197.913 1563.83 190.476 1551.77 183.922 C 1544.62 179.858 1536.45 175.761 1529.11 171.884 C 1581.77 140.673 1640.02 111.28 1693.94 81.0604 z" fill="rgb(44,44,44)" transform="translate(0,0)"></path>
<path d="M 1514.13 199.532 C 1535.11 211.44 1556.78 222.505 1578.01 234.501 L 1578.02 340.669 C 1570.95 344.465 1562.17 350.149 1555.18 354.411 C 1542.28 361.787 1526.37 370.435 1514.34 378.647 L 1514.13 199.532 z" fill="rgb(44,44,44)" transform="translate(0,0)"></path>
<path d="M 1905.21 201.834 L 1906.67 202.237 C 1907.71 209.833 1907.15 246.854 1907.16 256.545 L 1907.11 376.958 C 1893.16 369.593 1881 363.127 1867.57 354.866 L 1844.6 342.022 C 1844.65 306.91 1844.51 271.797 1844.18 236.687 C 1863.48 225.321 1885.52 212.153 1905.21 201.834 z" fill="rgb(44,44,44)" transform="translate(0,0)"></path>
<path d="M 1843.59 354.105 C 1847.61 355.54 1853.58 358.886 1857.54 360.945 C 1856.03 363.626 1854.34 367.251 1852.92 370.068 C 1849.34 368.259 1843.54 365.882 1840.68 363.47 L 1840.5 361.262 C 1842.25 358.484 1842.45 357.948 1843.37 354.867 L 1843.59 354.105 z" fill="rgb(44,44,44)" transform="translate(0,0)"></path>
<path d="M 1557.58 363.728 C 1568.55 369.772 1561.87 374.811 1554.36 378.45 C 1550.46 375.391 1549.32 374.28 1549.88 369.543 C 1551.91 366.075 1553.94 365.475 1557.58 363.728 z" fill="rgb(44,44,44)" transform="translate(0,0)"></path>
<path d="M 1848.35 209.027 C 1850.28 211.43 1852.99 215.842 1854.76 218.567 L 1844.43 224.577 C 1843.73 222.601 1839.97 216.165 1838.75 213.966 L 1848.35 209.027 z" fill="rgb(44,44,44)" transform="translate(0,0)"></path>
<path d="M 1552.74 197.503 C 1557.51 198.232 1559.55 198.538 1562.33 202.052 C 1563.04 205.65 1561.43 208.155 1559.88 211.524 C 1556.37 211.109 1552.71 210.091 1550.8 206.918 C 1549.8 203.301 1551.25 201 1552.74 197.503 z" fill="rgb(44,44,44)" transform="translate(0,0)"></path>
<path d="M 1533.66 187.301 C 1538.58 188.375 1540.97 189.141 1543.79 193.045 C 1544.49 196.63 1543.28 198.261 1541.68 201.487 C 1531.47 200.318 1530.53 195.919 1533.66 187.301 z" fill="rgb(44,44,44)" transform="translate(0,0)"></path>
<path d="M 1574.62 353.588 C 1582.99 354.354 1583.21 361.484 1576.62 366.64 C 1573.84 367.048 1573.41 367.152 1570.85 366.044 C 1566.58 360.413 1569.75 357.096 1574.62 353.588 z" fill="rgb(44,44,44)" transform="translate(0,0)"></path>
<path d="M 1538.51 374.616 C 1542.18 376.929 1543.69 378.65 1543.87 382.931 C 1542.52 386.473 1539.94 387.297 1536.53 389.07 C 1532.67 386.858 1531.65 385.892 1531.54 381.69 C 1533.03 378.257 1535.49 376.862 1538.51 374.616 z" fill="rgb(44,44,44)" transform="translate(0,0)"></path>
<path d="M 1878.88 373.328 C 1882.11 374.822 1887.67 377.208 1889.18 380.245 C 1889.21 384.163 1888.8 383.488 1886.34 387.366 C 1883 385.921 1877.9 384.207 1875.98 381.347 C 1875.75 377.183 1876.42 377.608 1878.88 373.328 z" fill="rgb(44,44,44)" transform="translate(0,0)"></path>
<path d="M 1572.15 207.328 C 1575.14 208.342 1577.75 209.256 1579.71 211.74 C 1581 215.014 1579.33 218.17 1578.11 221.551 C 1573.07 220.158 1570.51 220.15 1568.41 215.145 C 1568.62 211.818 1570.26 210.035 1572.15 207.328 z" fill="rgb(44,44,44)" transform="translate(0,0)"></path>
<path d="M 1708.52 470.558 C 1713.52 471.759 1714.62 471.958 1716.26 476.871 C 1715.9 480.607 1714.84 481.733 1712.77 484.755 C 1708.7 483.764 1707.27 482.509 1705.91 478.547 C 1705.88 474.453 1706.33 473.922 1708.52 470.558 z" fill="rgb(44,44,44)" transform="translate(0,0)"></path>
<path d="M 1708.92 452.645 C 1711.58 451.536 1714.66 452.645 1716 455.202 C 1717.34 457.759 1716.51 460.919 1714.09 462.486 C 1712.31 463.632 1710.04 463.677 1708.22 462.602 C 1706.4 461.527 1705.35 459.517 1705.49 457.409 C 1705.64 455.301 1706.97 453.457 1708.92 452.645 z" fill="rgb(44,44,44)" transform="translate(0,0)"></path>
<path d="M 1518.52 386.192 C 1521.56 386.806 1524.54 389.481 1525.16 392.575 C 1524.54 396.364 1524.93 395.126 1521.41 398.081 C 1518.39 399.384 1517.42 399.246 1515.14 397.512 C 1513.5 392.779 1515.32 389.474 1518.52 386.192 z" fill="rgb(44,44,44)" transform="translate(0,0)"></path>
<path d="M 1518.04 178.499 C 1521.04 179.56 1522.6 179.886 1524.88 182.197 C 1525.78 185.378 1523.99 188.26 1522.62 191.543 C 1518.31 191.021 1516.96 190.196 1515.13 186.528 C 1514.93 182.925 1516.18 181.516 1518.04 178.499 z" fill="rgb(44,44,44)" transform="translate(0,0)"></path>
<path d="M 1709.01 492.814 C 1710.73 491.98 1712.76 492.134 1714.33 493.216 C 1715.9 494.299 1716.77 496.142 1716.6 498.042 C 1716.43 499.942 1715.25 501.605 1713.52 502.395 C 1710.88 503.594 1707.77 502.451 1706.54 499.829 C 1705.3 497.207 1706.41 494.08 1709.01 492.814 z" fill="rgb(44,44,44)" transform="translate(0,0)"></path>
<path d="M 1708.11 434.588 C 1710.49 433.102 1713.62 433.811 1715.13 436.175 C 1716.63 438.54 1715.95 441.678 1713.6 443.208 C 1711.22 444.757 1708.03 444.067 1706.51 441.672 C 1704.98 439.276 1705.7 436.094 1708.11 434.588 z" fill="rgb(44,44,44)" transform="translate(0,0)"></path>
<path d="M 1905.72 177.895 C 1907.27 180.429 1907.18 184.439 1906.45 187.293 C 1905.54 190.851 1904.8 190.477 1901.7 192.07 C 1900.33 189.153 1898.99 186.784 1898.72 183.546 C 1900.71 180.116 1901.86 180.247 1905.72 177.895 z" fill="rgb(44,44,44)" transform="translate(0,0)"></path>
<path d="M 1875.24 193.129 C 1877.45 195.753 1879.22 197.477 1880.42 200.69 C 1879.35 204.136 1879.41 203.243 1875.77 205.737 C 1873.43 203.19 1871.58 201.562 1870.33 198.347 C 1871.29 194.867 1871.45 195.686 1875.24 193.129 z" fill="rgb(44,44,44)" transform="translate(0,0)"></path>
<path d="M 1704.01 117.088 C 1707.51 116.956 1711.04 116.564 1714.36 117.558 C 1716.57 120.239 1715.9 119.702 1716.16 123.821 C 1712.64 123.994 1709.42 124.328 1705.96 123.65 C 1703.58 121.275 1704.29 121.148 1704.01 117.088 z" fill="rgb(44,44,44)" transform="translate(0,0)"></path>
<path d="M 1703.03 100.691 C 1706.66 100.492 1710.02 100.131 1713.6 100.784 C 1716.84 103.125 1715.87 102.272 1716.98 107.01 C 1713.34 107.229 1709.52 107.734 1706.04 106.796 C 1703.23 104.361 1704.04 104.932 1703.03 100.691 z" fill="rgb(44,44,44)" transform="translate(0,0)"></path>
<path d="M 1899.45 384.282 C 1902.83 385.831 1905.76 387.397 1907.39 390.794 C 1907.51 393.455 1907.55 393.568 1906.2 395.764 C 1903.05 394.392 1900.5 393.422 1897.64 391.484 C 1896.75 387.995 1897.43 388.417 1899.45 384.282 z" fill="rgb(44,44,44)" transform="translate(0,0)"></path>
<path d="M 1704.59 133.658 C 1708 133.713 1710.65 133.687 1714.03 134.242 C 1716.45 136.675 1715.72 136.187 1716.15 140.38 C 1713.02 140.51 1710.07 140.636 1706.93 140.606 C 1704.33 138.386 1705.09 137.966 1704.59 133.658 z" fill="rgb(44,44,44)" transform="translate(0,0)"></path>
<path d="M 1865.38 365.675 C 1867.75 367.057 1868.2 367.419 1870.17 369.346 C 1870.35 373.303 1869.28 373.753 1867.18 377.821 C 1864.93 376.697 1864.18 376.213 1862.16 374.706 C 1861.62 371.354 1863.54 369.31 1865.38 365.675 z" fill="rgb(44,44,44)" transform="translate(0,0)"></path>
<path d="M 1703.24 85.0155 C 1711.36 84.4007 1714.67 82.1751 1717.1 90.3445 C 1713.49 90.526 1710.35 90.7368 1706.73 90.5224 C 1703.47 88.4928 1704.46 89.4593 1703.24 85.0155 z" fill="rgb(44,44,44)" transform="translate(0,0)"></path>
<path d="M 1858.51 201.434 C 1862.39 202.427 1865.73 208.072 1866.65 211.778 L 1864.9 214.209 C 1860.43 212.543 1856.51 206.328 1858.51 201.434 z" fill="rgb(44,44,44)" transform="translate(0,0)"></path>
<path d="M 1886.64 186.412 C 1891.03 189.037 1894.78 193.852 1891.65 198.722 C 1886.67 196.637 1883.19 191.507 1886.64 186.412 z" fill="rgb(44,44,44)" transform="translate(0,0)"></path>
<path d="M 686.089 0 L 1362.07 0 L 1362.07 1152 L 686.156 1152 L 686.089 0 z" fill="rgb(44,44,44)" transform="translate(0,0)"></path>
<path d="M 1016.85 42.9959 C 1020.38 42.9363 1026.1 42.4687 1028.67 44.6114 C 1029.79 52.7894 1029.14 70.6372 1029.05 79.5603 C 1100.15 80.874 1164.55 116.375 1205.68 173.881 C 1215.73 167.857 1230.74 158.037 1241.73 153.86 C 1244.01 152.993 1245.74 154.445 1247.61 155.584 C 1248.23 157.337 1248.98 158.504 1248.09 160.333 C 1244.02 168.723 1220.04 179.549 1211.55 183.906 C 1220.28 199.605 1227.22 216.239 1232.22 233.493 C 1247.81 288.487 1239.46 342.654 1211.82 392.104 C 1221.66 398.056 1231.59 403.618 1241.66 409.162 C 1246.3 411.716 1249.06 413.331 1248.5 418.728 C 1242.06 427.91 1213.86 407.827 1205.47 403.343 C 1163.93 464.06 1100.95 492.633 1029.23 497.704 C 1029.25 509.484 1029.76 526.476 1028.73 537.805 C 1015.33 542.425 1015.24 531.112 1015.52 521.187 C 1015.74 513.226 1015.93 505.312 1016.03 497.349 C 1009.35 497.108 1002.68 496.59 996.049 495.797 C 930.3 487.333 882.238 454.336 842.626 402.821 C 828.581 409.267 815.768 417.632 801.435 424.058 C 799.377 421.108 797.545 417.09 795.915 413.799 C 809.288 406.576 822.58 399.204 835.79 391.685 C 825.032 371.37 816.798 352.032 812.216 329.279 C 802.705 282.046 810.136 225.401 837.255 184.908 C 824.99 178.007 811.13 171.07 798.573 164.348 L 803.004 154.053 C 815.786 160.141 830.399 168.251 843.144 174.912 C 849.752 166.426 856.609 157.435 863.846 149.53 C 903.58 106.912 958.572 81.7575 1016.8 79.5664 L 1016.85 42.9959 z" fill="rgb(109,214,198)" transform="translate(0,0)"></path>
<path d="M 1199.54 188.816 C 1206.24 196.574 1217.3 226.79 1220.14 237.065 C 1234.86 290.29 1225.72 340.436 1198.76 387.933 C 1192.38 383.909 1185.27 378.711 1179 374.347 L 1153.71 356.79 C 1179.46 308.904 1174.28 269.388 1154.77 221.339 C 1166.2 211.418 1186.54 197.904 1199.54 188.816 z" fill="rgb(44,44,44)" transform="translate(0,0)"></path>
<path d="M 849.19 188.815 C 857.379 193.5 882.611 213.851 891.345 220.669 C 887.907 227.844 884.938 235.235 882.458 242.795 C 869.778 282.117 873.591 316.849 892.253 353.254 C 884.912 359.903 877.035 367.414 868.974 373.033 C 861.773 377.673 854.798 381.486 847.295 385.627 C 810.496 318.519 812.907 255.536 849.19 188.815 z" fill="rgb(44,44,44)" transform="translate(0,0)"></path>
<path d="M 1026.76 91.8622 C 1095.48 91.6895 1156.4 128.069 1196.77 182.013 C 1192.21 184.395 1185.13 187.33 1180.25 189.509 C 1168.36 194.39 1156.53 199.411 1144.77 204.574 C 1113.96 169.008 1084.31 151.115 1036.53 146.179 C 1032.12 128.7 1030.31 109.892 1026.76 91.8622 z" fill="rgb(44,44,44)" transform="translate(0,0)"></path>
<path d="M 1143.8 371.552 C 1159.29 379.487 1178.5 387.862 1194.57 395.38 C 1165.25 440.064 1124.13 464.437 1073.49 478.678 C 1065.28 480.759 1035.91 487.386 1030 482.064 C 1026.92 476.051 1035.2 440.258 1036.37 430.608 C 1085.76 424.715 1111.58 408.088 1143.8 371.552 z" fill="rgb(44,44,44)" transform="translate(0,0)"></path>
<path d="M 903.612 374.053 C 905.695 375.9 908.828 379.402 910.819 381.601 C 937.19 410.725 972.138 427.479 1011.77 430.378 C 1014.16 449.688 1016.15 465.37 1016.86 484.793 C 999.648 483.823 991 482.713 974.187 478.98 C 924.828 465.582 881.607 437.803 853.329 394.582 C 864.03 388.199 890.697 379.036 903.612 374.053 z" fill="rgb(44,44,44)" transform="translate(0,0)"></path>
<path d="M 1010.3 92.3978 C 1013.08 92.0765 1014.78 91.5488 1017.23 92.7899 C 1018.78 98.1185 1011.48 136.309 1010.3 145.712 C 1008.77 145.816 1007.26 145.977 1005.75 146.196 C 963.167 151.954 929.406 169.535 903.119 204.073 C 894.196 200.873 884.184 195.983 875.457 191.97 C 867.754 188.364 861.485 185.071 854.033 180.952 C 898.245 127.024 939.54 99.8197 1010.3 92.3978 z" fill="rgb(44,44,44)" transform="translate(0,0)"></path>
<path d="M 1144.57 228.78 C 1146.49 230.523 1150.89 241.044 1151.79 243.975 C 1163.37 281.728 1159.83 315.356 1143.74 350.133 L 1120.86 327.121 L 1082.13 288.605 C 1102.59 270.135 1124.71 248.117 1144.57 228.78 z" fill="rgb(44,44,44)" transform="translate(0,0)"></path>
<path d="M 901.044 228.428 C 922.313 248.245 943.325 268.336 964.075 288.696 C 951.511 300.751 938.712 312.559 925.686 324.113 C 917.666 331.306 909.469 338.488 901.877 346.119 C 900.008 342.459 898.31 338.714 896.788 334.897 C 881.898 297.637 885.738 264.367 901.044 228.428 z" fill="rgb(44,44,44)" transform="translate(0,0)"></path>
<path d="M 1037.34 158.614 C 1072.8 160.353 1110.02 180.563 1131.56 208.646 C 1125.44 211.044 1117.62 213.506 1111.29 215.694 C 1094.57 220.326 1070.68 229.282 1053.11 234.917 C 1047.07 209.911 1042.52 183.926 1037.34 158.614 z" fill="rgb(44,44,44)" transform="translate(0,0)"></path>
<path d="M 991.502 342.988 L 992.751 343.116 C 995.803 346.003 1008.1 408.421 1010.1 417.843 C 987.688 415.022 972.927 411.679 952.901 400.912 C 936.627 391.441 928.091 382.819 915.907 368.773 C 940.923 359.654 966.127 351.057 991.502 342.988 z" fill="rgb(44,44,44)" transform="translate(0,0)"></path>
<path d="M 1052.52 343.304 C 1074.51 348.145 1110.22 360.637 1132.54 367.777 C 1120.91 381.043 1114.2 387.595 1099.32 396.912 C 1079.69 408.617 1061.02 415.347 1038.37 417.527 C 1042.47 392.673 1047.19 367.925 1052.52 343.304 z" fill="rgb(44,44,44)" transform="translate(0,0)"></path>
<path d="M 1004.26 158.312 C 1005.9 158.03 1006.17 158.207 1007.82 158.411 C 1008.61 160.99 995.745 225.686 994.357 233.549 C 976.012 228.087 957.728 222.423 939.509 216.556 L 915.38 208.108 C 937.35 179.825 969.421 164.164 1004.26 158.312 z" fill="rgb(44,44,44)" transform="translate(0,0)"></path>
<path d="M 1022.26 620.173 C 1045.89 622.102 1047.95 653.379 1050.28 671.616 C 1080.45 675.611 1115.8 691.613 1140.34 709.086 C 1151.85 700.829 1195.63 675.243 1201.06 704.411 C 1203.46 717.33 1187.57 739.83 1179.62 750.397 C 1198.75 771.838 1213.35 808.308 1217.41 836.66 C 1231.03 838.54 1283.53 847.817 1267.84 873.135 C 1259.43 886.712 1232.73 890.663 1217.25 893.204 C 1210.38 929.355 1201.63 948.369 1180.66 978.4 C 1188.36 990.79 1209.61 1019.37 1199.27 1033.65 C 1196.55 1037.4 1192.39 1039.85 1187.79 1040.42 C 1173.31 1042.3 1151.98 1026.97 1141.08 1018.26 C 1113.12 1038.37 1084.92 1049.26 1051.16 1054.74 C 1049.66 1075.59 1045.52 1105.75 1020.06 1107.75 C 1002.16 1097.8 997.401 1073.44 995.74 1054.65 C 962.766 1051.09 930.864 1036.12 904.073 1017.13 C 892.999 1029.51 851.222 1057.75 845.054 1024.45 C 842.537 1010.87 855.84 990.403 864.921 979.587 C 844.294 950.273 834.443 926.981 828.497 892.191 C 815.553 890.369 762.565 883.082 776.99 857.201 C 784.471 843.778 813.623 839.31 828.724 836.189 C 833.973 803.622 844.376 778.975 863.668 752.237 C 815.838 695.42 854.852 668.171 902.942 712.352 C 929.091 692.616 965.182 675.873 997.86 671.485 C 997.836 650.763 1000.15 627.991 1022.26 620.173 z" fill="rgb(109,214,198)" transform="translate(0,0)"></path>
<path d="M 1005.31 693.863 C 1099.23 684.175 1183.25 752.408 1193.03 846.318 C 1202.8 940.229 1134.65 1024.31 1040.75 1034.18 C 946.721 1044.06 862.503 975.795 852.711 881.756 C 842.918 787.716 911.265 703.564 1005.31 693.863 z" fill="rgb(44,44,44)" transform="translate(0,0)"></path>
<path d="M 1018.78 736.997 C 1088.87 734.621 1147.63 789.488 1150.05 859.577 C 1152.48 929.665 1097.65 988.462 1027.57 990.936 C 957.409 993.414 898.54 938.521 896.112 868.363 C 893.685 798.204 948.619 739.374 1018.78 736.997 z" fill="rgb(109,214,198)" transform="translate(0,0)"></path>
<path d="M 1035.48 779.347 C 1045.1 778.115 1076.8 781.606 1080.6 790.849 C 1080.53 797.371 1068.39 815.372 1064.25 821.566 C 1055.4 819.467 1048.19 817.017 1039.08 819.181 C 1004.04 827.465 996.65 884.745 1026.83 903.121 C 1038.56 910.262 1051.75 909.007 1064.43 905.796 C 1068.97 911.436 1080.23 930.131 1079.94 936.956 C 1077.93 940.354 1078.64 939.325 1074.77 941.301 C 1068.78 942.617 1062.76 943.774 1056.72 944.771 C 1009.27 952.141 975.14 929.611 967.274 885.559 C 967.234 885.336 955.182 884.08 954.718 882.268 C 953.191 876.321 952.374 851.128 955.778 846.931 C 959.099 845.187 964.237 845.683 968.148 845.728 C 974.784 806.35 995.196 784.313 1035.48 779.347 z" fill="rgb(44,44,44)" transform="translate(0,0)"></path>
<path d="M 1032.86 792.317 C 1045.54 791.07 1054.7 792.075 1066.66 795.933 L 1059.95 807.228 C 1016.63 801.687 993.892 832.954 996.636 872.488 C 999.202 909.475 1026.92 922.552 1059.75 919.383 L 1064.74 929.496 L 1064.72 930.021 C 1063.03 932.259 1061.62 931.936 1058.97 932.462 C 1020.61 940.085 980.096 922.088 978.539 878.464 C 978.258 870.587 969.877 873.83 965.982 871.172 C 965.438 866.611 965.209 865.531 966.036 861.034 C 968.705 857.471 969.375 858.369 975.181 857.455 C 980.7 853.803 980.096 840.897 982.717 832.943 C 984.809 826.585 987.873 820.59 991.801 815.171 C 1002.28 800.94 1015.89 794.793 1032.86 792.317 z" fill="rgb(109,214,198)" transform="translate(0,0)"></path>
<path d="M 1125.36 746.782 C 1136.22 750.799 1146.66 763.105 1130.79 770.627 C 1126.41 769.629 1121.56 766.465 1119.37 762.645 C 1114.51 754.16 1119.66 750.415 1125.36 746.782 z" fill="rgb(109,214,198)" transform="translate(0,0)"></path>
<path d="M 1129.33 956.59 C 1132.02 956.656 1137.07 958.558 1138.78 960.533 C 1145.3 968.075 1133.02 976.176 1128.59 979.409 C 1125.23 980.069 1121.16 978.609 1119.23 975.706 C 1116.88 966.737 1123.49 961.859 1129.33 956.59 z" fill="rgb(109,214,198)" transform="translate(0,0)"></path>
<path d="M 1158.17 795.884 C 1168.99 796.009 1176.45 811.823 1164.21 819.345 C 1159.51 819.213 1156.78 818.33 1154.51 814.216 C 1149.32 804.807 1150.46 800.934 1158.17 795.884 z" fill="rgb(109,214,198)" transform="translate(0,0)"></path>
<path d="M 1158.76 909.072 C 1177.98 907.824 1171.56 923.213 1163.79 932.483 C 1146.45 929.827 1151.42 919.296 1158.76 909.072 z" fill="rgb(109,214,198)" transform="translate(0,0)"></path>
<path d="M 880.034 908.854 C 885.389 908.538 887.717 909.724 890.844 914.101 C 893.115 917.324 893.915 921.358 893.045 925.204 C 892.384 928.165 889.333 929.939 886.91 931.622 C 883.053 931.033 881.132 931.316 878.635 927.982 C 872.276 919.492 871.87 914.796 880.034 908.854 z" fill="rgb(109,214,198)" transform="translate(0,0)"></path>
<path d="M 1016.25 1002.03 C 1028.57 1001.33 1043.16 1004.9 1030.27 1018.89 C 1017.18 1019.23 1004.64 1016.96 1016.25 1002.03 z" fill="rgb(109,214,198)" transform="translate(0,0)"></path>
<path d="M 881.994 795.694 C 897.77 798.664 895.347 809.931 885.921 818.986 C 867.941 816.733 873.467 805.305 881.994 795.694 z" fill="rgb(109,214,198)" transform="translate(0,0)"></path>
<path d="M 1171.88 852.806 C 1187.26 852.862 1186.26 869.182 1178.7 876.901 C 1164.65 874.068 1162.09 861.404 1171.88 852.806 z" fill="rgb(109,214,198)" transform="translate(0,0)"></path>
<path d="M 918.402 747.807 C 922.914 749.321 925.69 750.601 927.024 755.622 C 926.449 762.662 921.335 766.497 916.395 771.512 C 911.572 769.437 906.742 766.566 906.171 760.926 C 907.801 754.19 912.8 751.766 918.402 747.807 z" fill="rgb(109,214,198)" transform="translate(0,0)"></path>
<path d="M 960.928 990.545 C 974.368 992.135 983.562 997.606 972.301 1010.61 C 958.167 1008.68 951.137 1003.67 960.928 990.545 z" fill="rgb(109,214,198)" transform="translate(0,0)"></path>
<path d="M 912.652 957.749 C 921.026 957.505 924.652 963.712 929.337 969.629 C 927.116 972.553 923.942 975.626 921.333 978.298 C 913.38 978.205 906.871 973.223 906.82 964.782 C 907.836 961.261 909.847 960.04 912.652 957.749 z" fill="rgb(109,214,198)" transform="translate(0,0)"></path>
<path d="M 1078.77 991.048 C 1083.48 990.921 1087.18 992.75 1088.85 997.301 C 1089.44 1005.97 1084.02 1007.56 1077.19 1009.74 C 1069.45 1010.23 1065.21 1003.55 1069.05 996.922 C 1071.34 992.975 1074.73 992.456 1078.77 991.048 z" fill="rgb(109,214,198)" transform="translate(0,0)"></path>
<path d="M 1015.77 708.076 C 1027.57 707.815 1040.24 710.842 1029.38 724.442 C 1016.13 725.899 1005.42 722.041 1015.77 708.076 z" fill="rgb(109,214,198)" transform="translate(0,0)"></path>
<path d="M 1071.37 717.59 C 1082.52 716.758 1093.06 723.474 1083.64 735.565 C 1071.18 737.219 1060.73 730.185 1071.37 717.59 z" fill="rgb(109,214,198)" transform="translate(0,0)"></path>
<path d="M 968.599 718.112 C 983.773 724.04 975.353 734.519 963.299 737.966 C 946.776 730.458 958.548 722.395 968.599 718.112 z" fill="rgb(109,214,198)" transform="translate(0,0)"></path>
<path d="M 868.486 853.86 C 881.783 855.741 885.779 867.439 875.072 875.093 C 859.532 875.879 860.87 861.519 868.486 853.86 z" fill="rgb(109,214,198)" transform="translate(0,0)"></path>
<path d="M 663.6 0 L 686.089 0 L 686.156 1152 L 663.65 1152 C 663.186 1124.15 663.855 1094.98 663.802 1066.91 L 663.939 810.679 L 663.6 0 z" fill="rgb(254,254,254)" transform="translate(0,0)"></path>
<path d="M 308.463 650.4 C 315.597 649.598 323.406 649.892 330.547 650.63 C 392.154 656.997 441.543 701.537 449.517 763.336 C 452.722 763.063 455.935 762.88 459.15 762.789 C 486.772 762.278 513.616 771.959 533.604 791.231 C 551.592 808.851 561.846 832.893 562.11 858.071 C 562.833 909.485 522.749 951.127 472.753 958.342 C 456.808 960.644 438.252 959.797 422.018 959.809 C 400.186 959.79 378.353 959.891 356.522 960.11 C 352.08 956.69 348.885 954.764 344.137 951.933 C 322.657 943.103 304.661 946.695 285.637 959.069 C 267.836 959.572 249.314 959.189 231.349 959.585 C 221.029 958.583 200.825 961.716 191.493 959.141 C 178.391 954.68 151.895 951.292 141.63 943.997 C 58.7915 885.128 89.3647 763.197 188.332 746.042 C 193.067 729.379 201.241 713.893 212.326 700.582 C 237.103 670.72 269.967 653.892 308.463 650.4 z" fill="rgb(254,254,254)" transform="translate(0,0)"></path>
<path d="M 327.904 785.429 C 378.55 779.443 441.715 803.315 472.256 844.933 C 459.713 874.199 420.562 895.436 391.522 904.261 C 343.465 918.865 297.816 914.318 253.477 891.5 C 236.403 882.64 226.951 874.246 212.64 861.752 L 198.097 869.534 C 190.463 873.599 164.366 888.472 156.706 886.136 C 152.475 873.862 167.616 858.287 175.647 850.847 C 168.622 845.13 147.35 822.412 159.15 814.601 C 172.513 812.357 202.7 831.93 213.589 839.418 C 244.568 806.356 282.447 788.043 327.904 785.429 z" fill="rgb(44,44,44)" transform="translate(0,0)"></path>
<path d="M 325.639 797.387 C 343.972 795.054 365.023 797.691 382.864 802.179 C 366.267 832.939 380.725 865.001 406.639 884.917 C 371.352 899.468 344.809 903.578 307.08 897.725 C 266.018 889.373 250.079 876.473 217.741 851.524 C 243.914 820.297 285.452 801.7 325.639 797.387 z" fill="rgb(254,254,254)" transform="translate(0,0)"></path>
<path d="M 311.655 842.297 C 324.762 841.42 331.758 843.033 344.678 845.315 C 329.916 850.066 309.435 854.012 322.076 875.017 C 327.396 883.858 331.739 884.431 341.117 886.455 C 344.215 886.788 345.072 886.747 347.753 888.271 L 347.177 889.523 C 339.511 892.324 324.291 892.167 316.111 892.19 C 310.342 883.654 297.346 854.308 301.42 845.132 C 303.918 842.827 308.149 842.757 311.655 842.297 z" fill="rgb(44,44,44)" transform="translate(0,0)"></path>
<path d="M 394.18 805.382 C 416.56 808.266 445.219 832.448 461.251 847.364 L 443.346 862.974 C 435.475 869.441 429.562 873.271 420.603 877.835 C 391.831 863.725 381.361 834.666 394.18 805.382 z" fill="rgb(254,254,254)" transform="translate(0,0)"></path>
<path d="M 404.151 821.662 C 406.876 820.148 410.312 821.128 411.829 823.852 C 413.345 826.576 412.368 830.013 409.646 831.531 C 406.92 833.052 403.478 832.074 401.959 829.347 C 400.441 826.619 401.423 823.178 404.151 821.662 z" fill="rgb(44,44,44)" transform="translate(0,0)"></path>
<path d="M 172.254 829.903 C 180.374 831.994 198.679 842.196 203.505 849.267 C 207.806 855.568 189.533 861.145 185.117 862.959 C 181.471 864.629 177.099 866.312 173.342 867.871 C 181.082 860.008 184.942 856.291 194.636 851.108 C 186.325 844.641 179.372 837.649 172.254 829.903 z" fill="rgb(254,254,254)" transform="translate(0,0)"></path>
<path d="M 330.209 43.1965 C 342.036 41.7878 353.596 44.9247 359.704 55.9855 C 362.894 61.6543 363.588 68.3927 361.622 74.593 C 358.964 82.9195 354.358 86.5698 346.979 90.3474 L 347.004 157.611 C 348.043 157.668 349.082 157.742 350.119 157.833 C 393.03 161.594 421.78 180.729 448.589 212.753 C 461.249 206.908 492.627 190.213 504.323 181.336 C 506.037 176.701 505.635 166.49 508.727 162.522 C 521.284 146.406 548.61 148.993 554.125 170.366 C 555.86 176.928 554.87 183.914 551.378 189.734 C 542.968 203.78 528.138 203.735 515.266 195.96 C 496.334 206.883 476.826 217.325 457.71 228.028 C 460.251 233.572 462.596 239.204 464.74 244.913 C 479.061 282.929 473.786 315.538 457.62 351.353 C 476.171 362.043 497.361 371.241 515.185 382.327 C 534.121 375.938 554.964 379.736 555.011 403.618 C 555.009 410.827 552.05 417.721 546.824 422.688 C 535.73 433.281 520.376 430.158 510.512 419.361 C 504.126 412.371 504.629 403.941 505.141 395.144 C 487.211 386.949 465.483 374.827 447.684 365.466 C 446.354 367.227 445.005 368.974 443.636 370.706 C 418.1 402.962 387.09 417.555 347.036 422.224 L 347.118 488.208 C 348.682 488.982 350.216 489.817 351.715 490.71 C 358.06 494.507 362.798 500.322 364.515 507.595 C 366.015 513.887 364.912 520.517 361.456 525.985 C 356.453 533.781 350.161 536.088 341.637 537.957 C 337.384 538.171 333.032 537.86 329.039 536.317 C 322.485 533.83 317.223 528.788 314.459 522.346 C 311.791 516.086 311.799 509.006 314.482 502.752 C 317.735 495.182 322.077 491.942 329.405 488.986 C 329.455 466.887 329.287 444.788 328.901 422.692 C 285.241 417.341 257.102 401.446 229.649 367.039 C 210.558 376.978 191.233 387.999 172.365 398.459 C 177.035 431.047 131.967 441.185 122.924 404.446 C 127.431 381.98 143.58 376.25 163.763 383.992 C 172.114 377.54 208.365 359.445 220.302 352.936 C 218.73 349.587 217.219 346.209 215.77 342.804 C 198.335 301.156 203.309 267.841 219.891 227.313 C 207.043 218.812 177.84 203.296 163.911 196.259 C 158.012 199.265 151.519 201.195 144.845 200.408 C 138.033 199.587 131.827 196.088 127.599 190.684 C 123.477 185.459 121.519 178.919 122.457 172.296 C 123.301 166.165 126.593 160.638 131.582 156.976 C 150.619 142.881 178.132 156.938 172.796 182.829 C 191.843 192.787 210.764 203.2 229.813 213.013 C 257.21 182.681 287.199 160.784 329.57 157.762 C 329.709 135.49 329.7 113.217 329.543 90.9455 C 322.467 87.9925 316.996 83.1604 313.844 76.0876 C 311.276 70.4618 311.088 64.0373 313.322 58.2709 C 316.586 49.9837 322.6 46.535 330.209 43.1965 z" fill="rgb(254,254,254)" transform="translate(0,0)"></path>
<path d="M 330.295 250.317 C 352.279 245.422 374.09 259.195 379.121 281.149 C 384.151 303.102 370.513 324.999 348.591 330.165 C 326.477 335.376 304.346 321.592 299.272 299.446 C 294.197 277.3 308.118 255.255 330.295 250.317 z" fill="rgb(44,44,44)" transform="translate(0,0)"></path>
<path d="M 235.439 236.259 C 242.284 238.62 278.905 260.675 286.946 265.447 L 286.409 266.653 C 278.884 283.685 280.284 298.269 286.787 315.106 L 263.5 328.169 C 254.06 333.574 244.589 338.924 235.087 344.221 C 214.95 312.056 219.316 269.023 235.439 236.259 z" fill="rgb(44,44,44)" transform="translate(0,0)"></path>
<path d="M 441.72 236.938 C 445.438 237.727 447.951 246.328 449.242 249.74 C 461.64 282.515 457.483 311.217 443.438 342.075 C 434.162 337.322 424.942 332.464 415.777 327.5 C 407.814 323.269 399.825 318.607 391.971 314.139 C 392.983 312.128 393.881 310.061 394.661 307.949 C 400.262 292.93 397.491 279.332 391.055 265.4 C 407.488 255.744 424.764 245.487 441.72 236.938 z" fill="rgb(44,44,44)" transform="translate(0,0)"></path>
<path d="M 346.968 173.771 C 381.257 175.74 413.596 194.328 434.232 221.401 C 428.563 224.358 422.257 228.131 416.632 231.331 C 405.414 237.822 393.101 244.306 381.674 250.571 C 371.967 241.674 359.693 236.353 346.945 233.647 L 346.968 173.771 z" fill="rgb(44,44,44)" transform="translate(0,0)"></path>
<path d="M 382.464 328.949 C 398.646 336.461 417.979 347.475 433.966 356.042 C 419.595 374.713 408.041 383.218 387.714 394.458 C 372.81 401.265 363.233 403.546 347.082 405.604 C 347.201 385.961 347.139 366.317 346.893 346.675 C 362.674 344.262 371.126 339.635 382.464 328.949 z" fill="rgb(44,44,44)" transform="translate(0,0)"></path>
<path d="M 295.725 329.879 C 297.652 330.133 300.205 332.507 301.984 333.708 C 312.922 341.092 317.284 343.444 329.797 346.539 C 329.093 365.333 329.547 386.588 329.536 405.563 C 312.213 403.916 304.61 402.169 288.785 394.956 C 268.504 385.095 258.036 375.665 244.649 358.149 C 261.547 348.497 278.574 339.073 295.725 329.879 z" fill="rgb(44,44,44)" transform="translate(0,0)"></path>
<path d="M 325.607 174.224 C 326.703 174.095 327.202 174.416 328.372 174.77 C 330.739 180.308 329.439 225.231 329.344 234.236 C 314.386 238.327 308.862 240.899 296.821 251.083 L 266.356 234.331 C 258.69 230.058 252.33 226.145 244.94 221.395 C 264.115 194.311 294.048 180.596 325.607 174.224 z" fill="rgb(44,44,44)" transform="translate(0,0)"></path>
<path d="M 316.003 960.288 C 343.82 959.126 352.203 982.264 374.121 993.542 C 382.473 997.839 390.057 999.015 398.887 1000.75 C 409.724 1002.87 473.731 1004.69 481.198 1002.33 C 482.28 999.326 482.61 997.343 485.083 995.407 C 491.084 994.116 510.782 1005.97 517.202 1009.45 C 509.459 1013.92 493.786 1024.42 485.715 1023.55 C 482.048 1021.27 482.874 1021.31 480.531 1017.01 C 458.449 1017.42 441.441 1015.26 420.084 1021.43 C 403.116 1028.34 398.036 1037.43 382.745 1045.79 C 375.664 1049.67 347.533 1047.19 344.968 1040.05 C 347.977 1038.07 355.214 1039.88 360.171 1039.52 C 378.479 1038.2 386.528 1027.99 397.67 1015.59 C 370.345 1008.21 351.158 1000.34 332.004 978.397 C 317.262 961.507 292.897 979.228 287.311 974.508 C 290.031 968.41 309.69 961.179 316.003 960.288 z" fill="rgb(254,254,254)" transform="translate(0,0)"></path>
<path d="M 149.049 963.313 C 185.222 962.313 205.077 993.58 238.03 1001.59 C 262.581 1007.41 288.942 1002.64 313.996 1003.7 C 318.514 1003.89 327.197 1005.34 327.014 1010.91 C 318.826 1019.66 282.862 1014.22 266.592 1019.08 C 241.07 1026.71 233.592 1039.3 208.07 1047.24 C 197.351 1049.59 159 1052.42 155.148 1041.21 L 156.504 1039.65 C 190.704 1043.69 210.869 1038.96 236.571 1015.1 C 223.905 1011.87 215.701 1009.14 204.077 1002.62 C 185.835 992.372 170.537 976.02 148.902 973.38 C 139.317 972.211 131.065 975.854 121.744 976.923 C 119.534 977.177 119.405 976.645 118.098 975.388 L 118.557 973.686 C 124.538 968.467 140.976 964.267 149.049 963.313 z" fill="rgb(254,254,254)" transform="translate(0,0)"></path>
<path d="M 127.541 1004.1 C 136.635 1003.32 164.224 1001.09 170.188 1007.36 C 170.424 1011.61 170.482 1010.21 168.353 1014.26 C 158.627 1014.33 131.771 1017.41 125.613 1010.67 C 125.361 1006.61 125.279 1007.97 127.541 1004.1 z" fill="rgb(254,254,254)" transform="translate(0,0)"></path>
<metadata><recraft-signature>{"signed_by": "recraft", "signature_b64": "A6c5pywEq2r4UITqutYeObYaMjwOy5kZu87A4FptOK4CGVN80/RHico2dfyZ+13QXQhzGyuH6wnOajC2OYBsDA==", "signing_algo": "Ed25519", "generation_timestamp": 1779033511, "identifier": "0045a877-a640-4ede-9f98-1bb91dc5a722"}</recraft-signature></metadata></svg>