<svg xmlns="http://www.w3.org/2000/svg" height="1024" preserveAspectRatio="none" style="display: block;" version="1.1" viewBox="0 0 2048 2048" width="1024">
<defs>
	<linearGradient gradientUnits="userSpaceOnUse" id="Gradient1" x1="965.814" x2="1245.64" y1="176.474" y2="762.967">
		<stop class="stop0" offset="0" stop-color="rgb(251,105,82)" stop-opacity="1"></stop>
		<stop class="stop1" offset="1" stop-color="rgb(247,149,96)" stop-opacity="1"></stop>
	</linearGradient>
	<linearGradient gradientUnits="userSpaceOnUse" id="Gradient2" x1="340.007" x2="1692.26" y1="567.161" y2="1024.48">
		<stop class="stop0" offset="0" stop-color="rgb(255,91,68)" stop-opacity="1"></stop>
		<stop class="stop1" offset="1" stop-color="rgb(196,247,170)" stop-opacity="1"></stop>
	</linearGradient>
</defs>
<path d="M 0 0 L 2048 0 L 2048 2048 L 0 2048 L 0 0 z" fill="rgb(42,41,41)" transform="translate(0,0)"></path>
<path d="M 427.523 70.4163 C 459.197 69.111 497.504 70.1514 529.785 70.1524 L 724.451 70.1729 L 1283.37 70.7507 L 1524.23 70.2429 C 1570.58 70.123 1628.21 67.2878 1673.32 74.7227 C 1833.72 101.162 1962.53 238.823 1978.25 400.679 C 1981.08 429.783 1979.99 460.953 1979.99 490.356 L 1980.13 626.072 L 1981 1092.71 L 1981.03 1460.3 C 1980.92 1488.02 1980.97 1515.73 1981.19 1543.44 C 1981.63 1585.55 1982.77 1620.24 1976.05 1662.13 C 1965.7 1728.75 1937.32 1791.26 1893.97 1842.89 C 1823.04 1928.37 1731.69 1970.78 1622.41 1980.92 C 1591.81 1982.64 1557.48 1982.08 1526.46 1981.79 C 1482.44 1981.14 1438.42 1980.9 1394.39 1981.09 L 808.66 1981.61 L 544.976 1981.69 C 497.421 1981.61 426.596 1983.81 381.215 1975.59 C 310.82 1963.57 245.335 1931.65 192.49 1883.62 C 116.512 1815.62 68.1665 1713.43 68.5129 1611.8 C 68.601 1585.97 68.1445 1560.09 68.1037 1534.24 L 67.969 1368.54 L 68.0099 861.668 L 68.0343 561.787 L 68.1298 475.867 C 68.1954 443.501 67.7731 413.523 73.1068 381.481 C 85.0036 310.009 115.086 244.419 163.978 190.59 C 219.312 129.781 293.368 89.1916 374.396 75.2611 C 392.852 72.1398 408.898 71.2488 427.523 70.4163 z" fill="rgb(1,1,1)" transform="translate(0,0)"></path>
<path d="M 495.821 73.5 L 1298.54 73.9083 L 1515.45 73.297 L 1587.3 73.4718 C 1622.91 73.6449 1648.24 73.1089 1683.5 80.1457 C 1748.65 93.1493 1817.56 128.866 1864.83 175.609 C 1917.61 227.685 1954.06 294.016 1969.74 366.488 C 1980.4 417.442 1977.4 490.371 1977.5 543.821 L 1977.99 774.891 L 1978.39 1578.67 C 1978.46 1600.13 1978.31 1618.92 1975.93 1640.28 C 1966.85 1726.04 1928.58 1806.08 1867.52 1866.98 C 1792.95 1941.43 1694.05 1978.34 1589.41 1978.19 C 1575.83 1978.17 1562.24 1978.19 1548.67 1978.16 L 767.251 1978.21 C 686.045 1979.01 604.832 1979.09 523.624 1978.45 C 472.752 1978.11 429.004 1980.33 378.713 1971.78 C 202.837 1941.86 65.3366 1777.53 71.0634 1598.62 C 71.6477 1580.37 70.9738 1560.36 70.9514 1541.98 C 71.0796 1491.75 70.8538 1441.52 70.2739 1391.3 L 70.6727 791.272 C 70.0344 707.685 70.1223 624.094 70.9364 540.509 C 71.1872 485.238 67.9287 421.925 78.6022 368.426 C 92.7339 297.592 126.464 232.748 177.484 181.284 C 239.006 119.583 320.454 81.7543 407.287 74.5503 C 430.237 72.6262 471.618 73.6497 495.821 73.5 z" fill="rgb(42,41,41)" transform="translate(0,0)"></path>
<path d="M 1007.92 1175.54 C 1003.22 1174.06 982.833 1163.85 976.955 1161.2 C 948.435 1148.36 920.655 1134.46 892.598 1120.48 C 744.724 1046.84 582.228 974.334 458.269 863.359 C 391.83 803.131 343.361 728.031 340.046 635.953 C 337.538 566.286 354.854 509.548 389.417 449.589 C 410.666 412.728 430.858 386.217 459.559 354.804 C 542.807 263.689 645.796 197.613 756.12 144.02 C 771.833 136.387 796.689 122.948 814.115 117.237 C 876.848 114.968 948.918 118.88 1011.03 116.28 C 997.84 124.606 978.816 132.185 964.378 139.117 C 914.355 163.134 866.927 188.449 818.829 216.049 C 717.521 274.183 614.312 343.417 555.695 447.705 C 524.264 503.626 511.962 573.892 530.633 636.148 C 571.271 767.359 719.382 848.839 832.832 908.859 C 903.342 946.162 974.039 978.323 1045.39 1013.36 C 1063.54 1022.27 1089.85 1033.03 1106.36 1042.18 L 1107.26 1042.69 C 1149.36 1060.68 1190.36 1082.3 1232.55 1103.48 C 1402.89 1189.01 1612.42 1310.57 1518.87 1536.64 C 1508.47 1561.79 1483.8 1604.58 1463.63 1623.2 C 1452.06 1637.67 1436.84 1654.12 1423.04 1666.74 C 1313.13 1767.27 1167.11 1837.26 1031.67 1896.99 C 1011.13 1906.05 979.522 1922.27 958.635 1927.95 C 953.806 1929.26 914.793 1928.83 907.502 1928.82 L 806.586 1928.75 L 620.02 1928.77 C 576.248 1928.89 531.289 1929.6 487.634 1928.48 C 527.054 1913.28 567.141 1900.72 606.444 1885.79 C 779.75 1819.91 953.641 1751.29 1115.78 1660.73 C 1186.94 1620.98 1240.65 1588.76 1299.95 1533.5 C 1313.75 1516.01 1327.19 1503.85 1338.7 1483.26 C 1399.15 1375.08 1279.74 1313.14 1200.7 1271.81 C 1163.98 1252.62 1127.05 1233.84 1089.92 1215.46 C 1063.59 1202.72 1033.27 1189.55 1007.92 1175.54 z" fill="url(#Gradient2)" transform="translate(0,0)"></path>
<path d="M 1415.19 1326.48 C 1422.83 1326.99 1436.04 1322.66 1443.95 1320.48 C 1451.96 1318.28 1486.85 1326.45 1489.7 1324.12 C 1489.71 1322.21 1489.76 1320.29 1489.85 1318.38 C 1492.18 1320.09 1494.49 1321.84 1496.77 1323.62 L 1497.95 1322.84 L 1498.53 1319.74 L 1502.91 1321.25 C 1504.81 1319.65 1504.07 1320.64 1504.64 1317.9 C 1508.13 1318.52 1511.43 1321.4 1513.11 1324.39 C 1559.72 1407.14 1539.87 1515.29 1487.22 1590.67 C 1479.44 1601.8 1469.21 1611.78 1462.1 1622.68 L 1463.63 1623.2 C 1452.06 1637.67 1436.84 1654.12 1423.04 1666.74 C 1313.13 1767.27 1167.11 1837.26 1031.67 1896.99 C 1011.13 1906.05 979.522 1922.27 958.635 1927.95 C 953.806 1929.26 914.793 1928.83 907.502 1928.82 L 806.586 1928.75 L 620.02 1928.77 C 576.248 1928.89 531.289 1929.6 487.634 1928.48 C 527.054 1913.28 567.141 1900.72 606.444 1885.79 C 779.75 1819.91 953.641 1751.29 1115.78 1660.73 C 1186.94 1620.98 1240.65 1588.76 1299.95 1533.5 C 1314.96 1527.03 1341.5 1483.79 1347.49 1468.98 C 1358.47 1441.82 1358.19 1419.82 1351.77 1392 C 1351.17 1389.44 1352.03 1383.33 1354.7 1383.29 C 1371.59 1375.34 1382.66 1354.87 1397.13 1343.57 C 1399.94 1341.38 1401.01 1337.94 1402.34 1334.62 L 1415.19 1326.48 z" fill="rgb(137,246,180)" transform="translate(0,0)"></path>
<path d="M 1158.32 1028.43 C 1154.18 1023.31 1103.4 1000.71 1093.35 995.985 L 967.599 936.181 C 960.13 932.593 931.425 920.117 926.473 916.276 C 928.19 914.989 927.442 915.703 928.747 914.165 C 922.622 908.608 931.762 906.817 932.369 900.297 C 932.459 899.328 928.195 898.206 927.683 894.153 C 933.761 883.597 939.14 874.601 946.962 865.274 C 956.001 854.496 962.92 842.159 971.898 831.213 C 994.146 829.4 991.233 818.826 1003.54 805.204 C 1005.36 803.504 1009.33 803.054 1011.5 804.065 C 1028.42 811.99 1046.09 820.16 1063.01 828.009 L 1190.75 887.172 C 1196.65 889.945 1225.28 904.302 1229.64 904.378 C 1234.94 905.633 1252.61 914.673 1258.56 917.557 L 1317.4 946.121 C 1434.57 1002.96 1567.49 1072.17 1658.89 1166.99 C 1674.59 1183.27 1691.08 1207.2 1703.12 1226.69 C 1749.17 1301.19 1758.6 1383.75 1738.39 1468.04 C 1725.89 1519.14 1704.03 1567.49 1673.92 1610.62 C 1669.35 1617.26 1660.67 1629.92 1655.49 1635.64 C 1653.15 1639.54 1644.09 1650.73 1640.73 1654.61 C 1549.81 1759.38 1430.2 1841.07 1305.67 1900.97 C 1290.61 1908.22 1255.32 1926.21 1240.81 1928.81 C 1236.47 1929.58 1198.03 1929.01 1190.34 1929.04 L 1094.66 1929.63 C 1076.41 1929.82 1055.16 1929.57 1037.22 1931.01 C 1046.82 1925.65 1065.64 1917.57 1076.13 1912.7 C 1102.85 1900.38 1129.5 1887.93 1156.1 1875.34 C 1290.62 1810.35 1429.05 1729.06 1517.58 1606.04 C 1522.49 1596.14 1530.38 1586.51 1535.4 1576.48 C 1689.01 1269.93 1368.99 1138.18 1158.32 1028.43 z" fill="rgb(194,224,153)" transform="translate(0,0)"></path>
<path d="M 1517.58 1606.04 C 1517.2 1617.09 1465.48 1672.71 1455.34 1682.21 C 1454.26 1683.22 1453.17 1684.23 1452.07 1685.22 C 1453.69 1685.95 1455.66 1686.85 1458 1687.91 C 1465.36 1698.53 1471.27 1719.36 1477.94 1729.83 C 1485.77 1732.4 1491.23 1734.82 1498.31 1739.25 C 1499.55 1741.84 1501.11 1746.49 1503.17 1747.3 C 1507.27 1743.69 1514.77 1736.36 1519.19 1734.31 L 1521.01 1734.51 C 1524.96 1740.5 1517.74 1750.11 1530.28 1746.82 C 1531.7 1749.54 1531.04 1749.62 1530.6 1753.32 C 1527.16 1758.37 1522.8 1760.42 1521.55 1764.35 C 1524.65 1763.4 1539.16 1750.83 1542.64 1747.92 C 1582.85 1714.22 1620.3 1677.69 1652.81 1636.43 C 1654.2 1634.66 1652.95 1635.91 1655.05 1634.13 L 1655.49 1635.64 C 1653.15 1639.54 1644.09 1650.73 1640.73 1654.61 C 1549.81 1759.38 1430.2 1841.07 1305.67 1900.97 C 1290.61 1908.22 1255.32 1926.21 1240.81 1928.81 C 1236.47 1929.58 1198.03 1929.01 1190.34 1929.04 L 1094.66 1929.63 C 1076.41 1929.82 1055.16 1929.57 1037.22 1931.01 C 1046.82 1925.65 1065.64 1917.57 1076.13 1912.7 C 1102.85 1900.38 1129.5 1887.93 1156.1 1875.34 C 1290.62 1810.35 1429.05 1729.06 1517.58 1606.04 z" fill="rgb(137,246,180)" transform="translate(0,0)"></path>
<path d="M 1158.32 1028.43 C 1146.8 1023.98 1129.58 1015.31 1117.96 1009.81 L 1044.4 975.003 C 979.012 944.906 914.334 913.287 850.42 880.173 C 764.412 835.222 687.114 794.744 620.034 723.195 C 508.82 604.573 553.152 462.782 663.701 365.243 C 725.942 310.325 788.433 268.821 861.595 229.158 C 937.676 187.913 1015.33 148.549 1096.31 117.955 C 1101.68 115.919 1137.22 116.759 1145.66 116.775 L 1236.79 116.888 L 1445.96 116.996 C 1485.33 117.083 1528.13 116.372 1567.2 118.206 C 1455.97 156.789 1346.09 199.15 1237.75 245.216 C 1104.93 301.286 850.49 410.767 769.613 530.265 C 752.962 554.867 742.023 584.133 747.941 614.099 C 753.027 639.857 770.888 661.341 790.103 678.265 C 831.965 715.136 884.861 739.416 934.238 764.322 C 1004.05 798.94 1074.52 832.2 1145.62 864.084 C 1164.37 872.61 1183.05 881.297 1201.65 890.141 C 1209.73 893.967 1222.55 899.326 1229.64 904.378 C 1225.28 904.302 1196.65 889.945 1190.75 887.172 L 1063.01 828.009 C 1046.09 820.16 1028.42 811.99 1011.5 804.065 C 1009.33 803.054 1005.36 803.504 1003.54 805.204 C 991.233 818.826 994.146 829.4 971.898 831.213 C 962.92 842.159 956.001 854.496 946.962 865.274 C 939.14 874.601 933.761 883.597 927.683 894.153 C 928.195 898.206 932.459 899.328 932.369 900.297 C 931.762 906.817 922.622 908.608 928.747 914.165 C 927.442 915.703 928.19 914.989 926.473 916.276 C 931.425 920.117 960.13 932.593 967.599 936.181 L 1093.35 995.985 C 1103.4 1000.71 1154.18 1023.31 1158.32 1028.43 z" fill="url(#Gradient1)" transform="translate(0,0)"></path>
<path d="M 544.864 1246.85 C 570.276 1270.97 595.998 1294.76 622.022 1318.22 C 610.66 1329.45 594.154 1343.31 582.015 1354.5 L 450.72 1473.21 C 508.485 1519.52 565.051 1573.71 621.001 1622.47 C 598.527 1645.68 567.685 1673.45 543.713 1696.42 C 538.453 1693.75 491.347 1648.22 481.383 1639.07 L 361.451 1529.38 C 340.08 1509.74 318.454 1490.83 297.879 1470.34 C 304.824 1463.45 312.344 1456.76 319.58 1450.15 C 394.148 1382.04 471.529 1316.21 544.864 1246.85 z" fill="rgb(248,111,82)" transform="translate(0,0)"></path>
<path d="M 775.235 1247.67 C 776.111 1248.03 810.791 1280.8 814.721 1284.37 L 954.674 1409.91 C 978.041 1430.83 999.604 1451.78 1023.78 1472.02 C 1005.52 1489.07 987.453 1504.31 969.093 1520.93 C 924.604 1561.44 879.894 1601.7 834.963 1641.71 C 826.117 1649.55 781.698 1690.59 775.452 1694.17 C 750.99 1672.46 721.06 1645.06 697.409 1621.93 C 725.27 1594.49 759.545 1569.3 789.042 1543.19 C 815.817 1519.49 844.324 1495.78 872.193 1473.41 C 858.854 1460.85 843.675 1448.49 829.702 1436.37 C 799.658 1410.62 769.813 1384.64 740.171 1358.44 C 726.219 1346.13 711.761 1333.97 698.624 1320.85 C 724.55 1296.87 750.09 1272.47 775.235 1247.67 z" fill="rgb(248,111,82)" transform="translate(0,0)"></path>
<metadata><recraft-signature>{"signed_by": "recraft", "signature_b64": "Ukx3o8zqBmdiZrO5dg2G/Cj6586Y71HzchCHRs8jTCPc0WYIDTIpYiGsSG0pjqhUFCR0k3mGk1qjTT3bVB3gBA==", "signing_algo": "Ed25519", "generation_timestamp": 1779033544, "identifier": "ef3acc83-c2ff-41ae-8545-97849a974fcb"}</recraft-signature></metadata></svg>