<svg xmlns="http://www.w3.org/2000/svg" height="1024" preserveAspectRatio="none" style="display: block;" version="1.1" viewBox="0 0 2048 2048" width="1024">
<path d="M 0 0 L 2048 0 L 2048 2048 L 0 2048 L 0 0 z" fill="rgb(255,255,255)" transform="translate(0,0)"></path>
<path d="M 448.592 417.739 C 443.415 386.68 451.417 327.568 474.257 304.339 C 505.489 272.576 545.511 261.416 588.383 258.569 C 635.229 255.459 650.079 277.205 676.629 311.623 C 682.611 319.116 692.327 331.77 700.797 337.077 C 719.477 348.78 745.139 356.179 763.113 368.812 C 765.265 370.324 764.872 371.324 764.889 373.262 C 761.207 379.435 751.536 384.595 745.267 388.412 C 729.596 397.953 713.823 409.298 694.74 409.15 L 693.325 409.126 C 693.067 414.053 691.131 424.432 691.386 427.294 C 693.154 447.137 721.019 467.418 688.12 478.881 C 685.824 479.681 688.651 487.136 686.912 490.623 C 683.394 497.679 676.817 503.208 672.171 509.594 C 664.267 520.08 657.569 541.027 645.006 546.308 C 635.297 550.39 617.011 539.672 607.863 535.05 L 584.753 570.932 C 619.531 619.266 626.356 648.222 635.454 705.974 C 648.794 687.869 663.627 664.87 678.749 648.68 C 669.158 641.28 662.648 634.149 658.003 622.696 C 652.206 608.112 652.556 591.803 658.973 577.481 C 666.854 559.47 680.187 550.352 697.677 543.345 C 704.302 518.45 717.64 483.052 725.676 457.495 C 732.877 455.509 737.127 455.171 744.405 454.98 C 748.024 448.039 752.375 440.752 756.283 433.914 C 750.356 431.585 735.415 428.126 732.245 424 C 733.306 416.519 740.576 405.383 744.142 398.708 C 746.691 393.937 755.201 392.853 760.644 391.553 L 760.601 391.828 C 762.534 390.378 767.492 384.25 770.079 384.918 C 786.1 389.052 833.188 401.521 844.974 410.428 C 849.384 418.532 842.922 435.588 840.349 444.598 C 871.489 459.083 885.426 446.717 874.863 488.805 C 903.815 501.922 935.178 503.815 962.48 518.473 C 968.173 521.53 969.677 526.735 970.592 532.798 C 979.058 519.376 983.421 512.341 998.752 506.937 C 1013.4 501.774 1028.44 499.393 1043.98 499.913 C 1052.13 500.186 1067.6 498.073 1070.45 507.107 C 1065.8 519.085 1011.88 536.237 1005.81 544.991 C 1007.97 549.584 1023.2 545.779 1035.13 562.724 C 1041.72 572.214 1044.07 584.011 1041.64 595.304 C 1038.05 612.781 1024.67 629.453 1005.73 630.015 C 998.624 630.226 992.774 628.452 985.956 626.736 C 990.853 634.826 1022.65 679.552 1014.19 688.5 C 1005.76 688.803 971.486 664.418 964.683 657.904 C 951.854 645.618 948.292 634.449 947.843 617.369 C 943.455 619.418 940.542 621.328 936.472 623.875 C 924.379 622.225 898.646 613.799 884.972 610.121 C 880.23 618.213 876.079 621.906 869.289 628.178 C 861.066 662.887 796.848 682.265 764.862 679.862 C 742.587 757.249 720.8 836.912 675.711 904.865 C 665.107 920.845 654.857 929.257 644.624 943.117 L 643.933 944.072 C 644.912 959.636 649.403 974.998 652.195 991.442 C 659.354 1033.61 660.508 1113.19 607.066 1126.76 C 600.774 1128.35 589.906 1126.33 583.124 1127.05 C 565.307 1128.94 547.014 1133.83 530.935 1122.54 C 507.239 1105.61 500.009 1071.24 494.956 1044.74 C 484.945 1048.41 476.161 1050.2 465.836 1052.45 C 473.653 1073.32 480.852 1094.42 487.421 1115.71 C 493.439 1135.66 499.002 1158.8 505.646 1178.18 C 533.72 1260.06 560.322 1338.71 578.023 1423.6 C 593.178 1496.28 600.973 1565.87 610.206 1639.23 C 618.138 1697.55 625.614 1755.93 632.634 1814.37 C 633.69 1815.15 636.267 1817.03 636.485 1818.37 C 640.492 1842.95 644.93 1867.57 648.274 1892.25 C 638.859 1901.26 625.642 1906.43 613.791 1911.64 C 631.662 1938.68 659.399 1948.24 689.738 1953.67 C 702.145 1955.89 714.023 1958.42 724.912 1964.88 C 728.092 1968.78 730.706 1970.13 733.712 1973.44 C 731.812 1978.86 729.908 1986.47 728.321 1992.15 C 716.323 1996.27 704.553 2001.69 692.451 2005.79 C 665.35 2014.98 637.931 2013.26 609.86 2011.76 C 606.534 2016.62 604.051 2018.36 598.171 2019.3 C 580.417 2022.14 560.672 2024.01 542.744 2023.86 C 517.071 1989.57 530.907 1964.26 528.331 1928.51 C 517.856 1928.93 509.49 1929.17 498.925 1928.76 C 490.602 1906.63 482.307 1884.73 473.048 1862.97 C 471.302 1858.86 475.806 1853.72 475.613 1853.02 C 466.993 1823.45 460.748 1794.34 455.651 1764.03 C 443.888 1694.08 441.575 1625.78 450.76 1555.27 C 444.923 1554.69 440.923 1555.04 437.086 1550.6 C 435.894 1543.4 444.518 1536.45 446.86 1526.15 C 442.566 1527.49 437.786 1528.72 433.416 1529.94 C 429.39 1527.94 426.222 1526.86 424.343 1522.85 C 423.784 1515.71 432.392 1507.42 437.414 1499.54 L 436.504 1498.96 C 422.055 1489.88 414.96 1477.55 407.35 1462.43 C 398.316 1497.45 388.812 1533.14 370.582 1564.7 C 367.107 1570.72 363.809 1576.95 360.477 1583.06 L 315.618 1663.63 C 290.024 1709.13 263.999 1754.39 237.546 1799.4 C 228.053 1815.72 206.399 1856.71 193.748 1871.67 C 189.858 1876.27 163.163 1870.86 154.561 1869.3 L 155.428 1871.08 C 161.043 1882.41 182.453 1920.85 195.129 1926.18 C 203.731 1929.08 214.048 1930.38 222.322 1933.87 C 233.515 1938.59 254.462 1953.98 247.027 1968.29 C 236.76 1976.52 210.535 1976.37 197.743 1976.98 C 158.344 1978.85 133.232 1961.06 101.155 1941.6 C 100.474 1943.67 98.565 1950.89 95.9026 1950.54 C 76.8826 1948.03 45.8464 1931.37 31.726 1919.9 C 35.1345 1902.88 44.5958 1867.97 55.7087 1855.57 C 67.8475 1842.02 70.2276 1845.62 79.0352 1826.38 C 74.5296 1818.84 63.9155 1806.47 58.0116 1798.92 C 61.3521 1789.97 80.5817 1736.16 85.7542 1733.18 C 88.4225 1733.01 89.6154 1733.11 92.1335 1732.22 C 123.035 1654.58 154.912 1578.89 215.277 1518.89 C 224.568 1509.66 239.077 1504.4 243.271 1491.14 C 241.476 1485.3 229.968 1484.83 233.942 1474.83 C 236.921 1472.5 240.994 1472.5 244.875 1472.01 C 248.263 1469.18 245.612 1456.85 244.846 1452.32 C 241.905 1434.94 238.614 1417.59 235.59 1400.22 C 227.702 1354.94 219.278 1309.75 210.32 1264.67 C 198.401 1203.28 180.621 1125.01 197.568 1063.07 C 189.17 1057.78 184.385 1053.17 179.8 1044.47 C 192.154 994.928 217.657 932.787 238.8 887.128 C 264.469 831.696 280.056 798.747 289.797 738.171 C 299.059 680.57 332.467 616.19 373.8 575.83 C 386.611 563.321 401.409 550.913 415.629 539.794 C 427.555 530.435 433.715 521.326 446.42 513.064 C 438.61 504.639 435.741 499.938 430.023 489.941 C 426.3 492.168 425.43 493.519 420.845 493.653 C 406.718 486.79 442.363 429.328 448.592 417.739 z" fill="rgb(78,10,14)" transform="translate(0,0)"></path>
<path d="M 443.715 1030.48 C 448.153 1039.43 451.332 1046.76 453.677 1056.56 C 471.788 1095.5 482.826 1146.49 496.833 1187.55 C 524.308 1268.09 552.141 1351.64 568.695 1435.29 C 594.034 1563.32 603.352 1695.3 623.473 1824.49 C 612.763 1831.97 608.254 1835.3 596.038 1839.93 C 576.573 1848.67 509.584 1856.94 488.385 1853.74 C 463.992 1780.5 454.271 1684.63 457.225 1607.67 C 457.963 1588.46 459.998 1572.57 461.665 1553.9 C 460.08 1548.69 456.398 1549.44 455.676 1545.61 C 475.614 1531.63 514.138 1502.46 527.4 1483.29 C 526.673 1480.48 527.189 1481.82 524.465 1479.45 C 515.913 1477.68 508.949 1488.1 503.132 1493.06 C 487.602 1506.27 469.35 1524.83 452.324 1535.77 L 451.487 1535.25 C 463.844 1522.49 453.314 1521.14 458.161 1516.33 C 466.812 1507.74 495.297 1460.89 484.344 1451.55 C 481.209 1451.63 478.441 1452.75 477.41 1455.75 C 468.46 1481.76 461.976 1503.82 436.275 1519.24 C 440.535 1511.74 445.106 1505.73 449.385 1497.77 C 442.498 1491.43 436.987 1488.46 431.421 1479.49 C 407.29 1440.6 386.849 1398.87 364.617 1358.85 L 307.115 1253.6 C 289.814 1222.62 271.701 1192.39 256.292 1160.35 C 242.901 1132.5 233.788 1104.67 224.2 1075.32 C 249.641 1084.86 281.089 1091.59 308.038 1092.27 C 369.72 1093.85 401.516 1070.43 443.715 1030.48 z" fill="rgb(136,17,55)" transform="translate(0,0)"></path>
<path d="M 453.677 1056.56 C 471.788 1095.5 482.826 1146.49 496.833 1187.55 C 524.308 1268.09 552.141 1351.64 568.695 1435.29 C 594.034 1563.32 603.352 1695.3 623.473 1824.49 C 612.763 1831.97 608.254 1835.3 596.038 1839.93 C 593.6 1833.28 589.726 1787.32 588.722 1777.46 C 586.136 1752.04 583.075 1725.72 580.403 1700.27 C 574.772 1648.46 568.622 1596.71 561.954 1545.03 C 555.686 1494.15 551.055 1450.8 541.085 1400.29 C 529.506 1342.98 515.752 1286.13 499.853 1229.86 C 485.582 1177.97 467.524 1127.08 456.249 1074.44 C 455.019 1068.7 453.542 1062.38 453.677 1056.56 z" fill="rgb(255,255,255)" transform="translate(0,0)"></path>
<path d="M 429.073 543.936 C 482.104 573.723 524.015 650.329 551.133 702.789 C 500.339 710.92 464.742 714.924 440.002 765.822 C 425.863 740.705 416.058 710.347 406.48 683.288 C 404.607 677.995 403.213 671.289 400.113 666.709 C 397.441 664.933 397.405 664.436 394.34 664.616 L 392.714 666.568 C 390.523 678.237 404.462 710.989 409.34 723.856 C 401.548 712.055 387.04 687.317 379.611 677.965 C 377.238 676.853 377.13 677.172 374.453 677.623 C 364.831 687.641 426.052 766.122 436.295 777.857 C 430.219 805.894 449.489 862.444 488.357 839.911 C 491.091 843.376 493.848 846.026 496.94 849.149 C 496.861 855.927 496.876 875.384 495.186 881.104 C 494.657 896.28 492.902 920.357 489.022 934.639 C 478.967 971.642 447.343 1012.43 419.555 1038.75 C 388.945 1067.74 350.705 1084.33 308.406 1081.95 C 292.615 1081.06 281.077 1079.2 265.527 1075.68 C 249.03 1073.83 203.358 1055.77 191.841 1044.02 C 203.906 1001.52 223.107 951.676 240.367 911.142 C 252.663 882.265 266.76 854.2 278.829 824.784 C 291.971 792.751 293.851 767.729 301.785 735.026 C 323.226 646.64 357.613 597.9 429.073 543.936 z" fill="rgb(241,100,126)" transform="translate(0,0)"></path>
<path d="M 265.527 1075.68 C 269.507 1074.37 287.242 1073.32 292.821 1072.63 C 318.171 1069.49 338.316 1063.25 361.343 1052.31 C 375.745 1045.63 389.352 1037.35 401.911 1027.64 C 428.089 1007.21 466.026 963.654 479.661 932.817 C 487.476 915.143 488.723 895.786 494.099 880.819 L 495.186 881.104 C 494.657 896.28 492.902 920.357 489.022 934.639 C 478.967 971.642 447.343 1012.43 419.555 1038.75 C 388.945 1067.74 350.705 1084.33 308.406 1081.95 C 292.615 1081.06 281.077 1079.2 265.527 1075.68 z" fill="rgb(255,255,255)" transform="translate(0,0)"></path>
<path d="M 256.551 1468.26 C 255.107 1444.3 249.663 1419.36 245.968 1395.57 C 233.861 1317.6 214.102 1240.31 203.341 1162.24 C 200.459 1141.34 199.949 1087.74 207.957 1069.68 L 209.911 1069.41 C 212.337 1072.08 221.903 1104.25 224.19 1110.68 C 232.884 1134.97 243.043 1158.72 254.611 1181.79 C 265.94 1204.52 282.805 1233.33 295.416 1255.8 C 316.112 1292.85 336.615 1330.02 356.924 1367.28 C 365.852 1383.79 384.054 1414.86 390.529 1431.11 C 393.858 1436.75 397.156 1442.41 400.422 1448.08 C 391.794 1477.79 383.266 1509.87 371.101 1538.22 C 364.176 1554.36 352.488 1574.24 343.768 1590.03 C 326.421 1621.72 308.65 1653.17 290.462 1684.38 L 251.645 1752.53 C 241.625 1770.31 228.813 1793.57 217.426 1810.54 C 207.506 1808.13 200.558 1805.92 190.955 1802.32 C 166.323 1798.02 113.64 1762.39 100.658 1740.74 C 127.313 1667.1 162.755 1587.68 218.404 1531.14 C 229.018 1520.35 242.468 1510.92 251.609 1498.81 L 252.466 1497.67 C 261.293 1501.91 303.053 1523.81 310.095 1521.06 C 311.765 1518.21 311.602 1518.37 311.778 1515.02 C 310.543 1513.03 308.71 1511.62 306.577 1510.68 C 285.944 1501.53 264.005 1493.86 245.765 1480.12 L 244.738 1479.34 C 270.338 1476.64 304.621 1468.42 326.91 1453.57 C 329.014 1452.16 328.561 1451.66 328.682 1449.52 C 326.401 1445.76 327.896 1447.12 324.212 1445.09 C 319.243 1445.76 299.427 1454.77 292.515 1457.03 C 280.66 1460.91 268.381 1464.46 256.551 1468.26 z" fill="rgb(136,17,55)" transform="translate(0,0)"></path>
<path d="M 390.529 1431.11 C 393.858 1436.75 397.156 1442.41 400.422 1448.08 C 391.794 1477.79 383.266 1509.87 371.101 1538.22 C 364.176 1554.36 352.488 1574.24 343.768 1590.03 C 326.421 1621.72 308.65 1653.17 290.462 1684.38 L 251.645 1752.53 C 241.625 1770.31 228.813 1793.57 217.426 1810.54 C 207.506 1808.13 200.558 1805.92 190.955 1802.32 C 208.807 1776.78 224.984 1748.91 241.198 1722.29 L 294.974 1635.3 L 331.967 1575.78 C 341.954 1559.82 351.631 1545.34 359.691 1528.21 C 375.209 1495.23 381.985 1466.02 390.529 1431.11 z" fill="rgb(255,255,255)" transform="translate(0,0)"></path>
<path d="M 859.345 582.881 C 861.133 583.178 861.711 583.665 863.421 584.469 L 863.834 586.068 C 856.928 596.193 825.117 608.935 812.548 611.545 C 810.998 612.696 810.553 618.112 813.029 618.891 C 831.091 624.571 854.877 610.187 870.614 606.482 L 872.152 607.617 C 869.283 623.82 837.764 622.926 832.277 631.797 C 832.548 635.16 831.795 633.903 833.982 635.975 C 841.347 636.473 851.172 632.95 858.163 630.62 C 857.282 631.762 856.391 632.898 855.49 634.025 C 835.986 658.396 799.194 667.095 769.706 670.37 L 757.273 664.026 C 755.029 670.059 753.45 677.137 751.713 683.38 C 730.32 760.295 708.083 839.52 661.814 905.755 C 657.37 912.116 643.356 930.994 636.282 931.479 C 614.153 932.997 580.685 909.374 564.752 897.902 C 548.73 884.969 506.764 849.587 495.843 829.951 C 495.012 828.456 498.635 822.49 499.965 820.735 C 519.912 794.413 543.972 781.165 575.664 775.467 C 590.148 794.343 605.529 814.533 614.797 836.551 C 616.935 841.629 618.144 847.375 621.401 851.774 C 624.803 852.088 623.328 852.53 625.99 850.463 C 627.742 845.057 625.612 837.895 624.484 832.048 C 652.557 766.761 702.77 712.156 736.062 649.821 C 739.276 645.363 745.256 642.456 748.355 637.995 C 754.32 629.413 755.04 618.64 759.851 609.469 C 762.854 603.745 766.502 601.947 771.829 598.811 C 773.698 599.235 779.843 600.617 781.417 600.324 C 802.57 596.387 840.997 591.044 859.345 582.881 z" fill="rgb(255,255,255)" transform="translate(0,0)"></path>
<path d="M 593.69 269.443 C 645.479 266.263 656.065 313.793 693.057 345.137 C 644.877 347.77 570.226 358.327 524.695 373.982 C 500.862 382.488 478.511 394.679 458.455 410.109 C 458.887 380.335 460.519 334.574 481.992 311.877 C 510.335 281.915 554.479 271.747 593.69 269.443 z" fill="rgb(241,100,126)" transform="translate(0,0)"></path>
<path d="M 531.171 884.666 C 555.535 904.964 566.442 914.598 594.52 930.308 C 595.993 937.429 599.253 946.627 601.429 953.739 C 616.421 1002.72 626.671 1057.5 594.878 1102.51 C 588.76 1109.85 586.133 1112.28 578.351 1117.19 C 543.307 1108.08 536.585 1063.14 529.639 1033.73 C 517.54 982.515 529.726 935.557 531.171 884.666 z" fill="rgb(255,255,255)" transform="translate(0,0)"></path>
<path d="M 680.106 377.545 L 681.514 378.379 C 685.911 394.912 682.552 415.739 678.889 432.111 C 684.278 444.407 691.47 450.899 693.918 464.52 C 687.576 465.376 678.348 465.561 674.905 471.813 C 672.701 475.814 676.108 482.07 677.139 486.637 C 673.223 495.252 655.586 483.165 653.24 494.026 C 656.976 498.578 662.323 496.415 664.285 501.721 C 661.343 506.307 646.824 531.627 643.845 533.842 C 632.711 542.121 608.4 515.758 597.551 521.285 C 595.614 524.845 596.649 524.261 597.764 529.728 C 593.474 538.114 581.654 555.788 575.842 563.241 C 573.048 563.808 572.095 562.629 568.85 561.154 C 565.316 560.241 560.714 559.873 557.014 559.449 L 556.981 470.215 C 584.545 498.811 593.537 459.854 575.993 457.933 C 573.975 460.338 574.172 464.37 573.765 468.019 L 572.026 468.499 C 560.389 465.255 563.295 449.313 566.617 440.709 C 609.312 440.649 638.8 414.739 660.349 379.369 L 680.106 377.545 z" fill="rgb(255,255,255)" transform="translate(0,0)"></path>
<path d="M 661.191 411.727 C 662.951 411.088 664.92 411.501 666.275 412.793 C 667.63 414.085 668.137 416.032 667.583 417.82 C 667.03 419.608 665.512 420.929 663.664 421.229 C 661.152 421.638 658.741 420.067 658.101 417.604 C 657.46 415.141 658.799 412.595 661.191 411.727 z" fill="rgb(78,10,14)" transform="translate(0,0)"></path>
<path d="M 549.88 713.357 C 552.731 712.86 553.187 712.968 556.121 713.114 C 561.685 717.464 579.117 753.573 584.978 763.74 C 550.812 765.033 521.123 781.373 498.187 806.422 C 490.668 814.634 485.33 825.464 477.446 834.149 C 462.243 844.207 447.658 810.441 446.86 799.231 C 442.441 737.199 505.247 720.676 549.88 713.357 z" fill="rgb(136,17,55)" transform="translate(0,0)"></path>
<path d="M 596.857 1851.47 C 610.539 1846.21 615.111 1843.3 627.362 1834.91 C 630.988 1851.44 634.058 1870.69 636.545 1887.5 C 623.929 1895.64 618.281 1898.01 604.12 1903.18 C 585.246 1913.15 529.343 1918.02 506.885 1919.31 C 499.985 1900.41 492.867 1881.58 485.534 1862.85 C 520.108 1867.79 563.347 1859.58 596.857 1851.47 z" fill="rgb(136,17,55)" transform="translate(0,0)"></path>
<path d="M 596.857 1851.47 C 610.539 1846.21 615.111 1843.3 627.362 1834.91 C 630.988 1851.44 634.058 1870.69 636.545 1887.5 C 623.929 1895.64 618.281 1898.01 604.12 1903.18 C 601.78 1890.67 598.135 1864.04 596.857 1851.47 z" fill="rgb(255,255,255)" transform="translate(0,0)"></path>
<path d="M 90.1812 1746.36 C 110.539 1769.11 130.249 1785.94 157.551 1800.44 C 166.006 1804.93 175.768 1807.86 184.142 1812.35 L 184.933 1812.78 C 193.178 1815.67 202.892 1818.64 210.833 1821.64 C 204.396 1834.88 195.57 1849.31 187.773 1861.9 C 177.046 1861.11 168.691 1860.47 158.001 1858.68 C 145.522 1859.11 124.749 1846.41 114.6 1839.78 C 97.4949 1828.61 82.1626 1813.55 70.2261 1796.99 C 76.6096 1780.01 83.2622 1763.13 90.1812 1746.36 z" fill="rgb(136,17,55)" transform="translate(0,0)"></path>
<path d="M 184.933 1812.78 C 193.178 1815.67 202.892 1818.64 210.833 1821.64 C 204.396 1834.88 195.57 1849.31 187.773 1861.9 C 177.046 1861.11 168.691 1860.47 158.001 1858.68 C 166.038 1843.17 176.834 1829.15 184.933 1812.78 z" fill="rgb(255,255,255)" transform="translate(0,0)"></path>
<path d="M 694.362 354.597 C 711.156 352.342 722.019 360.042 737.811 367.193 C 680.631 364.82 642.319 367.665 588.108 391.804 C 573.507 398.305 555.668 409.329 541.79 415.14 C 508.513 429.073 487.828 435.893 457.088 455.878 C 447.73 461.84 439.157 468.776 430.716 475.939 C 438.743 458.858 449.49 437.009 460.758 421.929 C 466.398 414.382 482.362 405.881 490.56 401.253 C 552.307 366.396 624.949 361.582 694.362 354.597 z" fill="rgb(241,100,126)" transform="translate(0,0)"></path>
<path d="M 688.64 652.874 C 700.228 657.728 709.666 656.487 721.355 654.463 C 714.056 668.388 703.58 682.121 694.558 695.076 C 684.648 709.464 674.855 723.933 665.18 738.481 L 657.463 748.811 C 655.424 733.337 650.841 726.431 642.021 714.189 C 657.065 695.946 674.134 672.069 688.64 652.874 z" fill="rgb(255,255,255)" transform="translate(0,0)"></path>
<path d="M 934.629 518.702 C 943.54 521.669 947.86 523.22 956.263 527.402 C 955.772 551.386 944.229 589.668 931.885 610.324 C 923.198 608.372 917.969 606.995 909.579 604.121 C 917.031 579.284 930.146 542.628 934.629 518.702 z" fill="rgb(255,255,255)" transform="translate(0,0)"></path>
<path d="M 936.08 537.295 C 937.737 537.623 940.488 538.428 940.354 540.429 C 939.649 550.92 932.831 572.711 927.256 581.088 C 925.547 580.794 924.119 580.496 922.43 580.131 C 920.178 574.569 932.919 544.127 936.08 537.295 z" fill="rgb(78,10,14)" transform="translate(0,0)"></path>
<path d="M 920.867 581.24 C 923.957 581.774 924.301 581.5 926.634 583.431 C 927.412 587.293 926.584 587.408 925.103 591.796 C 922.083 591.221 921.673 591.484 919.429 589.549 C 918.643 585.729 919.46 585.581 920.867 581.24 z" fill="rgb(98,10,16)" transform="translate(0,0)"></path>
<path d="M 702.447 573.032 C 713.181 572.219 722.959 579.308 732.963 582.951 C 738.209 584.862 755.225 587.662 756.531 592.881 C 752.816 596.716 739.066 599.644 733.383 602.973 C 728.376 605.905 724.791 608.434 720.04 611.82 C 713.959 617.021 708.288 623.704 702.901 629.712 C 676.683 616.348 673.869 586.741 702.447 573.032 z" fill="rgb(255,255,255)" transform="translate(0,0)"></path>
<path d="M 88.9518 1833.66 C 108.867 1848.67 120.833 1856.83 144.156 1866.11 C 144.147 1867.75 144.123 1869.39 144.084 1871.03 C 143.935 1881.86 142.788 1882.58 133.134 1887.28 C 126.557 1889.73 122.923 1890.53 116.052 1891.53 C 114.87 1890.96 113.705 1890.36 112.561 1889.72 C 97.4477 1881.21 84.1128 1863.52 79.3524 1847.02 C 82.3813 1842.28 85.5813 1838.14 88.9518 1833.66 z" fill="rgb(255,255,255)" transform="translate(0,0)"></path>
<path d="M 757.143 480.178 C 767.968 483.404 782.515 489.104 793.913 492.875 C 789.76 506.075 783.145 529.43 778.061 541.452 C 769.846 538.947 761.478 536.117 753.289 533.46 L 738.01 528.267 C 740.115 521.456 742.888 514.24 745.35 507.494 C 750.139 508.956 769.019 515.601 772.654 511.551 C 768.952 506.374 755.046 502.686 748.494 500.568 C 751.311 493.254 753.856 487.3 757.143 480.178 z" fill="rgb(255,255,255)" transform="translate(0,0)"></path>
<path d="M 493.119 546.779 C 502.54 548.766 520.234 556.918 530.115 560.405 C 542.627 564.821 554.042 568.208 566.786 571.983 C 555.481 588.968 548.964 598.387 556.582 618.996 C 560.059 628.4 563.586 638.36 567.067 647.793 C 568.483 651.626 569.803 656.051 571.078 659.979 C 547.769 616.82 528.544 581.874 493.119 546.779 z" fill="rgb(255,255,255)" transform="translate(0,0)"></path>
<path d="M 599.163 1916.14 L 600.472 1915.8 C 603.294 1916.76 614.447 1930.72 618.633 1935 C 602.037 1952.94 587.333 1947.25 566.73 1941.72 C 556.918 1939.13 550.663 1938.81 540.651 1937.94 C 540.205 1934.58 539.42 1930.96 538.761 1927.6 C 562.559 1926.1 576.584 1922.33 599.163 1916.14 z" fill="rgb(255,255,255)" transform="translate(0,0)"></path>
<path d="M 563.638 598.373 C 563.988 598.523 564.363 598.626 564.688 598.825 C 570.98 602.675 605.085 694.391 608.442 706.107 C 613.122 722.438 619.377 745.495 610.687 761.277 C 607.88 750.366 605.451 742.117 601.664 731.577 C 597.654 720.414 590.352 705.305 588.196 694.184 C 589.153 691.394 590.891 686.579 590.917 683.753 C 591.097 664.133 562.502 614.464 563.638 598.373 z" fill="rgb(255,255,255)" transform="translate(0,0)"></path>
<path d="M 637.357 728.739 C 640.24 731.958 644.519 740.585 645.727 744.646 C 647.749 751.347 647.858 758.48 646.044 765.241 C 643.819 773.368 624.225 805.625 618.632 816.153 C 615.842 813.187 610.78 804.835 608.373 801.067 C 617.013 775.408 628.412 754.458 637.357 728.739 z" fill="rgb(255,255,255)" transform="translate(0,0)"></path>
<path d="M 847.214 500.681 C 853.633 502.112 861.218 504.451 867.654 506.264 C 861.164 527.706 855.224 547.942 848.331 569.325 C 840.065 565.879 835.186 564.947 826.517 563.371 L 847.214 500.681 z" fill="rgb(255,255,255)" transform="translate(0,0)"></path>
<path d="M 880.767 505.373 C 883.825 506.304 896.833 509.829 895.973 513.366 C 893.469 523.67 880.964 571.052 875.781 577.1 C 870.074 574.844 864.167 573.333 858.255 571.658 C 865.58 549.466 873.489 527.604 880.767 505.373 z" fill="rgb(255,255,255)" transform="translate(0,0)"></path>
<path d="M 883.987 523.583 C 886.238 523.721 886.698 523.878 888.901 524.448 C 890.349 529.972 878.761 559.922 876.134 567.196 C 874.629 566.933 871.581 566.257 871.563 564.403 C 871.465 554.151 878.954 532.039 883.987 523.583 z" fill="rgb(78,10,14)" transform="translate(0,0)"></path>
<path d="M 696.609 555.908 L 699.994 556.098 C 705.386 564.574 690.74 565.904 686.392 569.524 C 673.411 580.331 668.245 595.056 673.015 611.415 C 675.962 621.884 683.056 630.695 692.654 635.809 C 716.73 648.491 725.566 627.595 739.619 623.204 L 740.755 623.944 L 740.312 626.614 C 736.177 633.071 730.742 637.851 723.857 641.287 C 714.358 646.042 703.303 646.604 693.372 642.836 C 682.461 638.906 673.594 630.744 668.775 620.195 C 663.64 608.641 663.409 595.498 668.135 583.77 C 673.596 570.129 683.562 561.708 696.609 555.908 z" fill="rgb(255,255,255)" transform="translate(0,0)"></path>
<path d="M 808.635 456.906 C 815.725 459.232 821.85 461.262 828.542 464.711 C 831.595 466.285 840.329 471.559 842.929 471.09 L 845.821 465.68 C 844.342 462.659 836.137 459.501 832.458 457.703 C 843.026 458.672 854.942 462.121 864.604 466.573 C 866.766 469.45 866.12 467.736 865.49 472.263 L 862.257 483.337 C 854.929 481.677 842.775 476.096 837.063 476.04 C 835.488 478.773 836.778 480.265 837.784 484.477 C 835.024 484.017 829.998 479.611 826.87 477.917 C 819.451 473.899 808.033 475.219 804.745 466.506 C 804.562 462.407 806.331 460.623 808.635 456.906 z" fill="rgb(255,255,255)" transform="translate(0,0)"></path>
<path d="M 855.499 465.22 C 858.142 465.69 857.324 465.39 859.563 466.601 L 858.724 469.434 L 860.059 470.662 L 861.961 469.367 L 862.896 470.013 C 862.974 472.43 863.088 471.577 862.295 473.826 L 860.345 474.395 C 855.261 471.794 855.773 470.041 855.499 465.22 z" fill="rgb(98,10,16)" transform="translate(0,0)"></path>
<path d="M 487.601 968.724 C 489.669 970.799 489.876 1006.47 490.081 1012.38 C 479.87 1014.87 475.257 1015.3 464.83 1014.59 L 461.545 1011.92 C 461.436 1011.21 461.328 1010.5 461.219 1009.79 C 469.208 996.498 480.146 982.234 487.601 968.724 z" fill="rgb(255,255,255)" transform="translate(0,0)"></path>
<path d="M 797.955 405.641 C 814.407 410.144 821.861 416.291 835.681 420.778 C 833.541 425.875 830.529 431.865 828.122 436.926 L 820.026 433.957 L 802.343 427.646 C 805.635 422.875 808.938 419.936 807.196 413.946 C 804.524 411.515 806.054 412.172 802.443 411.914 C 798.306 414.367 798.717 416.254 795.962 421.349 C 793.451 416.348 796.158 410.56 797.955 405.641 z" fill="rgb(255,255,255)" transform="translate(0,0)"></path>
<path d="M 461.333 536.797 C 466.051 538.226 488.894 558.302 492.024 562.871 C 486.463 566.651 485.929 567.775 482.024 573.013 C 481.697 572.78 472.931 564.05 471.683 562.888 C 464.582 556.272 457.737 550.863 450.155 544.856 L 461.333 536.797 z" fill="rgb(255,255,255)" transform="translate(0,0)"></path>
<path d="M 617.856 1082.91 C 624.228 1083.61 629.962 1083.88 636.354 1084.17 C 631.373 1096.91 626.162 1104.87 614.625 1112.42 C 609.028 1115 604.033 1115.92 598.06 1117.36 C 608.103 1104.17 611.666 1098.21 617.856 1082.91 z" fill="rgb(255,255,255)" transform="translate(0,0)"></path>
<path d="M 529.993 609.05 C 533.34 612.264 542.707 630.9 545.412 636.144 C 541.595 638.935 537.789 641.993 534.049 644.909 C 528.204 636.175 522.243 627.52 516.168 618.945 C 521.727 613.966 523.575 612.823 529.993 609.05 z" fill="rgb(255,255,255)" transform="translate(0,0)"></path>
<path d="M 489.29 1023.59 L 490.359 1024.02 C 491.751 1027.59 491.999 1032.78 492.41 1036.72 C 481.681 1038.93 472.741 1039.81 461.902 1040.96 C 459.027 1035.48 458.494 1031.14 457.607 1025.21 C 469.482 1025.05 477.415 1024.72 489.29 1023.59 z" fill="rgb(136,17,55)" transform="translate(0,0)"></path>
<path d="M 500.059 575.521 C 507.034 576.882 516.702 590.965 521.512 597.131 C 518.259 599.701 514.899 602.642 511.706 605.328 L 509.544 606.544 C 506.511 604.942 494.175 588.065 491.395 584.429 C 494.298 580.84 496.734 578.662 500.059 575.521 z" fill="rgb(255,255,255)" transform="translate(0,0)"></path>
<path d="M 628.119 1014.45 C 632.789 1014.1 638.12 1014.1 642.855 1013.98 C 644.361 1022.39 644.897 1030.95 644.454 1039.49 C 639.211 1038.95 632.501 1038.74 627.127 1038.42 C 627.026 1033.14 625.798 1017.73 628.119 1014.45 z" fill="rgb(255,255,255)" transform="translate(0,0)"></path>
<path d="M 633.19 979.437 C 637.659 979.352 636.01 978.561 638.807 980.725 C 641.566 986.751 641.882 994.842 642.702 1001.67 L 633.041 1002.74 C 631.38 1002.96 627.477 1003.93 626.607 1002.87 C 622.63 998.048 622.069 987.048 620.695 980.656 L 633.19 979.437 z" fill="rgb(255,255,255)" transform="translate(0,0)"></path>
<path d="M 625.698 1049.44 L 643.316 1050.45 C 642.953 1058.97 641.886 1065.12 639.917 1073.33 L 622.136 1072.35 C 623.248 1064.71 624.436 1057.07 625.698 1049.44 z" fill="rgb(255,255,255)" transform="translate(0,0)"></path>
<path d="M 620.434 947.319 L 632.368 946.803 C 633.927 953.113 636.281 959.625 635.512 965.801 C 633.269 968.296 634.69 967.273 630.239 967.758 L 617.967 969.108 C 616.008 962.497 612.443 955.69 613.134 949.552 C 615.616 946.961 615.707 947.804 620.434 947.319 z" fill="rgb(255,255,255)" transform="translate(0,0)"></path>
<path d="M 508.777 862.629 C 513.138 866.063 515.822 868.781 519.698 872.654 C 519.4 878.263 520.441 895.103 518.373 898.332 L 505.935 900.462 C 506.072 887.676 507.293 875.302 508.777 862.629 z" fill="rgb(255,255,255)" transform="translate(0,0)"></path>
<path d="M 512.675 944.047 L 514.854 944.342 C 516.103 948.639 514.326 965.953 513.953 971.215 C 510.391 972.055 506.747 973.489 503.278 974.743 L 502.03 975.35 L 500.97 974.144 C 500.077 965.351 501.132 955.798 502.368 947.069 L 512.675 944.047 z" fill="rgb(255,255,255)" transform="translate(0,0)"></path>
<path d="M 551.038 647.924 C 555.064 651.176 560.784 665.116 562.89 670.12 L 552.794 677.307 L 551.657 676.974 C 547.438 670.27 543.584 662.135 539.98 654.987 C 543.097 652.646 547.635 650.026 551.038 647.924 z" fill="rgb(255,255,255)" transform="translate(0,0)"></path>
<path d="M 514.967 1017.16 L 515.598 1017.63 C 517.495 1021.99 518.777 1036.81 519.428 1042.32 L 507.357 1046.7 C 504.803 1043.42 503.253 1026.78 502.594 1021.57 C 506.732 1020.13 510.856 1018.66 514.967 1017.16 z" fill="rgb(255,255,255)" transform="translate(0,0)"></path>
<path d="M 513.061 909.166 C 515.394 908.963 515.342 908.873 517.581 909.452 C 519.827 915.347 517.766 924.929 516.549 930.96 C 513.973 933.632 512.513 933.231 508.237 934.382 C 506.583 934.955 506.151 934.768 504.315 934.832 C 501.312 930.539 503.519 917.756 505.818 912.934 C 507.312 909.8 510.056 909.936 513.061 909.166 z" fill="rgb(255,255,255)" transform="translate(0,0)"></path>
<path d="M 521.328 1053.22 C 523.938 1054.82 527.295 1071.7 528.323 1075.97 L 516.188 1078.09 C 513.095 1075.12 510.113 1061.72 508.75 1056.7 L 521.328 1053.22 z" fill="rgb(255,255,255)" transform="translate(0,0)"></path>
<path d="M 599.684 617.928 C 603.85 622.132 607.582 634.624 609.5 640.343 C 606.504 642.871 602.753 645.311 599.493 647.562 C 596.113 643.327 591.9 628.766 590.079 622.92 L 599.684 617.928 z" fill="rgb(255,255,255)" transform="translate(0,0)"></path>
<path d="M 510.565 984.11 C 512.735 984.216 511.712 983.889 513.484 985.642 C 514.49 992.162 516.246 999.15 513.55 1005.62 C 512.366 1008.46 508.836 1008.93 505.671 1010.04 L 502.682 1009.98 C 498.622 1004.85 500.167 993.336 502.252 987.459 C 505.504 984.389 505.42 985.248 510.565 984.11 z" fill="rgb(255,255,255)" transform="translate(0,0)"></path>
<path d="M 612.653 652.926 C 616.495 657.299 621.581 680.785 619.849 687 C 617.895 688.58 617.868 688.346 615.298 688.518 C 611.771 678.584 607.277 667.911 603.352 658.048 L 612.653 652.926 z" fill="rgb(255,255,255)" transform="translate(0,0)"></path>
<path d="M 577.24 580.58 C 584.645 589.307 589.24 595.609 595.053 605.402 L 588.648 611.804 L 586.728 612.517 C 585.502 611.538 574.87 591.455 572.698 588.087 L 577.24 580.58 z" fill="rgb(255,255,255)" transform="translate(0,0)"></path>
<path d="M 528.879 1085 L 530.394 1085.15 C 532.682 1086.68 538.178 1099.18 541.658 1103.48 C 539.15 1105.07 535.421 1105.09 532.213 1105.48 L 530.578 1105.9 C 525.356 1103.68 521.553 1094.68 521.666 1088.98 C 524.084 1085.91 524.465 1086.59 528.879 1085 z" fill="rgb(255,255,255)" transform="translate(0,0)"></path>
<path d="M 566.055 683.882 L 568.048 684.506 C 571.13 689.566 573.13 695.218 575.353 700.742 L 566.707 707.71 C 563.345 702.485 559.432 694.415 556.465 688.703 L 566.055 683.882 z" fill="rgb(255,255,255)" transform="translate(0,0)"></path>
<path d="M 581.088 713.022 C 583.828 715.919 589.714 730.834 589.29 735.409 C 589.041 738.099 587.673 739.356 585.882 741.141 C 581.73 732.666 576.586 727.889 575.211 719.109 C 576.671 715.018 576.665 716.077 581.088 713.022 z" fill="rgb(255,255,255)" transform="translate(0,0)"></path>
<path d="M 459.144 511.63 L 461.968 511.797 C 464.365 513.475 482.312 535.939 482.875 537.763 L 481.052 537.249 C 473.241 529.797 463.428 523.333 454.543 517.068 C 454.636 515.051 457.143 513.526 459.144 511.63 z" fill="rgb(255,255,255)" transform="translate(0,0)"></path>
<path d="M 731.889 565.798 C 737.749 566.189 752.214 569.139 756.05 573.577 L 755.552 576.793 C 749 577.464 737.839 574.029 732.622 569.817 C 731.423 568.849 731.901 567.421 731.889 565.798 z" fill="rgb(255,255,255)" transform="translate(0,0)"></path>
<path d="M 807.366 547.401 L 809.169 548.93 C 809.76 554.879 803.131 577.195 799.786 582.655 L 797.933 581.505 C 796.998 575.213 804.663 553.818 807.366 547.401 z" fill="rgb(255,255,255)" transform="translate(0,0)"></path>
<path d="M 765.755 439.218 C 769.542 441.153 768.414 439.784 770.238 442.77 C 769.513 448.894 766.188 454.951 763.84 460.805 C 762.67 461.976 763.428 461.559 761.4 461.694 C 759.816 457.724 764.38 444.083 765.755 439.218 z" fill="rgb(255,255,255)" transform="translate(0,0)"></path>
<path d="M 966.279 547.595 C 969.188 553.845 960.24 581.096 956.661 587.333 C 955.15 582.873 964.334 553.604 966.279 547.595 z" fill="rgb(255,255,255)" transform="translate(0,0)"></path>
<path d="M 592.013 748.209 C 596.503 750.306 599.986 763.238 598.23 767.37 C 593.369 761.709 588.068 755.356 592.013 748.209 z" fill="rgb(255,255,255)" transform="translate(0,0)"></path>
<path d="M 620.246 694.821 C 624.37 699.032 624.815 725.372 624.81 731.846 C 624.258 722.97 617.81 700.127 620.246 694.821 z" fill="rgb(255,255,255)" transform="translate(0,0)"></path>
<path d="M 818.157 489.642 C 822.674 491.88 828.117 496.57 830.142 501.27 L 827.671 501.504 C 822.539 499.303 820.682 494.482 818.157 489.642 z" fill="rgb(255,255,255)" transform="translate(0,0)"></path>
<path d="M 797.002 440.467 C 803.151 439.553 815.825 440.25 820.138 444.943 C 819.128 445.284 798.896 441.163 797.002 440.467 z" fill="rgb(148,108,111)" transform="translate(0,0)"></path>
<path d="M 865.884 597.012 L 866.332 597.447 L 866.338 598.75 C 861.957 602.03 856.49 604.11 851.43 606.367 L 850.937 605.89 L 851.118 604.674 L 865.884 597.012 z" fill="rgb(148,108,111)" transform="translate(0,0)"></path>
<path d="M 1851.61 1123.83 C 1853.25 1134.43 1831.4 1212.49 1821.44 1218.67 C 1718.85 1282.3 1583.06 1326.65 1473.51 1372.07 C 1249.15 1465.1 1072.09 1618.71 954.702 1831.29 C 927.342 1880.83 904.789 1929.59 881.223 1981.09 C 835.517 1988.39 789.873 1996.07 744.295 2004.13 C 744.014 1999.29 757.734 1964.07 760.049 1957.15 C 785.026 1882.56 817.059 1811.49 855.446 1742.92 C 958.844 1558.2 1129.3 1420.78 1322.28 1338.03 C 1398.32 1305.25 1477.05 1278.2 1555.74 1251.82 C 1626.4 1228.12 1702.98 1204.58 1770.44 1172.92 C 1794.69 1161.55 1829.53 1139.4 1851.61 1123.83 z" fill="rgb(251,177,109)" transform="translate(0,0)"></path>
<path d="M 1596.73 22.3761 L 1598.57 22.2285 C 1598.54 24.0865 1565.93 55.5609 1561.3 60.6287 C 1508.43 118.457 1472.42 199.818 1476.25 279.263 C 1477.8 311.451 1486.38 345.447 1502.59 373.456 C 1546.88 449.997 1647.26 497.047 1720.83 541.1 C 1774.45 573.205 1829.01 609.195 1875.36 651.319 C 1944.38 714.05 1982.68 795.802 1987.01 888.776 C 1990.73 967.035 1971.26 1044.65 1931.03 1111.88 C 1920.65 1129.18 1913.23 1141.14 1899.55 1156.17 C 1907.87 1134.56 1911.51 1119.96 1915.99 1097.78 C 1923.98 1053.21 1926.33 999.451 1919.52 954.449 C 1911.58 901.926 1892.65 860.596 1863.37 816.899 C 1788.16 704.631 1658.62 636.945 1544.52 570.725 C 1503.23 546.759 1459.08 522.379 1420.84 494.184 C 1382.6 465.99 1341.73 428.205 1335.7 378.559 C 1328.08 299.346 1363.29 227.041 1409.22 163.28 C 1437.99 123.336 1495.68 64.6824 1536.13 33.393 C 1540.62 29.9144 1586.78 23.8469 1596.73 22.3761 z" fill="rgb(251,177,109)" transform="translate(0,0)"></path>
<path d="M 1497.64 38.4113 L 1499.56 38.1559 C 1499.36 39.3863 1459.88 75.46 1455.64 79.5968 C 1438.51 96.175 1422.41 113.786 1407.43 132.332 C 1357.69 193.434 1305.46 292.471 1314.11 373.11 C 1316.87 399.915 1326.68 425.511 1342.54 447.292 C 1380.81 500.123 1457.42 543.763 1512.94 575.974 L 1616.68 636.103 C 1661.55 662.546 1703.09 691.418 1744.62 722.723 C 1829.03 786.359 1893.37 869.526 1904.62 978.134 C 1900.46 969.44 1894.36 952.134 1890.34 942.38 C 1880.32 918.027 1871.04 901.336 1856.94 879.404 C 1825.91 835.651 1789.07 795.447 1745.02 764.513 C 1643.06 692.899 1528.49 643.091 1413.71 596.07 C 1391.97 587.092 1370.34 577.878 1348.81 568.43 C 1325.84 558.541 1304.16 548.884 1282.26 537.616 C 1036.57 411.234 1229.19 178.308 1371.11 65.9698 C 1377.88 60.6091 1483.07 40.4445 1497.64 38.4113 z" fill="rgb(251,177,109)" transform="translate(0,0)"></path>
<path d="M 1808.97 1251.16 L 1809.32 1252.19 C 1727.83 1346.01 1543.52 1425.96 1433.87 1492.02 C 1313.42 1564.17 1202.55 1651.22 1103.89 1751.12 C 1064.07 1792.08 1026.18 1834.86 990.322 1879.33 C 972.944 1901.23 955.896 1923.4 939.187 1945.81 C 931.954 1955.57 924.819 1966.4 917.189 1975.85 C 915.684 1977.72 913.523 1978.17 911.275 1978.69 L 909.405 1976.37 C 909.19 1968.92 923.956 1938.24 927.902 1929.49 C 955.217 1868.59 987.904 1810.24 1025.57 1755.14 C 1146.88 1577.46 1305.81 1459.82 1504.32 1380.35 C 1563.75 1356.55 1624.98 1334.55 1683.8 1310.16 C 1726.4 1292.42 1768.17 1272.73 1808.97 1251.16 z" fill="rgb(241,100,126)" transform="translate(0,0)"></path>
<path d="M 1331.99 73.2307 L 1332.1 73.3052 C 1332.11 73.6753 1332.12 74.0454 1332.14 74.4155 C 1318.28 85.1127 1301.9 100.318 1289.59 111.932 C 1228.67 169.402 1175.41 237.534 1152.06 319.11 C 1131.78 389.955 1144.31 453.032 1198.72 504.204 C 1254.37 556.534 1331.52 584.371 1401.16 613.187 C 1483.14 647.107 1563.7 680.918 1640.91 725.004 C 1656.22 733.743 1670.76 743.087 1685.74 752.286 C 1720.6 773.689 1757.37 797.599 1787.24 825.809 C 1816.32 853.69 1841.06 885.76 1860.64 920.958 C 1899.6 990.56 1912.84 1060.86 1890.77 1139.02 C 1881.03 1174.63 1863.22 1207.51 1838.72 1235.13 C 1835.97 1238.19 1829.34 1245.77 1826.33 1247.47 L 1827.91 1243.69 C 1830.59 1238.77 1833.16 1233.8 1835.62 1228.77 C 1843.92 1211.49 1849.88 1192.53 1855.24 1174.21 C 1876.01 1103.24 1873.8 1038.51 1848.79 968.497 C 1822.74 895.568 1774.66 830.269 1710.99 785.633 C 1680.3 764.125 1641.31 744.907 1607.69 728.914 C 1558.81 705.886 1508.77 685.406 1457.77 667.555 C 1386.81 642.939 1319.62 622.315 1251.61 590.317 C 1115.86 526.456 1060.02 417.718 1131.57 277.502 C 1172.92 196.478 1234.51 142.148 1303.61 84.2764 C 1307.81 80.7636 1326.05 75.2255 1331.99 73.2307 z" fill="rgb(241,100,126)" transform="translate(0,0)"></path>
<path d="M 1656.51 15.4335 L 1658.15 15.4017 C 1657.7 16.9738 1642.62 29.295 1639.54 32.0913 C 1630.62 40.1699 1622.23 48.8101 1614.42 57.9591 C 1585.89 91.7738 1564.3 130.881 1550.89 173.045 C 1530.05 239.021 1536.82 311.259 1584.84 363.507 C 1617.85 400.231 1663.8 424.81 1705.75 449.078 C 1841.33 527.512 1998.06 616.739 2018.43 789.038 C 2024.62 841.358 2021.75 882.918 2005.22 933.745 C 2005.82 926.29 2005.79 918.735 2005.87 911.25 C 2006.05 846.168 1994.09 776.664 1959.66 720.232 C 1895.9 617.288 1781.19 553.359 1679.45 493.573 C 1579.16 434.64 1486.69 382.961 1498.29 248.904 C 1504.26 187.087 1528.9 128.552 1568.95 81.0853 C 1588.54 57.8512 1611.95 37.0272 1635.21 17.5666 C 1642.47 17.1302 1649.28 16.2927 1656.51 15.4335 z" fill="rgb(241,100,126)" transform="translate(0,0)"></path>
<path d="M 724.912 1964.88 C 730.519 1949.88 734.415 1928.59 738.892 1912.64 C 748.997 1876.53 760.798 1840.92 774.254 1805.93 C 859.536 1589.94 1013.72 1419.54 1224.07 1319.34 C 1373.86 1247.99 1532.75 1208.92 1690.56 1160.46 C 1736.09 1146.49 1780.82 1129.72 1822.06 1105.91 C 1836.14 1097.78 1848.59 1088.14 1862.16 1079.52 C 1854.05 1089.65 1845.44 1100.98 1835.34 1109.19 C 1776.45 1157 1697.64 1181.27 1627.34 1206.26 C 1552.85 1232.74 1478.47 1254.72 1404.7 1282.88 C 1186.82 1363.57 996.978 1485.52 867.773 1682.92 C 822.434 1752.19 786.403 1827.48 757.245 1904.93 C 751.412 1920.42 746.34 1934.68 741.476 1950.65 C 740.075 1955.25 735.58 1969.53 733.712 1973.44 C 730.706 1970.13 728.092 1968.78 724.912 1964.88 z" fill="rgb(241,100,126)" transform="translate(0,0)"></path>
<path d="M 1314.21 896.871 C 1359.74 896.236 1419.73 890.409 1414.5 961.651 C 1413.58 974.182 1406.21 984.93 1397.78 993.959 C 1375.89 1012.66 1342.62 1010.22 1314.76 1009.53 L 1314.21 896.871 z" fill="rgb(78,10,14)" transform="translate(0,0)"></path>
<path d="M 1346.43 910.477 C 1352.8 910.299 1359.51 909.884 1365.8 911.238 C 1390.17 916.486 1404.56 939.799 1398.29 963.948 C 1394.92 976.915 1387.9 983.511 1377.04 990.233 C 1360.49 997.249 1348.1 996.045 1330.34 995.995 C 1329.76 968.04 1330.05 938.898 1329.93 910.844 L 1346.43 910.477 z" fill="rgb(255,255,255)" transform="translate(0,0)"></path>
<path d="M 1110.96 895.088 L 1200.9 895.076 L 1200.93 919.576 C 1181.46 919.782 1161.99 919.882 1142.52 919.878 C 1142.23 926.501 1142.25 933.628 1142.15 940.299 L 1193.05 940.248 C 1193.05 949.152 1192.93 955.099 1192.03 963.91 L 1141.92 964.203 L 1141.87 985.977 L 1203.06 986.158 L 1203.01 1011.3 L 1110.52 1011.7 C 1110.85 974.106 1109.4 932.183 1110.96 895.088 z" fill="rgb(78,10,14)" transform="translate(0,0)"></path>
<path d="M 893.865 895.184 L 921.211 895.132 C 936.585 930.083 953.612 972.949 969.721 1006.49 L 970.527 1009.39 C 966.383 1012.92 943.957 1012.83 939.204 1010.44 L 937.569 1007.74 C 935.464 1000.97 932.153 994.139 929.208 987.643 C 913.699 987.663 898.193 988.044 882.702 988.783 C 880.67 993.957 878.759 998.882 876.427 1003.94 C 875.763 1006.8 875.756 1008.04 873.731 1010.16 C 866.087 1013.62 852.115 1012.1 843.673 1011.44 L 842.909 1010 L 844.385 1005.7 L 876.641 934.041 C 881.432 923.275 888.663 905.035 893.865 895.184 z" fill="rgb(78,10,14)" transform="translate(0,0)"></path>
<path d="M 844.385 1005.7 C 846.605 1007.2 845.833 1007.52 848.623 1006.99 C 858.204 1005.17 868.719 1013.36 875.297 1003.68 L 876.427 1003.94 C 875.763 1006.8 875.756 1008.04 873.731 1010.16 C 866.087 1013.62 852.115 1012.1 843.673 1011.44 L 842.909 1010 L 844.385 1005.7 z" fill="rgb(98,10,16)" transform="translate(0,0)"></path>
<path d="M 969.721 1006.49 L 970.527 1009.39 C 966.383 1012.92 943.957 1012.83 939.204 1010.44 L 937.569 1007.74 C 946.112 1007.96 962.234 1008.8 969.721 1006.49 z" fill="rgb(98,10,16)" transform="translate(0,0)"></path>
<path d="M 907.633 927.841 C 909.532 929.858 919.452 961.131 921.121 966.118 L 908.492 966.318 L 891.909 966.31 C 896.436 953.207 901.686 940.364 907.633 927.841 z" fill="rgb(255,255,255)" transform="translate(0,0)"></path>
<path d="M 1034.4 893.365 C 1045.55 892.122 1080.3 898.511 1083.34 910.256 C 1081.45 914.572 1071.54 926.386 1068.08 930.917 C 1059.06 923.174 1043.5 916.457 1032.03 920.191 C 987.211 934.781 1001.37 1000.15 1056.05 983.282 C 1055.95 971.576 1055.91 959.87 1055.94 948.164 L 1082.25 948.018 L 1084.28 948.356 C 1086.54 951.422 1085.74 988.815 1085.83 995.772 C 1051.57 1025.89 979.739 1013.99 974.122 963.136 C 969.604 922.231 995.665 897.611 1034.4 893.365 z" fill="rgb(78,10,14)" transform="translate(0,0)"></path>
<path d="M 793.112 893.405 C 809.489 893.442 820.988 897.194 835.597 903.906 C 830.461 912.175 827.771 917.865 824.025 926.789 C 812.669 921.902 780.837 909.788 776.51 929.393 C 781.581 943.695 839.765 939.833 838.464 973.376 C 837.173 1006.65 813.953 1012.3 786.02 1012.78 C 769.076 1011.03 758.109 1008.01 743.966 998.698 C 747.049 991.597 751.491 983.45 755.076 976.462 C 765.296 982.578 807.089 999.736 807.768 977.731 C 802.525 966.767 772.996 965.374 760.57 955.796 C 737.298 937.858 745.658 908.025 770.752 897.747 C 778.377 894.624 785.189 894.049 793.112 893.405 z" fill="rgb(78,10,14)" transform="translate(0,0)"></path>
<path d="M 1573.76 897.003 L 1590.97 897.134 C 1596.51 914.856 1607.01 936.571 1614.35 953.969 C 1622.17 972.505 1629.86 991.439 1638.06 1009.74 C 1632.79 1009.99 1626.9 1009.89 1621.57 1009.93 C 1617.12 1000.45 1613.69 990.722 1610.06 980.912 L 1589.32 981.138 L 1553.83 981.28 C 1549.76 990.231 1545.89 1000.4 1542.18 1009.59 C 1536.82 1009.87 1531.27 1009.64 1525.89 1009.53 C 1528.91 1000.46 1536.78 983.871 1540.88 974.655 C 1552.35 948.874 1564.15 923.615 1573.76 897.003 z" fill="rgb(98,10,16)" transform="translate(0,0)"></path>
<path d="M 1581.05 913.705 C 1585.8 921.206 1600.01 957.878 1604.08 967.932 L 1582.21 968.118 L 1559.16 968.622 C 1566.81 950.296 1574.57 932.494 1581.05 913.705 z" fill="rgb(255,255,255)" transform="translate(0,0)"></path>
<path d="M 1437.11 896.182 L 1514.94 895.994 L 1514.97 909.503 C 1494.81 910.035 1473.26 909.784 1452.98 909.873 L 1453.05 946.2 L 1508.95 946.23 L 1508.66 960.1 L 1454.99 959.818 L 1454.04 960.541 C 1452.85 964.257 1453.48 989.522 1453.53 995.167 L 1516.94 995.042 L 1516.97 1009.17 C 1492.63 1010.34 1461.82 1009.81 1437.2 1009.67 L 1437.11 896.182 z" fill="rgb(78,10,14)" transform="translate(0,0)"></path>
<path d="M 1683.31 895.274 C 1697.91 894.487 1710.9 898.15 1723.86 904.567 C 1721.89 910.738 1721.19 912.684 1718.26 918.528 C 1706.88 912.798 1665.52 899.4 1664.19 925.48 C 1663.23 944.276 1709.05 946.246 1720.86 960.863 C 1733.8 976.884 1726.82 998.381 1707.58 1006.35 C 1698.74 1009.95 1687.91 1009.42 1678.75 1009.04 C 1664.36 1006.52 1657.54 1003.56 1645.09 995.778 C 1646.61 991.608 1648.29 985.832 1649.68 981.505 C 1665.16 989.039 1689.39 1004.53 1707.41 989.935 C 1709.43 988.296 1712.65 981.662 1711.84 979.295 C 1704.47 957.745 1671.75 960.115 1653.53 944.966 L 1652.52 944.107 C 1641.79 915.813 1654.89 899.827 1683.31 895.274 z" fill="rgb(98,10,16)" transform="translate(0,0)"></path>
<path d="M 1268.22 896.055 L 1283.89 896.093 L 1284.03 1009.02 L 1268.6 1009.01 C 1268.92 971.732 1268.2 933.503 1268.22 896.055 z" fill="rgb(98,10,16)" transform="translate(0,0)"></path>
<metadata><recraft-signature>{"signed_by": "recraft", "signature_b64": "R7nJ8w9/C1GYSSSvn6RjZdQb/xJS2jZEkoWoVu9CVFGDf9lRGKb2bAV9Jpjrs/bUUjmNuulPPt24vB4K5z99BQ==", "signing_algo": "Ed25519", "generation_timestamp": 1779033451, "identifier": "40023c6e-f888-43f5-bc8c-dc13b698acf9"}</recraft-signature></metadata></svg>