<svg xmlns="http://www.w3.org/2000/svg" height="1024" preserveAspectRatio="none" style="display: block;" version="1.1" viewBox="0 0 2048 2048" width="1024">
<path d="M 0 0 L 2048 0 L 2048 2048 L 0 2048 L 0 0 z" fill="rgb(37,48,64)" transform="translate(0,0)"></path>
<path d="M 560.85 625.717 C 544.621 617.202 528.041 609.753 512.103 601.004 C 463.824 574.503 419.889 542.273 382.339 501.854 C 374.918 493.865 362.181 483.149 358.503 472.966 C 357.906 471.311 357.843 469.374 358.163 467.63 C 362.196 467.405 363.14 467.508 366.174 470.845 C 403.978 512.415 444.788 544.007 491.817 574.609 C 501.618 581.109 511.668 587.226 521.943 592.946 C 535.646 600.509 556.703 609.208 568.829 618.734 C 573.502 622.406 572.031 647.07 572.465 654.424 C 593.384 664.302 601.289 674.837 606.969 696.811 C 626.606 698.852 648.898 711.088 664.44 722.777 C 689.1 741.323 705.708 766.684 712.769 796.686 C 727.279 802.18 747.738 813.435 740.009 832.02 C 734.444 845.403 719.483 847.094 707.385 849.076 C 707.544 882.61 707.42 916.144 707.01 949.675 C 721.816 951.872 773.167 959.415 783 970.225 C 787.505 975.177 785.372 1032.57 785.393 1043.49 C 797.493 1054.33 791.602 1055.95 790.011 1069.57 C 786.063 1103.38 755.96 1108.78 731.321 1125.11 C 738.794 1161.89 742.723 1205.16 748.149 1242.95 C 761.486 1331.94 773.749 1421.08 784.934 1510.36 L 820.14 1768.13 C 825.648 1807.89 833.617 1854 837.569 1893.59 C 911.203 1898.64 981.937 1903.12 1055.61 1896.82 C 1185.87 1885.67 1305.18 1846.42 1421.63 1788.61 C 1430.93 1463.91 1352.41 1157.99 1123.29 917.667 C 1013.52 802.539 887.472 724.834 741.502 663.155 C 703.438 647.071 659.898 635.594 623.346 619.266 C 655.009 626.24 688.949 631.329 721.027 636.431 C 961.082 674.607 1197.34 759.599 1389.56 911.367 C 1577.39 1055.94 1737.97 1293.22 1710.98 1539.77 C 1706.78 1554.18 1689.5 1572.72 1680.72 1584.1 C 1507.95 1808.03 1223.93 1921.85 944.59 1912.87 C 710.695 1905.35 443.195 1818.15 228.459 1954.05 C 222.751 1957.66 209.53 1968.61 203.667 1968.47 C 200.047 1966.1 201.518 1967.61 199.38 1963.52 C 199.477 1957.43 202.216 1955.57 206.975 1952.02 C 230.258 1934.66 255.285 1919.99 281.931 1908.41 C 290.349 1904.76 298.632 1901.83 306.952 1897.89 C 310.529 1884.49 311.791 1871.55 313.44 1857.85 C 318.287 1817.62 322.275 1777.21 327.38 1737.01 L 379.749 1334.47 L 399.432 1189.9 C 401.533 1175.39 405.337 1141.11 408.683 1128.26 C 389.533 1116.69 366.88 1107.49 350.288 1096.83 C 348.564 1081.62 347.279 1069.54 349.248 1054.23 C 353.668 1049.76 354.785 1048.84 360.068 1045.45 C 359.038 1029.99 357.458 984.415 359.029 970.051 C 378.433 960.405 405.116 959.736 426.096 954.516 C 431.968 953.055 430.468 948.941 430.32 943.449 L 429.802 857.066 C 419.609 853.109 398.798 843.123 394.026 832.764 C 384.606 812.315 411.162 800.787 425.213 793.728 C 440.485 736.517 476.928 711.645 531.857 695.867 C 529.156 674.234 545.032 663.855 560.974 654.003 L 560.85 625.717 z" fill="rgb(102,225,197)" transform="translate(0,0)"></path>
<path d="M 443.526 830.131 C 505.066 808.386 639.408 801.696 696.586 832.866 C 694.471 841.861 695.324 862.815 695.284 872.641 C 695.183 897.746 695.962 923.217 695.787 948.339 C 607.088 938.337 531.032 939.923 442.841 951.554 L 442.65 883.901 C 442.644 873.41 443.136 858.381 442.619 848.207 C 442.853 842.179 443.155 836.153 443.526 830.131 z" fill="rgb(37,48,64)" transform="translate(0,0)"></path>
<path d="M 542.552 829.411 C 547.676 828.764 556.538 828.917 561.963 828.863 L 562.384 927.243 C 553.63 927.151 544.293 927.648 535.5 927.96 L 516.208 928.998 L 515.348 831.828 C 524.26 830.866 533.589 830.193 542.552 829.411 z" fill="rgb(218,219,185)" transform="translate(0,0)"></path>
<path d="M 581.538 828.432 C 596.715 829.13 611.669 829.712 626.8 831.165 L 626.945 928.894 C 611.596 927.926 596.913 927.803 581.526 927.634 C 580.629 896.272 581.216 859.875 581.538 828.432 z" fill="rgb(218,219,185)" transform="translate(0,0)"></path>
<path d="M 493.343 834.301 C 495.019 833.981 494.855 834.156 496.633 834.395 C 498.74 840.289 497.3 919.756 497.234 931.89 C 484.624 933.871 474.078 934.73 461.238 937.465 C 459.203 937.641 460.207 937.866 458.313 936.477 C 457.617 930.148 458.336 911.538 458.43 904.092 C 458.735 883.271 458.895 862.449 458.912 841.626 C 470.664 838.788 481.472 836.587 493.343 834.301 z" fill="rgb(218,219,185)" transform="translate(0,0)"></path>
<path d="M 644.242 832.576 C 654.629 834.059 671.035 838.194 680.857 841.523 L 680.866 935.36 C 667.507 932.547 657.495 931.195 644.122 929.821 L 644.242 832.576 z" fill="rgb(218,219,185)" transform="translate(0,0)"></path>
<path d="M 437.473 802.186 C 440.802 750.552 493.576 715.712 540.167 707.515 C 545.081 706.65 555.136 705.48 558.361 702.128 C 558.943 698.464 559.099 698.582 557.663 694.949 C 554.221 692.904 549.81 695.378 543.729 694.429 C 538.222 681.696 558.489 670.422 568.156 667.007 C 571.508 668.406 574.743 670.071 577.83 671.985 C 587.984 678.272 590.446 684.26 592.93 695.09 C 587.866 694.901 577.939 693.827 574.363 697.71 C 578.138 703.066 610.211 708.91 619.287 711.556 C 653.751 726.183 679.595 744.066 695.264 779.912 C 698.852 788.119 701.284 797.842 704.48 806.212 C 743.897 818.819 729.743 840.677 708.87 836.613 C 707.802 834.666 707.944 835.238 707.448 833.124 C 708.401 830.062 708.454 830.187 708.393 827.014 C 704.794 821.457 697.873 819.935 692.048 817.859 C 621.302 792.643 541.61 795.564 468.919 810.45 C 458.156 812.655 440.418 816.813 430.933 821.959 L 431.199 843.728 C 388.243 828.672 403.642 813.045 437.473 802.186 z" fill="rgb(37,48,64)" transform="translate(0,0)"></path>
<path d="M 580.422 720.97 C 594.214 720.478 617.231 726.669 629.546 732.979 C 657.014 747.053 672.233 767.272 682.002 795.618 C 667.424 791.314 652.687 787.572 637.822 784.399 C 626.801 748.838 611.911 739.368 580.422 720.97 z" fill="rgb(102,225,197)" transform="translate(0,0)"></path>
<path d="M 547.789 722.432 C 549.164 722.369 548.47 722.226 549.829 723.026 C 516.27 741.246 505.73 752.072 491.779 786.529 C 480.739 789.415 468.464 791.78 457.229 794.174 C 455.486 793.835 456.286 794.266 455.023 792.571 C 456.115 785.934 468.221 768.022 472.774 762.41 C 491.831 738.917 517.834 725.533 547.789 722.432 z" fill="rgb(181,232,199)" transform="translate(0,0)"></path>
<path d="M 560.974 654.003 L 562.972 655.891 C 560.25 658.077 563.521 655.818 560.658 656.881 C 552.42 659.938 541.617 669.851 537.198 677.091 C 532.97 684.017 533.177 688.401 533.491 695.546 C 527.853 702.065 497.365 704.347 496.996 713.46 C 498.673 715.916 498.493 716.05 501.049 717.431 C 517.62 712.306 538.241 704.724 555.572 702.694 C 557.629 700.2 556.908 700.759 556.531 696.308 L 555.332 695.185 L 554.322 695.471 C 549.836 696.709 547.643 696.255 543.352 697.031 C 532.003 686.85 559.344 663.824 569.524 665.934 C 581.791 668.476 595.675 683.508 593.805 696.55 C 590.258 696.382 579.829 695.466 577.227 697.303 L 577.464 699.147 C 584.259 703.343 616.058 706.65 620.735 710.715 L 619.287 711.556 C 610.211 708.91 578.138 703.066 574.363 697.71 C 577.939 693.827 587.866 694.901 592.93 695.09 C 590.446 684.26 587.984 678.272 577.83 671.985 C 574.743 670.071 571.508 668.406 568.156 667.007 C 558.489 670.422 538.222 681.696 543.729 694.429 C 549.81 695.378 554.221 692.904 557.663 694.949 C 559.099 698.582 558.943 698.464 558.361 702.128 C 555.136 705.48 545.081 706.65 540.167 707.515 C 493.576 715.712 440.802 750.552 437.473 802.186 C 403.642 813.045 388.243 828.672 431.199 843.728 L 430.933 821.959 C 440.418 816.813 458.156 812.655 468.919 810.45 C 541.61 795.564 621.302 792.643 692.048 817.859 C 697.873 819.935 704.794 821.457 708.393 827.014 C 708.454 830.187 708.401 830.062 707.448 833.124 C 707.062 826.455 704.12 824.28 697.712 821.785 C 632.149 796.255 557.865 796.871 489.341 808.326 C 479.016 810.052 466.026 811.658 456.347 815.272 L 455.326 817.544 C 456.114 819.287 456.309 819.841 456.9 821.74 L 457.404 823.408 C 459.334 824.21 483.255 818.176 487.575 817.382 C 503.182 814.673 518.919 812.779 534.723 811.707 C 597.116 807.235 639.388 809.324 698.607 830.857 L 699.152 832.415 L 696.586 832.866 C 639.408 801.696 505.066 808.386 443.526 830.131 C 443.155 836.153 442.853 842.179 442.619 848.207 C 439.94 857.86 442.052 936.203 441.761 952.34 C 437.597 952.964 434.793 954.211 431.804 952.475 C 430.982 949.149 430.737 946.867 430.32 943.449 L 429.802 857.066 C 419.609 853.109 398.798 843.123 394.026 832.764 C 384.606 812.315 411.162 800.787 425.213 793.728 C 440.485 736.517 476.928 711.645 531.857 695.867 C 529.156 674.234 545.032 663.855 560.974 654.003 z" fill="rgb(181,232,199)" transform="translate(0,0)"></path>
<path d="M 364.724 1092.62 C 383.482 1083.34 402.251 1077.45 422.251 1072.23 C 502.24 1051.32 698.895 1044.35 769.699 1087.24 C 754.795 1097.12 731.84 1106.89 719.941 1116.47 C 720.74 1137.96 726.832 1176.41 729.848 1198.75 L 754.016 1370.02 C 776.441 1544 800.231 1717.79 825.383 1891.39 C 817.887 1890.79 809.951 1889.68 802.444 1888.75 L 780.122 1737.8 C 775.961 1708.88 772.037 1670.41 765.955 1642.95 C 748.338 1651.45 729.108 1662.72 711.85 1672.27 C 618.65 1723.83 525.967 1791.04 452.787 1868.86 C 427.992 1872.08 413.07 1873.51 387.744 1878.4 C 380.234 1878.52 375.212 1879.58 367.886 1881.16 C 362.604 1884.16 331.561 1892.12 323.343 1894.66 C 323.171 1877.8 327.617 1846.19 329.748 1828.74 C 334.487 1789.64 339.505 1750.57 344.803 1711.54 L 420.934 1128.14 C 421.433 1124.12 422.239 1119.37 421.086 1115.59 C 419.67 1115.59 414.581 1115.68 413.576 1115.06 C 398.279 1105.6 381.377 1099.43 364.724 1092.62 z" fill="rgb(37,48,64)" transform="translate(0,0)"></path>
<path d="M 385.078 1707.19 C 394.345 1693.93 398.991 1688.15 410.577 1676.93 C 409.686 1698.21 406.057 1724.79 403.548 1746.14 C 397.985 1790.19 392.717 1834.28 387.744 1878.4 C 380.234 1878.52 375.212 1879.58 367.886 1881.16 C 374.267 1826.11 380.965 1762.2 385.078 1707.19 z" fill="rgb(236,219,185)" transform="translate(0,0)"></path>
<path d="M 719.125 1299.89 C 720.293 1300.06 719.493 1299.89 721.419 1300.75 C 726.091 1331.66 728.628 1363.19 733.29 1394.14 C 734.968 1405.29 736.514 1417.31 737.301 1428.53 C 712.177 1441.04 684.858 1454.5 659.31 1465.99 C 654.44 1460.68 650.014 1453.95 644.615 1449.42 C 622.806 1431.05 587.991 1436.75 570.609 1458.36 C 560.199 1471.3 560.727 1484.73 562.338 1500.12 C 563.186 1508.2 563.892 1516.09 564.956 1524.17 C 547.118 1537.23 523.718 1551.33 507.016 1564.79 C 468.595 1595.74 424.575 1635.35 391.84 1671.88 C 384.353 1681.15 376.366 1689.5 368.24 1698.2 C 370.092 1668.36 375.807 1630.66 379.77 1600.62 C 382.917 1576.76 386.7 1542.17 391.44 1519.23 C 400.557 1508.34 417.561 1492.81 428.199 1482.93 C 515.285 1402 611.641 1347.61 719.125 1299.89 z" fill="rgb(102,225,197)" transform="translate(0,0)"></path>
<path d="M 656.623 1089.42 C 665.731 1088.14 685.686 1088.81 695.005 1089.11 C 699.111 1107.06 701.584 1133.06 705.134 1152.5 C 688.277 1161.27 664.28 1171.18 646.374 1179.14 C 635.8 1161.13 617.167 1146.12 595.891 1148.3 C 554.227 1152.56 545.74 1183.13 548.21 1216.66 C 533.129 1228.76 515.417 1240.06 500.022 1252.04 C 484.414 1264.18 469.857 1277.12 455.332 1290.5 C 441.118 1304.1 427.542 1318.35 414.649 1333.2 C 415.277 1325.7 416.152 1317.78 417.176 1310.33 C 422.498 1271.63 425.14 1231.58 431.344 1193.1 C 486.415 1138.33 579.171 1096.06 656.623 1089.42 z" fill="rgb(102,225,197)" transform="translate(0,0)"></path>
<path d="M 605.293 1461.18 C 647.079 1457.05 644.981 1490.6 647.487 1520.51 L 653.174 1590.05 C 646.378 1590.04 639.396 1589.72 632.587 1589.5 C 618.846 1588.66 604.671 1589.17 590.493 1588.33 C 588.944 1570.4 582.462 1488.21 586.471 1477.34 C 589.66 1468.69 597.33 1464.6 605.293 1461.18 z" fill="rgb(236,219,185)" transform="translate(0,0)"></path>
<path d="M 599.898 1529.51 C 611.451 1529.7 622.269 1530.48 633.78 1531.28 C 635.334 1546.47 636.811 1561.68 638.212 1576.89 C 626.086 1576.01 614.836 1576.08 602.698 1576.06 C 601.978 1560.53 601.045 1545.01 599.898 1529.51 z" fill="rgb(37,48,64)" transform="translate(0,0)"></path>
<path d="M 607.831 1475.11 C 629.29 1472.39 632.083 1488.83 632.927 1506.59 C 633.059 1509.39 633.252 1514.74 631.485 1516.56 L 626.096 1516.11 C 617.241 1516.1 608.388 1515.83 599.549 1515.29 C 598.289 1499.56 593.027 1484.74 607.831 1475.11 z" fill="rgb(37,48,64)" transform="translate(0,0)"></path>
<path d="M 592.356 1173.11 C 621.035 1171.36 628.245 1186.37 630.996 1211.77 C 634.011 1239.61 637.758 1267.08 639.638 1295.09 L 618.467 1294.97 C 605.328 1294.92 592.42 1294.96 579.293 1294.24 C 577.625 1276.56 567.384 1201.86 573.173 1188.7 C 576.867 1180.3 584.242 1176.32 592.356 1173.11 z" fill="rgb(236,219,185)" transform="translate(0,0)"></path>
<path d="M 597.037 1186.02 C 619.429 1187.25 617.194 1210.94 618.341 1227.99 L 609.25 1227.85 L 587.369 1227.12 C 586.824 1210.63 579.211 1193.52 597.037 1186.02 z" fill="rgb(37,48,64)" transform="translate(0,0)"></path>
<path d="M 589.451 1240.95 C 598.828 1240.95 609.954 1241.86 619.442 1242.4 C 620.493 1255.05 621.668 1267.69 622.967 1280.32 C 614.053 1280.49 603.511 1280.04 594.474 1279.88 C 591.982 1269.63 590.428 1251.6 589.451 1240.95 z" fill="rgb(37,48,64)" transform="translate(0,0)"></path>
<path d="M 443.826 1326.82 C 444.397 1332.01 440.869 1360.7 440.063 1367.52 C 436.399 1398.5 433.538 1430.59 428.44 1461.33 L 408.643 1479.66 C 406.619 1471.15 419.476 1367.29 421.247 1351.22 C 428.844 1343.38 436.022 1334.86 443.826 1326.82 z" fill="rgb(236,219,185)" transform="translate(0,0)"></path>
<path d="M 464.852 1083.27 L 465.566 1083.89 C 466.285 1088.62 461.313 1138.23 460.73 1148.02 C 456.366 1152.07 448.146 1158.21 443.242 1162.11 L 442.73 1161.64 C 442.119 1160.18 447.725 1095.77 448.173 1087.73 C 453.56 1086.15 459.392 1084.71 464.852 1083.27 z" fill="rgb(218,219,185)" transform="translate(0,0)"></path>
<path d="M 551.672 1025.44 C 572.871 1023.95 608.479 1024.71 629.675 1025.92 C 661.609 1027.74 762.239 1037.2 784.055 1058.73 C 786.403 1063.58 783.365 1071.37 781.86 1076.71 C 770.424 1072.36 753.574 1065.74 742.082 1062.84 C 692.541 1050.38 636.625 1044.93 585.75 1044.94 C 522.051 1044.51 417.502 1054.65 360.186 1083.91 C 359.94 1076.24 359.655 1068.57 359.33 1060.89 C 408.875 1036.96 497.064 1028.2 551.672 1025.44 z" fill="rgb(37,48,64)" transform="translate(0,0)"></path>
<path d="M 544.558 955.434 C 555.702 954.856 568.688 954.954 579.975 954.81 C 579.884 973.252 580.463 992.402 580.773 1010.89 L 562.42 1011.08 C 550.396 1011.57 538.847 1012.03 526.846 1013.02 L 526.813 956.125 C 532.566 956.074 538.766 955.693 544.558 955.434 z" fill="rgb(37,48,64)" transform="translate(0,0)"></path>
<path d="M 511.636 957.476 L 514.806 957.494 C 518.123 962.712 516.569 1004.02 516.459 1013.75 C 502.01 1015.05 484.193 1016.69 470.061 1019.51 C 468.087 1019.47 469.113 1019.68 467.027 1018.71 C 465.343 1013.7 465.203 969.684 465.073 961.344 C 480.25 960.453 496.415 958.787 511.636 957.476 z" fill="rgb(37,48,64)" transform="translate(0,0)"></path>
<path d="M 448.619 963.384 C 451.468 962.902 451.113 963.047 454.084 963.201 C 455.9 966.663 455.255 1014.09 455.262 1021.55 C 441.851 1023.73 428.503 1026.29 415.234 1029.21 C 412.288 1030 413.406 1030.08 410.615 1029.3 C 409.606 1024.85 408.876 977.096 408.701 969.532 C 421.986 967.073 435.245 965.28 448.619 963.384 z" fill="rgb(37,48,64)" transform="translate(0,0)"></path>
<path d="M 647.056 957.577 C 663.437 958.922 679.798 960.511 696.133 962.342 C 695.261 981.049 695.243 999.038 695.142 1017.76 C 690.394 1017.93 655.098 1013.81 646.842 1013.14 L 647.056 957.577 z" fill="rgb(37,48,64)" transform="translate(0,0)"></path>
<path d="M 590.587 954.934 C 605.786 954.936 622.262 956.182 637.543 957.066 C 637.494 975.566 637.55 994.067 637.711 1012.57 C 623.967 1012.81 606.563 1010.97 590.988 1011.03 L 590.587 954.934 z" fill="rgb(37,48,64)" transform="translate(0,0)"></path>
<path d="M 706.344 963.09 C 721.503 965.265 734.999 967.452 749.939 970.638 C 750.188 990.189 749.978 1010.13 749.973 1029.72 C 734.542 1025.59 722.66 1022.15 706.686 1020.54 C 706.444 1001.39 706.33 982.24 706.344 963.09 z" fill="rgb(37,48,64)" transform="translate(0,0)"></path>
<path d="M 395.618 972.361 C 397.052 972.349 396.266 972.162 397.759 973.496 C 398.454 993.407 398.871 1013.33 399.012 1033.25 C 389.548 1035.64 382.481 1037.76 373.392 1041.13 L 372.053 1040.97 C 370.258 1038.25 370.194 985.231 370.085 977.906 C 379.344 975.287 386.23 974.024 395.618 972.361 z" fill="rgb(37,48,64)" transform="translate(0,0)"></path>
<path d="M 760.445 974.16 C 764.695 975.551 769.646 977.64 773.881 979.292 C 773.751 998.579 774.106 1018.27 773.549 1037.5 L 759.275 1032.32 C 759.882 1012.94 759.713 993.51 760.445 974.16 z" fill="rgb(37,48,64)" transform="translate(0,0)"></path>
<path d="M 1044.99 550.558 C 1230.04 541.354 1455.77 579.403 1617.27 672.774 C 1737.95 740.667 1837.63 838.283 1873.65 975.966 C 1910.71 1117.61 1853.77 1279.31 1794.61 1407.72 C 1779.47 1440.59 1756.24 1475.61 1737.69 1507.28 C 1737.68 1435.91 1728.84 1368.14 1705.77 1300.25 C 1674.12 1201.78 1603.28 1090.07 1533.81 1013.94 C 1357.08 820.246 1105.79 697.561 852.537 640.136 C 789.285 625.794 719.676 612.505 655.278 608.551 C 678.679 599.985 721.858 590.673 746.407 585.649 C 844.751 565.46 944.642 553.72 1044.99 550.558 z" fill="rgb(245,130,117)" transform="translate(0,0)"></path>
<path d="M 1349.41 295.5 C 1349.69 295.472 1349.97 295.444 1350.24 295.416 C 1415.56 292.297 1483.81 301.376 1546.7 319.009 C 1565.3 323.659 1583.62 333.044 1601.12 339.489 C 1632.74 351.133 1642.71 361.88 1664.76 386.323 C 1687.91 411.983 1707.85 435.744 1727.99 464.026 C 1798.43 561.606 1847.33 673.033 1871.47 790.931 C 1883.45 850.852 1887.92 899.808 1892.83 959.853 C 1884.39 935.617 1876.68 914.997 1865.82 891.782 C 1796.22 743.069 1639.83 644.119 1489.21 590.951 C 1462.6 582.261 1431.97 572.066 1404.97 565.267 C 1257.72 528.176 1108.37 522.507 957.556 533.907 C 929.465 536.031 896.179 540.76 868.066 544.238 C 818.879 550.341 770.033 558.936 721.717 569.991 C 691.244 576.906 666.167 582.689 636.921 593.381 C 651.58 580.477 669.867 567.599 685.816 556.055 C 715.028 534.751 744.924 514.401 775.456 495.036 C 955.083 382.476 1136.71 308.915 1349.41 295.5 z" fill="rgb(245,130,117)" transform="translate(0,0)"></path>
<path d="M 1061.83 111.056 C 1081.63 108.258 1130.15 115.549 1149.99 118.736 C 1284.28 140.305 1413.59 192.648 1526.76 267.818 C 1546.52 280.941 1570.76 295.068 1587.86 311.218 C 1549.04 299.485 1507.86 285.928 1467.68 280.601 C 1296.72 257.937 1117.15 301.591 961.752 370.471 C 846.553 421.111 708.801 507.225 609.992 586.114 C 626.848 549.701 642.551 514.332 660.647 478.4 C 728.04 344.585 830.094 222.958 963.722 151.821 C 995.823 134.732 1027.56 123.084 1061.83 111.056 z" fill="rgb(236,219,185)" transform="translate(0,0)"></path>
<path d="M 980.501 110.442 C 986.459 110.182 992.855 110.193 998.855 110.104 C 969.839 122.729 943.687 138.188 917.031 154.637 C 796.822 228.82 708.526 340.955 643.386 464.735 C 622.126 505.133 602.044 552.694 583.096 594.798 C 580.775 589.792 578.817 583.683 576.958 578.417 C 569.9 556.25 559.711 524.668 554.754 502.534 C 537.957 427.529 534.497 312.241 561.211 239.549 C 575.02 230.024 601.879 215.983 617.091 208.057 C 729.607 149.27 853.673 115.945 980.501 110.442 z" fill="rgb(236,219,185)" transform="translate(0,0)"></path>
<path d="M 517.772 263.832 C 522.529 264.64 523.263 264.824 524.805 269.117 C 523.73 277.512 508.162 286.82 501.517 291.978 C 394.65 374.732 306.878 476.994 249.223 599.805 C 133.231 846.875 144.633 1162.21 290.54 1394.71 C 305.38 1418.36 322.802 1448.71 341.036 1469.84 C 339.301 1474.93 338.516 1477.26 336.005 1482.1 C 313.34 1451.92 290.666 1422.22 271.57 1389.68 C 74.7811 1054.38 136.723 593.524 431.224 334.168 C 458.035 310.557 487.334 282.812 517.772 263.832 z" fill="rgb(102,225,197)" transform="translate(0,0)"></path>
<path d="M 1334.47 1322.85 C 1338.1 1323.09 1340.19 1325.24 1341.42 1328.35 C 1340.05 1337.09 1324.47 1343.54 1317.37 1348.1 C 1167.92 1444.2 992.003 1494.09 814.751 1498.09 C 812.091 1497.5 810.297 1496.46 808.789 1494.28 L 809.265 1491.69 C 811.576 1488.83 818.006 1486.26 821.56 1486.11 C 974.409 1479.94 1125.69 1441.19 1260.64 1368.44 C 1285.94 1354.8 1310.29 1337.99 1334.47 1322.85 z" fill="rgb(102,225,197)" transform="translate(0,0)"></path>
<path d="M 1151.63 994.647 C 1154.79 994.807 1155.87 994.57 1158.43 996.447 C 1161.26 1003.97 1147.44 1033.9 1143.65 1042.64 C 1087.87 1171.28 992.49 1282.66 877.491 1362.22 C 862.264 1372.76 822.231 1399.01 806.237 1405.39 C 803.316 1404.42 801.814 1403.14 800.24 1400.63 C 800.76 1392.53 819.587 1384.62 827.705 1379.77 C 879.037 1348.53 926.78 1311.74 970.072 1270.07 C 1024.62 1217.74 1077.36 1148.56 1111.52 1081 C 1118.46 1067.19 1125.06 1053.23 1131.33 1039.11 C 1135.56 1029.54 1146 1000.81 1151.63 994.647 z" fill="rgb(102,225,197)" transform="translate(0,0)"></path>
<metadata><recraft-signature>{"signed_by": "recraft", "signature_b64": "aLIUqVW4AXMAtJWrtTd7qRzPMAmFaQpFNcjxppa88EDPHu94HdFaWFuP7CpSmDfPHsfGGTJcPOgr/twERf3yAQ==", "signing_algo": "Ed25519", "generation_timestamp": 1779027289, "identifier": "fd857af6-2ae8-4d0e-a58d-6328aabdc5e5"}</recraft-signature></metadata></svg>