<svg xmlns="http://www.w3.org/2000/svg" height="1024" preserveAspectRatio="none" style="display: block;" version="1.1" viewBox="0 0 2048 1152" width="1820">
<path d="M 0 0 L 2048 0 L 2048 1152 L 0 1152 L 0 0 z" fill="rgb(39,47,53)" transform="translate(0,0)"></path>
<path d="M 1464.42 624.206 C 1481.77 623.421 1503.64 624.007 1521.44 624.015 L 1626.88 624.061 L 1747.01 623.97 C 1768.9 623.948 1790.91 623.413 1812.79 624.128 C 1816.53 624.251 1819.99 624.374 1823.49 625.848 C 1830.48 628.795 1835.25 633.779 1837.92 640.847 C 1842.1 651.923 1839.23 804.147 1839.22 826.444 C 1839.2 885.581 1840.85 945.083 1839.34 1004.18 C 1839.21 1009.1 1839.03 1013.63 1836.87 1018.16 C 1833.19 1025.9 1826.9 1030.26 1818.99 1033.03 C 1806.18 1034.12 1783.5 1033.36 1769.73 1033.33 L 1676.51 1033.18 L 1537.39 1033.39 C 1516.11 1033.34 1494.66 1033.76 1473.41 1032.93 C 1468.69 1032.74 1464.63 1032.28 1460.25 1030.39 C 1453.27 1027.38 1447.86 1020.82 1445.2 1013.8 C 1441.83 1004.91 1443.56 891.315 1443.52 872.711 L 1443.43 725.754 C 1443.43 701.604 1443.34 677.444 1443.45 653.297 C 1443.53 636.607 1449.18 629.937 1464.42 624.206 z" fill="rgb(142,227,212)" transform="translate(0,0)"></path>
<path d="M 1464.91 632.222 C 1491.16 631.47 1519.04 631.965 1545.47 631.967 L 1687.68 631.945 L 1771.51 631.913 C 1786.13 631.906 1800.97 631.624 1815.52 632.359 C 1823.67 633.06 1830.35 638.548 1830.64 647.033 C 1831.11 661.215 1830.88 675.337 1830.84 689.467 L 1830.72 769.428 L 1830.94 1011.57 C 1826.85 1019.06 1825.66 1020.94 1818.21 1024.91 C 1793.1 1025.92 1762.11 1025.07 1736.65 1025.05 L 1579.95 1025 L 1507.6 1025.12 C 1496.98 1025.14 1486.23 1025.27 1475.62 1025 C 1457.29 1024.53 1451.59 1017.94 1451.64 1000.18 C 1451.7 975.936 1451.69 951.752 1451.71 927.56 L 1451.74 780.401 C 1451.7 740.167 1450.57 684.584 1452.89 644.155 C 1453.18 639.13 1460.38 634.543 1464.91 632.222 z" fill="rgb(39,47,53)" transform="translate(0,0)"></path>
<path d="M 1741.02 728.103 C 1751.73 727.59 1800.13 725.823 1806.21 731.826 C 1808.92 744.157 1807.99 777.375 1807.97 791.572 L 1807.94 891.596 L 1808.04 964.477 C 1808.05 975.393 1808.28 987.445 1807.74 998.393 C 1807.61 1001.05 1803.88 1003.77 1801.75 1005.52 C 1791.45 1006.83 1743.99 1007.8 1737.18 1002.38 C 1734.14 990.463 1735.19 951.61 1735.22 937.117 L 1735.3 833.622 L 1735.2 766.973 C 1735.18 756.636 1734.98 745.595 1735.46 735.262 C 1735.6 732.276 1738.72 730.023 1741.02 728.103 z" fill="rgb(142,227,212)" transform="translate(0,0)"></path>
<path d="M 1743.81 736.905 L 1799.25 736.918 L 1799.4 925.009 L 1799.41 971.094 C 1799.41 977.814 1799.69 991.817 1798.72 997.881 L 1743.88 997.762 C 1743.42 910.81 1743.39 823.857 1743.81 736.905 z" fill="rgb(39,47,53)" transform="translate(0,0)"></path>
<path d="M 1656.47 794.125 C 1667.96 794.009 1711.51 791.922 1718.63 796.839 C 1723.19 809.685 1719.74 923.939 1720.83 945.975 C 1721.3 955.444 1720.93 988.962 1719.8 1000.45 C 1719.67 1001.69 1716.71 1004.68 1715.55 1005.82 C 1704.47 1005.82 1659.14 1007.87 1653.16 1002.95 C 1651.81 998.418 1651.03 993.054 1651.02 988.301 C 1650.86 925.92 1650.54 863.503 1651.11 801.129 C 1651.13 798.448 1654.56 795.828 1656.47 794.125 z" fill="rgb(142,227,212)" transform="translate(0,0)"></path>
<path d="M 1659.27 802.436 C 1676.54 802.102 1694.74 802.377 1712.09 802.36 L 1711.96 997.717 C 1694.31 997.62 1676.65 997.633 1658.99 997.757 C 1659.41 932.837 1658.35 867.118 1659.27 802.436 z" fill="rgb(39,47,53)" transform="translate(0,0)"></path>
<path d="M 1572.78 850.425 C 1585.09 849.948 1626.53 847.968 1634.47 854.331 C 1637.74 864.239 1635.83 981.951 1635.49 1000.67 C 1635.45 1002.75 1631.44 1004.89 1629.36 1005.99 C 1617.38 1006.07 1574.99 1008.21 1567.65 1002.53 C 1564.07 991.227 1566.32 877.707 1566.48 856.83 C 1566.5 854.564 1570.36 851.728 1572.78 850.425 z" fill="rgb(142,227,212)" transform="translate(0,0)"></path>
<path d="M 1574.36 858.789 C 1591.82 859.185 1610.44 858.888 1627.99 858.917 L 1628.14 997.703 L 1574.18 997.383 C 1574.07 951.482 1573.74 904.632 1574.36 858.789 z" fill="rgb(39,47,53)" transform="translate(0,0)"></path>
<path d="M 1487.27 911.238 C 1502.27 910.621 1529.66 909.173 1543.72 911.252 C 1545.77 911.556 1547.96 911.865 1549.13 913.736 C 1553.63 920.89 1552.98 987.384 1550.99 998.118 C 1550.27 1002 1548.9 1003.59 1545.69 1005.72 C 1538.84 1005.79 1484.94 1008.04 1483.79 1002.75 C 1478.24 977.307 1481.46 945.328 1481.83 918.941 C 1481.89 915.156 1484.49 913.106 1487.27 911.238 z" fill="rgb(142,227,212)" transform="translate(0,0)"></path>
<path d="M 1489.01 919.727 L 1543.4 919.592 L 1543.23 997.267 L 1488.91 997.403 L 1489.01 919.727 z" fill="rgb(39,47,53)" transform="translate(0,0)"></path>
<path d="M 1738.11 655.615 C 1746.34 658.007 1770.56 661.68 1774.89 664.977 C 1777.12 672.036 1771.23 697.732 1764.44 701.614 L 1762.34 700.572 C 1759.75 694.974 1764.63 682.301 1766.54 675.98 C 1737.99 695.244 1704.99 714.76 1675.6 733.056 C 1618.75 768.905 1561.72 804.46 1504.5 839.721 L 1500.92 842.046 C 1494.65 846.111 1483.22 854.534 1475.5 852.883 L 1474.78 851.223 C 1477.67 844.551 1494.92 836.156 1501.75 831.953 L 1550.18 801.841 C 1620.22 758.019 1693.01 714.12 1761.83 668.838 L 1747.09 666.652 C 1743 666.014 1738.83 665.456 1736.25 661.914 C 1735.99 658.046 1735.77 659.592 1738.11 655.615 z" fill="rgb(142,227,212)" transform="translate(0,0)"></path>
<path d="M 1492.15 766.465 C 1497.01 764.88 1502.35 766.035 1506.12 769.489 C 1509.9 772.942 1511.52 778.159 1510.37 783.145 C 1509.23 788.13 1505.49 792.112 1500.58 793.567 C 1493.14 795.776 1485.3 791.592 1482.99 784.178 C 1480.68 776.763 1484.76 768.87 1492.15 766.465 z" fill="rgb(142,227,212)" transform="translate(0,0)"></path>
<path d="M 1494.31 774.591 C 1497.24 773.451 1500.55 774.796 1501.86 777.657 C 1503.16 780.519 1502.01 783.903 1499.23 785.371 C 1497.28 786.399 1494.93 786.264 1493.11 785.021 C 1491.29 783.778 1490.31 781.632 1490.56 779.445 C 1490.81 777.257 1492.26 775.389 1494.31 774.591 z" fill="rgb(39,47,53)" transform="translate(0,0)"></path>
<path d="M 1629.64 675.523 C 1637.16 673.751 1644.71 678.351 1646.58 685.846 C 1648.45 693.341 1643.95 700.947 1636.48 702.916 C 1631.56 704.213 1626.32 702.762 1622.77 699.119 C 1619.22 695.475 1617.9 690.202 1619.33 685.316 C 1620.75 680.431 1624.69 676.69 1629.64 675.523 z" fill="rgb(142,227,212)" transform="translate(0,0)"></path>
<path d="M 1632.11 683.565 C 1635.11 683.145 1637.91 685.118 1638.52 688.076 C 1639.14 691.034 1637.35 693.962 1634.44 694.77 C 1632.38 695.342 1630.18 694.719 1628.72 693.155 C 1627.26 691.591 1626.79 689.345 1627.5 687.329 C 1628.22 685.313 1630 683.862 1632.11 683.565 z" fill="rgb(39,47,53)" transform="translate(0,0)"></path>
<path d="M 364.524 60.1142 C 370.753 60.164 375.779 60.9219 381.089 64.4902 C 385.804 67.6951 388.999 72.692 389.93 78.3161 C 391.544 87.6605 388.393 93.3096 383.287 100.546 C 413.925 101.612 445.857 117.624 469.806 135.938 C 468.596 129.115 469.309 122.856 473.235 116.972 C 476.585 111.95 481.872 108.549 487.829 107.581 C 494.457 106.468 501.251 108.112 506.636 112.132 C 511.293 115.52 514.359 120.668 515.12 126.377 C 517.517 145.104 504.474 151.383 488.576 153.08 C 501.758 169.274 514.138 190.918 519.533 211.152 C 521.165 217.273 523.809 231.641 525.89 236.237 C 526.413 236.003 526.939 235.774 527.467 235.551 C 541.184 229.817 555.158 233.302 560.578 248.122 C 562.798 254.105 562.48 260.735 559.698 266.478 C 552.964 280.417 538.82 282.453 525.877 276.028 C 520.325 308.009 508.429 333.883 487.778 358.63 C 502.717 357.504 514.51 363.675 515.949 379.799 C 516.493 385.435 514.712 391.048 511.019 395.339 C 500.364 407.763 479.112 406.27 471.688 391.225 C 469.258 386.299 469.335 382.036 469.104 376.671 C 442.699 394.859 412.573 407.189 380.645 410.868 C 398.321 426.787 392.39 449.726 368.817 454.662 C 361.413 454.09 356.146 452.934 350.753 447.516 C 346.413 443.158 344.018 437.232 344.111 431.082 C 344.209 421.808 347.832 416.875 354.175 410.811 C 319.141 407.64 291.343 395.224 263.336 374.608 C 265.441 389.829 257.441 402.795 241.201 403.035 C 234.515 403.191 228.064 400.566 223.386 395.786 C 219.562 391.886 217.449 386.622 217.517 381.16 C 217.819 364.181 229.989 356.989 245.601 357.665 C 224.752 334.232 214.018 303.23 209.666 272.654 C 194.495 281.326 175.985 279.351 172.276 259.856 C 171.095 253.457 172.531 246.852 176.261 241.52 C 184.808 229.318 198.601 230.106 209.704 238.353 C 216.107 202.416 223.453 181.418 246.351 152.678 C 234.998 152.74 218.513 146.995 218.791 134.368 C 219.505 101.901 263.126 93.403 264.485 135.592 C 290.64 114.164 318.176 104.528 351.078 99.9954 C 339.493 82.878 343.939 65.9273 364.524 60.1142 z" fill="rgb(142,227,212)" transform="translate(0,0)"></path>
<path d="M 353.508 156.434 C 408.132 148.869 458.482 187.191 465.742 241.856 C 473.003 296.521 434.401 346.657 379.696 353.612 C 325.421 360.513 275.764 322.28 268.561 268.045 C 261.358 213.809 299.313 163.94 353.508 156.434 z" fill="rgb(39,47,53)" transform="translate(0,0)"></path>
<path d="M 363.987 209.978 C 366.356 209.982 368.608 209.947 370.974 210.14 L 371.417 210.303 C 396.458 219.338 404.9 223.11 410.307 250.996 C 416.71 250.961 434.847 250.501 440.104 251.858 C 441.377 255.122 441.283 253.779 440.726 257.014 C 436.492 260.741 416.968 258.989 409.953 259.128 C 409.625 268.48 405.064 275.948 399.508 283.129 C 397.967 284.611 395.659 286.686 394.276 288.194 C 386.902 292.821 380.374 296.547 371.263 296.834 C 368.608 296.223 366.452 296.611 363.728 296.841 C 350.985 296.491 349.235 292.112 338.76 288.136 L 334.733 284.473 C 332.639 277.444 326.121 274.092 323.826 259.073 C 314.58 258.789 303.137 260.379 294.942 257.949 C 292.305 255.261 293.06 256.274 292.877 251.662 C 300.173 250.578 315.635 251.056 323.581 251.085 C 327.265 226.365 340.312 215.508 363.987 209.978 z" fill="rgb(128,220,195)" transform="translate(0,0)"></path>
<path d="M 409.953 259.128 C 409.009 256.858 409.154 255.391 409.942 253.424 C 415.046 250.272 432.557 252.017 440.104 251.858 C 441.377 255.122 441.283 253.779 440.726 257.014 C 436.492 260.741 416.968 258.989 409.953 259.128 z" fill="rgb(142,227,212)" transform="translate(0,0)"></path>
<path d="M 292.877 251.662 C 301.466 252.579 317.097 250.501 322.438 253.767 C 323.639 256.105 323.569 256.397 323.826 259.073 C 314.58 258.789 303.137 260.379 294.942 257.949 C 292.305 255.261 293.06 256.274 292.877 251.662 z" fill="rgb(142,227,212)" transform="translate(0,0)"></path>
<path d="M 363.728 296.841 C 366.452 296.611 368.608 296.223 371.263 296.834 C 371.396 304.081 372.76 324.422 367.753 329.228 L 366.415 328.443 C 362.573 320.26 363.61 306.244 363.728 296.841 z" fill="rgb(142,227,212)" transform="translate(0,0)"></path>
<path d="M 363.987 209.978 C 363.76 201.094 362.552 187.423 366.359 179.857 L 367.905 179.336 C 372.521 184.719 371.12 203.012 370.974 210.14 C 368.608 209.947 366.356 209.982 363.987 209.978 z" fill="rgb(142,227,212)" transform="translate(0,0)"></path>
<path d="M 399.508 283.129 C 404.956 288.318 415.334 296.968 416.489 304.038 L 415.444 305.099 C 408.341 303.991 399.226 293.554 394.276 288.194 C 395.659 286.686 397.967 284.611 399.508 283.129 z" fill="rgb(142,227,212)" transform="translate(0,0)"></path>
<path d="M 338.76 288.136 C 336.123 293.31 326.454 305.451 319.859 304.652 C 315.904 298.152 330.205 288.125 334.733 284.473 L 338.76 288.136 z" fill="rgb(142,227,212)" transform="translate(0,0)"></path>
<path d="M 412.986 201.516 L 416.211 202.531 C 420.491 208.747 407.633 217.113 402.906 221.239 C 401.573 220.795 400.43 220.018 399.193 219.303 L 398.736 217.144 C 400.641 212.589 409.054 205.284 412.986 201.516 z" fill="rgb(142,227,212)" transform="translate(0,0)"></path>
<path d="M 318.547 202.374 C 324.251 203.121 333.497 212.547 335.613 217.804 C 336.185 219.225 334.795 220.809 334.04 222.186 C 328.966 220.665 320.335 212.571 317.793 207.864 C 316.656 205.757 317.614 204.855 318.547 202.374 z" fill="rgb(142,227,212)" transform="translate(0,0)"></path>
<path d="M 216.973 258.383 C 230.834 258.356 244.696 258.419 258.556 258.571 C 261.379 290.21 268.178 304.578 288.454 328.961 L 272.122 345.185 C 267.174 349.98 262.292 354.843 257.478 359.772 C 232.682 329.454 216.162 298.948 216.973 258.383 z" fill="rgb(39,47,53)" transform="translate(0,0)"></path>
<path d="M 515.529 258.891 C 523.492 288.045 500.52 330.815 481.779 352.757 L 476.077 358.722 C 465.364 349.335 455.32 339.263 444.46 330.049 C 463.571 311.175 474.877 285.798 476.128 258.968 L 515.529 258.891 z" fill="rgb(39,47,53)" transform="translate(0,0)"></path>
<path d="M 477.094 152.859 C 477.355 153.006 477.821 153.242 478.111 153.549 C 499.746 176.48 513.939 208.29 517.885 239.442 C 518.279 242.555 517.347 248.122 515.423 249.477 C 511.884 251.971 493.092 250.981 488.5 250.94 L 475.804 250.934 C 473.521 222.558 464.847 203.595 445.902 182.563 C 456.031 172.384 466.432 162.479 477.094 152.859 z" fill="rgb(39,47,53)" transform="translate(0,0)"></path>
<path d="M 293.537 334.685 C 295.553 335.233 306.116 342.696 308.936 344.427 C 326.177 355.009 344.109 359.172 364.039 360.554 L 363.916 404.404 C 356.394 403.059 348.333 401.95 340.741 400.77 C 308.897 394.899 288.494 383.613 263.058 364.228 C 274.217 354.476 283.106 345.268 293.537 334.685 z" fill="rgb(39,47,53)" transform="translate(0,0)"></path>
<path d="M 257.654 151.535 C 260.559 152.696 284.783 178.007 288.424 181.708 C 268.703 203.433 262.53 221.632 258.334 249.803 C 255.636 251.436 252.066 250.848 248.705 250.743 L 216.648 250.736 C 217.626 212.001 233.484 180.729 257.654 151.535 z" fill="rgb(39,47,53)" transform="translate(0,0)"></path>
<path d="M 359.506 107.425 L 362.337 107.413 C 365.147 110.95 363.848 141.475 363.807 148.81 C 338.01 148.776 313.016 160.381 293.87 177.2 C 290.502 172.913 285.52 168.001 281.668 163.984 C 275.656 157.665 270.187 152.344 263.82 146.375 C 295.729 121.536 318.825 110.69 359.506 107.425 z" fill="rgb(39,47,53)" transform="translate(0,0)"></path>
<path d="M 438.978 334.871 C 449.509 344.815 460.16 355.307 471.159 364.669 C 446.234 383.785 429.408 390.821 399.857 399.487 C 390.104 401.717 381.471 402.968 371.611 404.416 L 371.536 360.276 C 396.821 359.156 419.561 351.584 438.978 334.871 z" fill="rgb(39,47,53)" transform="translate(0,0)"></path>
<path d="M 371.611 107.817 C 411.595 107.977 440.448 123.623 471.015 146.961 C 465.772 151.778 460.267 157.363 455.126 162.373 L 440.79 176.826 C 419.271 160.048 399.279 150.129 371.645 148.802 L 371.611 107.817 z" fill="rgb(39,47,53)" transform="translate(0,0)"></path>
<path d="M 363.002 415.476 C 371.242 412.997 379.937 417.64 382.459 425.867 C 384.981 434.094 380.383 442.813 372.17 445.378 C 363.895 447.962 355.097 443.323 352.556 435.035 C 350.015 426.747 354.701 417.973 363.002 415.476 z" fill="rgb(39,47,53)" transform="translate(0,0)"></path>
<path d="M 488.939 366.265 C 494.26 364.94 499.882 366.587 503.646 370.575 C 507.41 374.562 508.731 380.27 507.102 385.506 C 505.473 390.742 501.147 394.692 495.785 395.839 C 487.682 397.574 479.686 392.491 477.818 384.418 C 475.95 376.346 480.899 368.267 488.939 366.265 z" fill="rgb(39,47,53)" transform="translate(0,0)"></path>
<path d="M 535.804 241.528 C 543.867 239.846 551.793 244.927 553.631 252.957 C 555.468 260.986 550.541 269.009 542.548 271 C 537.239 272.323 531.63 270.675 527.881 266.69 C 524.132 262.706 522.828 257.007 524.471 251.788 C 526.114 246.57 530.448 242.646 535.804 241.528 z" fill="rgb(39,47,53)" transform="translate(0,0)"></path>
<path d="M 238.935 365.438 C 247.15 364.509 254.575 370.382 255.564 378.589 C 256.554 386.796 250.736 394.265 242.537 395.315 C 234.251 396.376 226.686 390.484 225.687 382.19 C 224.687 373.897 230.634 366.376 238.935 365.438 z" fill="rgb(39,47,53)" transform="translate(0,0)"></path>
<path d="M 188.728 241.365 C 193.826 239.294 199.649 240.199 203.878 243.718 C 208.107 247.237 210.055 252.799 208.945 258.188 C 207.835 263.576 203.848 267.916 198.572 269.477 C 190.948 271.734 182.895 267.612 180.267 260.107 C 177.639 252.603 181.362 244.357 188.728 241.365 z" fill="rgb(39,47,53)" transform="translate(0,0)"></path>
<path d="M 488.444 115.535 C 496.438 113.57 504.51 118.459 506.473 126.454 C 508.435 134.448 503.544 142.519 495.549 144.479 C 487.557 146.439 479.49 141.55 477.528 133.558 C 475.567 125.567 480.453 117.498 488.444 115.535 z" fill="rgb(39,47,53)" transform="translate(0,0)"></path>
<path d="M 364.079 68.3972 C 371.996 66.4323 380.019 71.2078 382.067 79.1038 C 384.114 86.9998 379.423 95.0725 371.549 97.2027 C 366.382 98.6007 360.861 97.1152 357.093 93.3126 C 353.325 89.51 351.89 83.9765 353.336 78.822 C 354.781 73.6675 358.883 69.6866 364.079 68.3972 z" fill="rgb(39,47,53)" transform="translate(0,0)"></path>
<path d="M 241.134 115.509 C 249.096 115.157 255.909 121.17 256.549 129.114 C 257.189 137.059 251.427 144.085 243.512 145.013 C 238.129 145.644 232.832 143.285 229.7 138.862 C 226.569 134.439 226.103 128.659 228.486 123.792 C 230.869 118.925 235.72 115.748 241.134 115.509 z" fill="rgb(39,47,53)" transform="translate(0,0)"></path>
<path d="M 1218.41 16.4226 C 1222.13 16.5931 1220.71 16.1152 1223.77 18.2253 C 1226.92 24.5818 1223.47 58.1778 1222.2 66.0721 C 1206.65 162.767 1128.58 254.096 1052.26 310.712 C 1051.42 315.2 1050.5 319.672 1049.5 324.126 C 1041.42 359.819 1029.85 402.19 996.831 423.428 C 991.494 426.426 981.664 431.622 975.443 429.944 C 968.067 428.088 970.676 418.638 972.054 413.257 C 977.119 393.47 974.723 382.391 964.312 364.857 C 957.19 368.72 950.123 372.684 943.115 376.75 L 909.39 348.21 C 899.841 340.213 892.001 333.154 882.936 324.646 C 887.396 318.575 891.338 314.158 896.354 308.537 C 894.881 306.449 893.276 303.607 891.926 301.372 C 866.704 289.716 859.713 293.913 834.852 302.255 C 832.058 303.193 829.451 303.462 826.8 301.979 C 819.531 293.624 828.932 279.817 834.592 272.67 C 860.076 240.495 910.042 212.201 950.293 206.557 C 957.582 198.588 966.508 185.467 973.961 176.563 C 1035.69 102.823 1118.76 26.4998 1218.41 16.4226 z" fill="rgb(142,227,212)" transform="translate(0,0)"></path>
<path d="M 1113.15 61.9646 C 1115.08 63.7451 1117.21 73.7621 1118.87 77.9306 C 1121.54 84.7303 1125.09 91.1507 1129.43 97.0274 C 1145.98 119.585 1166.81 128.256 1193.46 132.406 C 1166.54 185.608 1129.92 233.321 1085.5 273.094 C 1075.73 281.908 1017.69 328.592 1010.83 328.245 C 1003.04 320.659 991.29 311.043 982.864 303.586 C 964.241 287.05 945.532 270.61 926.739 254.268 C 976.918 180.073 1036.53 109.812 1113.15 61.9646 z" fill="rgb(39,47,53)" transform="translate(0,0)"></path>
<path d="M 1028.65 186.175 C 1043.51 183.87 1058.47 189.731 1067.82 201.522 C 1077.16 213.313 1079.45 229.216 1073.81 243.165 C 1068.17 257.113 1055.48 266.956 1040.56 268.939 C 1017.85 271.959 996.933 256.132 993.667 233.451 C 990.402 210.77 1006 189.686 1028.65 186.175 z" fill="rgb(142,227,212)" transform="translate(0,0)"></path>
<path d="M 1027.6 195.137 C 1045.47 191.02 1063.3 202.158 1067.44 220.024 C 1071.58 237.891 1060.46 255.732 1042.6 259.89 C 1024.71 264.054 1006.83 252.915 1002.69 235.02 C 998.544 217.125 1009.7 199.261 1027.6 195.137 z" fill="rgb(39,47,53)" transform="translate(0,0)"></path>
<path d="M 1029.79 200.243 C 1039.56 198.334 1049.59 201.833 1056.05 209.399 C 1062.51 216.965 1064.39 227.425 1060.98 236.768 C 1057.56 246.112 1049.37 252.889 1039.56 254.501 C 1024.69 256.943 1010.62 247.004 1007.95 232.179 C 1005.29 217.355 1015.01 203.134 1029.79 200.243 z" fill="rgb(142,227,212)" transform="translate(0,0)"></path>
<path d="M 1033.14 208.442 C 1043.47 207.333 1052.75 214.75 1053.96 225.062 C 1055.16 235.374 1047.83 244.729 1037.53 246.025 C 1027.09 247.339 1017.59 239.891 1016.37 229.445 C 1015.15 219 1022.69 209.565 1033.14 208.442 z" fill="rgb(39,47,53)" transform="translate(0,0)"></path>
<path d="M 1105.59 106.465 C 1120.29 104.097 1135.12 109.831 1144.41 121.47 C 1153.69 133.108 1155.99 148.845 1150.41 162.65 C 1144.84 176.456 1132.26 186.188 1117.5 188.118 C 1095.14 191.04 1074.58 175.472 1071.32 153.158 C 1068.07 130.845 1083.33 110.052 1105.59 106.465 z" fill="rgb(142,227,212)" transform="translate(0,0)"></path>
<path d="M 1105.36 115.378 C 1122.88 111.588 1140.18 122.653 1144.09 140.152 C 1147.99 157.651 1137.04 175.021 1119.57 179.042 C 1101.93 183.101 1084.36 172.025 1080.42 154.362 C 1076.48 136.699 1087.67 119.203 1105.36 115.378 z" fill="rgb(39,47,53)" transform="translate(0,0)"></path>
<path d="M 1108.62 120.511 C 1118.22 119.163 1127.8 123.08 1133.71 130.765 C 1139.62 138.451 1140.94 148.719 1137.17 157.649 C 1133.4 166.579 1125.12 172.792 1115.49 173.916 C 1100.84 175.627 1087.54 165.235 1085.66 150.607 C 1083.78 135.979 1094.02 122.561 1108.62 120.511 z" fill="rgb(142,227,212)" transform="translate(0,0)"></path>
<path d="M 1108.02 129.384 C 1117.78 127.014 1127.62 132.988 1130.02 142.743 C 1132.42 152.497 1126.47 162.354 1116.73 164.783 C 1106.94 167.223 1097.03 161.248 1094.62 151.451 C 1092.21 141.655 1098.22 131.764 1108.02 129.384 z" fill="rgb(39,47,53)" transform="translate(0,0)"></path>
<path d="M 1214.36 25.3681 L 1216.18 25.5448 C 1217.61 28.4037 1216.56 37.4758 1216.41 41.0162 C 1215.13 70.8423 1208.31 97.2096 1196.1 124.341 C 1176.55 122.994 1162.02 116.213 1147.18 103.864 C 1132.22 89.6462 1126.44 77.0919 1122.09 57.3248 C 1150.38 40.5665 1181.76 29.6969 1214.36 25.3681 z" fill="rgb(39,47,53)" transform="translate(0,0)"></path>
<path d="M 940.475 217.068 C 940.919 217.069 942.11 217.46 942.603 217.599 C 941.524 220.39 934.045 229.492 931.609 232.583 C 916.638 251.576 905.89 271.735 895.355 293.373 C 874.888 284.067 863.682 283.799 842.582 290.62 L 831.463 295.31 C 848.118 256.09 901.202 227.729 940.475 217.068 z" fill="rgb(39,47,53)" transform="translate(0,0)"></path>
<path d="M 1041.58 318.871 C 1042.12 321.952 1040.95 325.131 1040.16 328.11 C 1032.3 358.037 1024.04 390.747 999.282 411.53 C 994.999 415.125 985.083 421.985 979.409 422.065 C 978.03 419.537 979.114 418.489 980.13 414.887 C 985.936 393.928 982.476 379.375 972.11 360.945 C 996.173 348.475 1019.38 334.419 1041.58 318.871 z" fill="rgb(39,47,53)" transform="translate(0,0)"></path>
<path d="M 909.279 284.38 C 912.831 286.597 927.91 299.906 932.129 303.48 C 948.956 317.541 965.622 331.791 982.126 346.228 L 970.617 352.033 C 969.53 352.662 968.337 353.468 967.075 353.64 C 962.602 354.248 909.909 307.399 901.577 300.517 L 909.279 284.38 z" fill="rgb(39,47,53)" transform="translate(0,0)"></path>
<path d="M 902.669 313.622 C 920.105 326.99 939.954 344.332 956.73 358.812 L 947.426 364.496 L 945.468 365.542 C 940.557 364.384 902.137 329.624 895.663 323.473 L 902.669 313.622 z" fill="rgb(39,47,53)" transform="translate(0,0)"></path>
<path d="M 939.378 277.739 C 943.247 279.784 952.477 288.246 956.077 291.417 C 952.528 294.137 948.061 298.58 944.705 301.724 C 942.164 301.316 931.746 291.779 929.01 289.428 C 932.169 285.611 936.04 281.48 939.378 277.739 z" fill="rgb(39,47,53)" transform="translate(0,0)"></path>
<path d="M 961.749 297.629 C 967.193 301.259 972.588 306.254 977.564 310.586 C 973.417 314.039 970.373 317.622 966.796 321.615 C 962.592 318.514 955.125 311.688 950.89 308.058 C 954.467 305.119 958.414 300.956 961.749 297.629 z" fill="rgb(39,47,53)" transform="translate(0,0)"></path>
<path d="M 984.048 315.982 L 998.333 328.201 C 995.168 331.371 990.444 335.229 986.97 338.243 C 983.381 336.207 976.758 330.157 973.348 327.225 L 984.048 315.982 z" fill="rgb(39,47,53)" transform="translate(0,0)"></path>
<path d="M 921.836 261.605 C 924.793 263.378 930.095 268.742 932.826 271.331 L 922.736 282.256 L 921.416 282.456 L 913.12 276.315 C 915.728 271.384 918.914 266.387 921.836 261.605 z" fill="rgb(39,47,53)" transform="translate(0,0)"></path>
<path d="M 1745.51 112.469 C 1790.16 111.967 1831.98 118.756 1873.22 136.364 C 1876.41 137.728 1900.18 146.648 1898.19 151.394 C 1884.61 183.872 1869.52 215.939 1854.81 247.942 C 1853 251.73 1850.38 253.666 1846.37 251.613 C 1762.36 208.662 1659.31 226.813 1595.92 297.305 C 1574.5 321.116 1563.22 342.938 1551.75 374.25 C 1545.42 395.608 1543.53 411.584 1542.9 433.588 C 1529.97 433.7 1438.33 434.865 1434.2 431.365 C 1433.27 428.748 1432.79 426.013 1432.8 423.239 C 1432.99 346.219 1465.73 271.269 1517.58 215.758 C 1578.93 150.097 1656.94 115.886 1745.51 112.469 z" fill="rgb(142,227,212)" transform="translate(0,0)"></path>
<path d="M 1749.31 120.452 C 1793.19 118.48 1851.08 131.553 1889.59 152.724 C 1875.33 182.813 1862.78 214.283 1847.89 244.08 C 1790.47 212.887 1715.22 213.855 1656.84 241.937 C 1605.23 266.921 1565.62 311.337 1546.67 365.463 C 1539.37 385.614 1536.24 404.502 1535.73 425.848 L 1440.91 425.789 C 1440.13 350.13 1472.67 274.891 1524.34 220.334 C 1585.79 155.445 1660.71 123.338 1749.31 120.452 z" fill="rgb(39,47,53)" transform="translate(0,0)"></path>
<path d="M 390.143 610.932 C 393.617 612.496 406.872 621.635 411.08 624.396 L 452.41 651.174 L 558.27 719.895 C 566.235 725.045 600.458 744.741 603.984 750.935 L 603.399 753.002 C 600.737 754.953 599.525 754.995 595.743 755.031 C 575.272 755.231 554.494 755.175 534.047 755.249 L 389.2 755.262 C 368.94 755.145 179.282 756.488 175.03 754.564 L 174.723 752.264 C 178.11 745.769 200.507 733.325 208.056 728.492 C 226.623 716.633 245.088 704.617 263.452 692.446 C 289.945 674.898 316.543 657.506 343.242 640.273 C 358.008 630.759 374.966 619.415 390.143 610.932 z" fill="rgb(142,227,212)" transform="translate(0,0)"></path>
<path d="M 389.21 620.888 C 397.164 624.051 440.674 653.252 449.755 659.166 L 585.16 746.715 L 391.5 746.943 L 194.329 747.153 C 258.756 704.247 323.722 662.156 389.21 620.888 z" fill="rgb(39,47,53)" transform="translate(0,0)"></path>
<path d="M 384.957 652.42 C 403.294 649.68 420.359 662.382 422.998 680.734 C 425.637 699.086 412.841 716.081 394.475 718.619 C 376.252 721.137 359.416 708.462 356.798 690.253 C 354.179 672.043 366.762 655.138 384.957 652.42 z" fill="rgb(142,227,212)" transform="translate(0,0)"></path>
<path d="M 386.648 660.389 C 395.716 659.209 404.717 663.001 410.206 670.314 C 415.696 677.627 416.823 687.329 413.158 695.706 C 409.493 704.083 401.602 709.839 392.506 710.77 C 378.706 712.183 366.331 702.248 364.729 688.469 C 363.128 674.69 372.893 662.18 386.648 660.389 z" fill="rgb(39,47,53)" transform="translate(0,0)"></path>
<path d="M 920.343 650.25 C 936.359 648.472 949.7 650.331 964.071 657.627 C 969.094 660.177 972.571 660.906 974.518 666.192 L 973.312 668.746 C 967.268 671.041 958.327 663.349 952.393 661.182 C 917.387 648.4 880.79 666.64 871.142 703.104 C 870.617 705.086 869.5 708.052 867.689 708.833 C 863.045 706.376 855.069 701.622 850.494 700.025 C 837.084 695.342 821.143 702.801 816.488 716.214 C 812.48 727.761 814.752 733.143 819.132 742.983 C 805.479 747.101 793.374 751.587 788.66 766.778 C 786.336 774.253 787.193 782.355 791.029 789.179 C 797.722 801.247 808.27 805.309 820.511 808.854 C 824.92 838.6 848.93 856.328 878.632 854.982 C 896.105 854.191 906.821 847.387 920.312 837.535 C 942.61 851.282 966.708 858.398 987.087 834.692 C 990.456 830.773 992.903 825.002 996.914 821.783 C 1000.13 822.978 1012.24 842.246 1017.98 845.859 C 1031.02 854.067 1069.61 864.246 1083.9 865.608 C 1090.6 866.27 1097.36 865.915 1103.95 864.553 C 1127.17 859.79 1139.52 846.778 1151.74 828.167 C 1156.98 828.551 1162.14 829.022 1167.38 828.47 C 1195.7 825.49 1214.93 800.683 1211.33 772.455 C 1209.62 758.534 1202.4 745.88 1191.28 737.328 C 1175.21 724.98 1160.81 725.386 1142.28 727.935 C 1136.52 713.553 1129.5 702.631 1116.73 693.335 C 1101.18 681.933 1081.69 677.289 1062.66 680.454 C 1036.92 684.666 1023.25 697.49 1008.7 717.548 C 960.527 698.119 942.004 728.906 933.23 727.52 C 931.098 721.994 933.74 720.213 938.103 716.931 C 959.073 701.157 982.419 701.098 1006.28 707.729 C 1014.85 696.643 1022.86 688.601 1035.35 681.822 C 1054.15 671.48 1076.29 669.064 1096.88 675.111 C 1121.23 682.342 1135.4 697.34 1147.24 718.989 C 1167.69 718.341 1184.85 720.557 1200.67 735.455 C 1212.32 746.457 1219.02 761.71 1219.24 777.734 C 1219.96 813.726 1193.32 835.693 1158.75 836.177 L 1156.61 836.053 C 1151.3 841.146 1146.24 849.347 1141.03 853.686 C 1119.4 871.692 1101.7 874.804 1074.89 872.618 C 1044.22 924.275 1034.07 975.304 1075.43 1023.77 L 1185.75 1023.79 C 1194.9 1023.78 1225.53 1020.79 1230 1027.83 C 1224.99 1033.81 1201.32 1031.26 1192.79 1031.36 C 1163.72 1031.65 1134.65 1031.65 1105.58 1031.38 L 857.404 1031.74 C 846.585 1031.73 770.035 1033.25 765.377 1029.61 C 764.643 1026.29 764.46 1027.55 765.814 1024.76 C 770.569 1021.99 913.487 1023.83 935.029 1023.87 C 953.076 993.342 960.815 962.416 962.299 927.331 C 950.695 925.908 939.334 922.937 928.518 918.499 C 917.481 913.865 877.669 889.565 883.784 875.679 C 892.644 872.925 930.156 909.315 976.826 891.086 C 972.707 877.203 969.356 869.935 962.735 856.989 C 944.942 859.322 936.036 855.459 921.202 846.97 C 879.142 874.702 830.773 867.038 813.84 815.604 L 813.255 815.371 C 799.689 809.879 788.579 802.862 782.797 788.59 C 778.985 779.206 779.14 768.678 783.226 759.41 C 788.494 747.573 797.2 742.474 808.534 737.995 C 807.834 734.875 806.742 728.969 807.051 725.96 C 810.597 691.388 838.792 685.793 865.042 697.795 C 874.146 670.618 892.385 655.304 920.343 650.25 z" fill="rgb(142,227,212)" transform="translate(0,0)"></path>
<path d="M 1008.15 847.467 C 1010.61 848.69 1012.85 850.713 1015.18 852.239 C 1026.31 859.548 1039.23 862.417 1051.96 865.756 C 1037.1 892.41 1010.48 942.209 1018.03 973.279 C 1020.28 975.831 1019.12 975.195 1022.32 975.79 L 1024.22 974.253 C 1025.63 969.33 1025.22 952.732 1025.35 947.88 C 1025.69 935.151 1052.01 875.071 1059.23 869.148 C 1062.71 869.386 1063.13 869.476 1066.16 871.197 C 1066.1 873.605 1060.51 884.962 1058.88 888.1 C 1038.01 928.423 1032.59 969.887 1056.11 1011.08 C 1058.76 1015.35 1062.51 1019.83 1065.66 1023.82 L 943.725 1023.87 C 960.493 991.241 970.327 958.355 969.656 921.32 C 936.033 912.279 928.006 915.83 898.616 889.963 C 918.108 898.326 934.489 905.227 956.271 903.567 C 988.871 901.082 1010.93 881.482 1008.15 847.467 z" fill="rgb(39,47,53)" transform="translate(0,0)"></path>
<path d="M 1000.43 918.404 C 1001.86 919.063 1002.78 919.984 1003.98 921.004 C 1004.88 927.696 991.992 945.32 989.125 952.733 C 982.998 968.575 979.535 983.752 981.633 1000.8 C 982.19 1005.32 983.685 1012.7 981.951 1016.9 L 978.054 1015.83 C 971.832 1010.25 973.272 994.841 973.897 987.148 C 975.833 963.293 985.614 937.241 1000.43 918.404 z" fill="rgb(142,227,212)" transform="translate(0,0)"></path>
<path d="M 997.586 834.782 C 1008.23 846.396 994.408 890.19 982.375 885.265 L 981.084 880.234 C 978.113 871.261 974.343 863.507 970.37 854.982 C 983.488 850.211 989.341 845.544 997.586 834.782 z" fill="rgb(39,47,53)" transform="translate(0,0)"></path>
<path d="M 189.457 990.321 C 224.61 991.453 266.59 990.363 302.111 990.292 L 475.74 990.447 L 545.58 990.253 C 553.024 990.238 589.175 989.051 592.968 992.669 C 595.44 1000.77 593.482 1015.66 594.037 1024.57 C 594.201 1027.2 592.403 1028.4 590.72 1029.65 L 329.789 1029.5 C 282.386 1029.53 234.353 1030.19 187.02 1029.72 C 186.827 1021.15 184.915 995.597 189.457 990.321 z" fill="rgb(142,227,212)" transform="translate(0,0)"></path>
<path d="M 195.027 999.061 L 585.647 998.928 L 585.571 1020.91 L 194.992 1021.11 L 195.027 999.061 z" fill="rgb(39,47,53)" transform="translate(0,0)"></path>
<path d="M 222.972 761.075 C 231.361 761.025 239.975 761.226 248.887 760.952 C 263.604 760.501 295.995 759.737 284.225 784.271 C 281.354 790.255 276.962 791.422 270.79 793.362 L 270.874 907.078 C 270.875 920.137 270.553 935.379 270.902 948.539 C 273.24 954.008 286.387 957.691 287.6 963.862 C 289.704 974.569 284.074 981.64 274.579 984.461 C 263.762 984.355 227.054 987.135 218.301 981.878 C 204.998 973.889 208.913 956.315 227.028 952.319 L 227.327 793.607 C 208.328 789.411 204.805 770.372 222.972 761.075 z" fill="rgb(142,227,212)" transform="translate(0,0)"></path>
<path d="M 235.605 793.01 L 262.371 792.911 L 262.136 952.82 L 235.705 952.762 L 235.605 793.01 z" fill="rgb(39,47,53)" transform="translate(0,0)"></path>
<path d="M 243.45 960.5 C 253.58 960.226 270.231 958.344 277.997 963.965 C 286.105 977.933 265.544 976.156 258.25 975.992 C 248.093 975.946 237.651 976.52 227.481 976.054 C 222.474 975.825 221.184 974.526 219.067 970.391 C 218.99 957.531 234.117 960.395 243.45 960.5 z" fill="rgb(39,47,53)" transform="translate(0,0)"></path>
<path d="M 223.874 769.428 C 234.208 769.264 244.652 768.994 254.983 769.011 C 262.446 769.022 278.343 767.915 279.101 777.707 C 277.735 781.379 276.649 781.999 273.714 784.41 C 261.408 784.623 229.615 786.963 221.004 781.425 C 217.533 776.226 218.823 772.858 223.874 769.428 z" fill="rgb(39,47,53)" transform="translate(0,0)"></path>
<path d="M 368.684 761.3 C 383.183 761.35 403.878 758.585 417.571 762.414 C 421.771 763.589 425.545 765.603 427.688 769.569 C 438.599 789.759 416.429 787.745 414.184 795.719 C 411.708 804.515 412.775 945.072 414.331 949.996 C 415.883 954.908 427.859 956.579 431.005 963.225 C 432.549 966.486 431.929 970.009 430.558 973.191 C 427.787 979.62 424.218 981.616 417.956 984.186 C 403.31 984.456 375.742 986.599 361.748 982.606 C 357.915 981.511 355.185 977.909 353.173 973.295 C 346.529 958.059 369.169 954.125 369.275 949.934 C 370.538 900.18 370.619 846.248 369.364 796.301 C 368.232 790.281 356.054 787.614 354.77 781.483 C 352.603 771.133 359.959 764.184 368.684 761.3 z" fill="rgb(142,227,212)" transform="translate(0,0)"></path>
<path d="M 378.439 793.477 L 404.966 793.45 L 405.015 952.894 L 378.735 952.876 L 378.439 793.477 z" fill="rgb(39,47,53)" transform="translate(0,0)"></path>
<path d="M 408.562 960.487 C 416.548 960.292 419.088 960.2 422.8 967.81 C 422.342 977.55 407.376 976.197 400.041 976.335 C 391.997 976.487 383.721 976.215 375.654 976.121 C 369.041 976.257 361.764 976.083 360.305 967.694 C 364.236 957.003 397.312 960.535 408.562 960.487 z" fill="rgb(39,47,53)" transform="translate(0,0)"></path>
<path d="M 368.848 769.368 C 377.593 769.159 424.248 765.807 422.639 778.422 C 420.056 781.857 419.662 782.426 416.047 784.767 C 403.568 784.582 372.973 787.737 364.51 781.197 C 361.682 775.777 363.714 772.211 368.848 769.368 z" fill="rgb(39,47,53)" transform="translate(0,0)"></path>
<path d="M 547.615 761.507 C 556.105 761.135 563.757 760.161 569.245 768.145 C 571.944 772.154 572.888 777.092 571.857 781.814 C 569.431 792.939 560.539 791.633 556.674 794.13 C 555.299 805.243 556.299 844.616 556.259 857.881 L 556.106 914.519 C 556.085 924.979 555.877 935.515 556.325 945.939 C 556.675 951.094 556.732 951.719 561.37 953.982 C 572.508 958.835 577.789 969.066 568.531 979.001 C 560.224 987.914 533.556 984.642 521.511 984.584 C 510.836 984.662 498.854 983.782 496.494 970.566 C 495.794 966.764 496.716 962.843 499.038 959.753 C 503.075 954.281 507.757 953.447 514.04 952.484 L 513.998 837.48 C 513.988 825.325 514.14 808.097 513.652 796.467 C 505.346 787.31 488.034 783.425 501.573 766.509 C 507.648 758.917 536.091 761.435 547.615 761.507 z" fill="rgb(142,227,212)" transform="translate(0,0)"></path>
<path d="M 522.108 793.719 L 548.053 793.578 L 547.81 952.905 L 522.15 952.911 L 522.108 793.719 z" fill="rgb(39,47,53)" transform="translate(0,0)"></path>
<path d="M 508.429 961.252 C 517.904 960.368 552.25 958.697 561.109 962.824 C 563.489 963.932 563.668 966.054 564.174 968.218 C 563.416 972.247 562.613 972.901 559.979 975.994 C 551.076 976.089 489.653 982.726 508.429 961.252 z" fill="rgb(39,47,53)" transform="translate(0,0)"></path>
<path d="M 509.549 770.017 C 522.458 769.847 536.247 769.476 549.209 769.734 C 555.454 769.858 563.237 770.558 564.584 777.697 C 563.622 781.571 562.868 782.037 559.978 784.553 C 552.237 785.424 517.252 786.42 509.549 782.966 C 507.042 781.842 506.654 779.96 505.954 777.749 C 506.376 773.736 507.064 773.14 509.549 770.017 z" fill="rgb(39,47,53)" transform="translate(0,0)"></path>
<path d="M 1805.56 360.31 C 1808.63 361.441 1807.65 360.636 1809.36 363.244 C 1810.62 371.33 1785 420.324 1779.78 431.589 C 1768.67 431.735 1699.51 433.041 1693.82 430.251 C 1694.92 425.644 1697.14 419.367 1699.34 415.256 C 1706.89 401.238 1719.73 390.818 1735 386.316 C 1752.11 381.188 1769.18 384.146 1784.63 392.54 L 1805.56 360.31 z" fill="rgb(128,220,195)" transform="translate(0,0)"></path>
<path d="M 890.756 342.062 C 893.577 342.713 892.381 342.074 894.492 344.025 C 894.203 344.849 893.276 347.483 893.531 347.925 C 897.147 354.206 919.982 373.462 924.939 378.001 C 928.1 375.492 931.298 372.007 935.36 373.619 C 935.364 379.612 929.694 383.785 925.602 387.668 C 923.544 407.066 917.903 422.338 905.348 437.284 C 900.541 443.006 884.696 464.432 877.111 457.434 C 875.436 453.996 876.321 450.395 876.773 446.512 C 869.81 452.86 825.542 493.577 820.528 496.073 C 817.104 496.133 818.41 496.606 815.686 494.135 C 815.429 492.919 814.57 490.908 815.977 489.611 C 835.892 471.271 858.822 449.356 880.448 433.538 C 881.218 432.974 882.595 434.233 883.651 434.912 C 885.729 438.074 885.244 442.87 885.247 446.8 C 900.308 430.509 912.297 417.571 916.755 395.16 C 917.028 391.716 917.865 387.294 918.43 383.805 C 909.415 375.834 887.91 351.899 876.215 353.8 C 855.465 357.174 836.075 380.984 823.121 396.26 C 828.825 395.853 835.438 393.805 839.408 398.209 C 837.554 405.103 796.527 469.628 791.503 472.719 C 788.142 472.505 789.457 472.986 786.558 470.377 C 785.113 463.521 794.686 453.325 798.915 447.098 C 808.539 433.133 817.873 418.969 826.91 404.617 C 820.233 405.034 814.884 406.434 809.996 402.314 L 809.852 400.27 C 814.36 387.301 848.666 355.299 862.016 349.1 C 869.782 345.494 883.333 346.592 890.756 342.062 z" fill="rgb(142,227,212)" transform="translate(0,0)"></path>
<path d="M 977.896 599.327 C 979.756 599.101 981.626 598.958 983.498 598.896 C 1007.58 597.999 1027.34 604.514 1045.1 621.06 C 1048.78 618.979 1052.97 616.487 1056.79 614.756 C 1077.12 605.331 1100.39 604.537 1121.31 612.557 C 1145.63 621.832 1157.41 637.103 1167.57 659.779 C 1233.25 663.442 1231.95 730.923 1219.59 733.333 C 1216.18 730.599 1215.86 730.141 1216.93 725.632 C 1220.27 711.513 1219.05 704.89 1212.27 691.668 C 1209.61 687.683 1206.5 684.019 1203 680.751 C 1190.37 669.129 1178.49 667.4 1162.32 667.989 C 1159.52 660.754 1157.31 654.56 1153.31 647.953 C 1136.28 619.841 1100.68 608.707 1069.89 618.119 C 1059.85 621.188 1053.05 625.54 1044.22 631.005 C 1019.22 606.873 992.958 598.898 958.219 612.705 C 952.688 614.903 944.054 622.196 938.523 621.595 C 935.987 619.725 936.66 620.74 935.887 617.832 C 939.991 608.92 968.065 600.79 977.896 599.327 z" fill="rgb(142,227,212)" transform="translate(0,0)"></path>
<path d="M 1746.75 302.424 C 1755.75 301.914 1766.11 302.595 1774.97 304.247 C 1782.58 305.666 1819.23 313.81 1817.41 323.068 C 1813.02 327.129 1808.14 323.388 1802.82 321.1 C 1742.47 295.133 1678.17 319.097 1643.93 373.277 C 1636.04 386.584 1631.29 400.219 1628.23 415.513 C 1627.18 420.738 1628.31 427.125 1626.19 431.71 C 1623.07 433.783 1624.09 433.787 1620.99 433.653 C 1619.89 432.176 1619.23 431.02 1619.18 429.116 C 1618.44 402.733 1632.74 370.612 1649.36 351.364 C 1675.96 320.567 1707.48 306.082 1746.75 302.424 z" fill="rgb(142,227,212)" transform="translate(0,0)"></path>
<path d="M 1982.13 36.3955 L 1983.62 37.5611 C 1985.83 44.2924 1984.08 148.213 1984.08 164.198 L 1984.07 613.5 L 1984.22 948.491 L 1984.22 1057.68 C 1984.21 1076.26 1984.91 1099.3 1983.91 1117.47 C 1982.32 1115.28 1982.33 1112.53 1982.33 1109.78 C 1982.25 1051.65 1982.06 993.424 1982.2 935.302 L 1982.22 679.667 L 1982.13 36.3955 z" fill="rgb(79,107,101)" transform="translate(0,0)"></path>
<path d="M 61.9845 36.5199 L 63.0937 37.3628 C 66.3226 43.7871 62.8844 669.425 63.2695 751.225 L 63.9575 996.712 L 64.114 1072.67 C 64.1366 1085.35 64.697 1104.01 63.5412 1116.18 C 61.7847 1114.01 61.9686 1114.39 61.9591 1110.97 C 61.9017 1090.39 61.9153 1069.76 61.9079 1049.19 L 61.8665 925.377 L 61.7521 593.12 L 61.9845 36.5199 z" fill="rgb(79,107,101)" transform="translate(0,0)"></path>
<path d="M 1742.66 321.395 C 1745.34 321.144 1748.03 320.991 1750.73 320.936 C 1761.66 320.727 1809.02 326.736 1808.98 339.748 C 1808.34 340.279 1807.58 340.906 1806.71 341.629 C 1801.25 341.238 1793.32 337.156 1788.09 335.263 C 1740.64 318.091 1692.2 337.605 1663.59 377.195 C 1655.09 389.885 1648.38 405.459 1647.46 420.895 C 1647.26 424.349 1646.88 427.113 1646.17 430.497 C 1644.51 432.784 1644.36 432.773 1641.58 433.704 L 1639.9 432.652 C 1632.39 415.86 1651.68 377.522 1663.1 363.987 C 1684.22 338.956 1710.23 324.775 1742.66 321.395 z" fill="rgb(142,227,212)" transform="translate(0,0)"></path>
<path d="M 1175.6 930.326 C 1184.52 931.377 1183.04 940.794 1184.68 948.808 C 1187.92 964.617 1214.32 960.479 1216.22 967.463 C 1207.82 980.409 1189.64 960.038 1181.35 1004.5 C 1169.03 1005.34 1174.87 990.225 1167.95 981.63 C 1161.56 973.691 1146.56 973.436 1142.59 968.481 C 1144.55 963.403 1155.68 962.545 1161.61 959.412 C 1174.01 952.866 1171.55 941.723 1175.6 930.326 z" fill="rgb(142,227,212)" transform="translate(0,0)"></path>
<path d="M 1178.24 954.774 C 1182.8 961.681 1185.68 963.628 1192.77 967.953 C 1185.29 972.768 1182.6 975.099 1177.98 982.673 C 1172.83 973.485 1172.09 973.141 1162.55 968.361 C 1171.5 963.518 1172.19 963.96 1178.24 954.774 z" fill="rgb(39,47,53)" transform="translate(0,0)"></path>
<path d="M 848.809 933.279 C 857.672 936.322 853.358 945.633 862.811 952.026 C 868.387 955.797 876.563 955.924 879.497 959.3 C 877.462 966.126 862.616 968.66 858.547 973.404 C 855.022 977.514 855.7 985.005 850.301 989.735 C 843.593 984.641 845.781 977.424 838.826 971.183 C 832.528 965.531 825.256 966.789 819.717 963.116 C 820.054 956.763 836.298 952.656 840.533 949.618 C 843.798 947.276 844.482 938.093 848.809 933.279 z" fill="rgb(142,227,212)" transform="translate(0,0)"></path>
<path d="M 849.767 950.681 C 855.234 956.305 854.699 956.282 861.756 960.736 C 856.342 963.717 853.938 966.275 850.551 971.274 L 850.247 971.345 C 849.908 971.177 841.992 962.558 840.236 961.025 C 844.834 956.951 846.229 955.658 849.767 950.681 z" fill="rgb(39,47,53)" transform="translate(0,0)"></path>
<path d="M 1568.98 1059.18 C 1578.74 1061.43 1571.59 1065.41 1574.77 1070.91 C 1576.02 1070.91 1577.15 1070.84 1578.38 1070.62 C 1581.38 1070.08 1583.72 1069.51 1586.34 1071.53 C 1588.82 1073.43 1590.19 1075.95 1590.65 1079.01 C 1591.31 1083.42 1591.68 1091.5 1588.83 1095.17 C 1586.95 1097.58 1586.02 1097.92 1583.16 1098.31 C 1577.62 1099.08 1546.01 1100.4 1542.85 1097.66 C 1540.61 1095.72 1540.65 1092.06 1540.39 1089.32 C 1546.07 1081.32 1554.51 1085.35 1555.54 1078.37 C 1551.72 1075.15 1548.22 1077.4 1543 1074.35 C 1544.78 1070.75 1551.96 1068.57 1556.01 1070.3 C 1561.45 1075.33 1560.9 1085.75 1561.5 1093.35 C 1564.41 1095.45 1566.25 1095.13 1568.79 1093.1 C 1569.61 1086.63 1569.02 1066.63 1568.98 1059.18 z" fill="rgb(254,254,254)" transform="translate(0,0)"></path>
<path d="M 1576.47 1074.43 C 1588.52 1075.07 1586.88 1086.06 1583.52 1094.35 C 1570.85 1094.67 1571.78 1082.08 1576.47 1074.43 z" fill="rgb(39,47,53)" transform="translate(0,0)"></path>
<path d="M 1551.02 1086.38 C 1554.5 1087.24 1554.78 1087.47 1555.88 1090.45 C 1555.18 1093.66 1553.94 1094.35 1551.49 1096.43 C 1547.63 1094.4 1548.05 1095.35 1546.27 1092 C 1547.52 1088.55 1547.86 1089.07 1551.02 1086.38 z" fill="rgb(39,47,53)" transform="translate(0,0)"></path>
<path d="M 864.682 873.381 C 865.723 873.294 866.983 873.604 868.06 873.786 C 869.715 876.226 869.457 875.029 868.976 878.027 C 865.653 881.366 850.021 883.753 844.501 885.546 C 828.977 890.272 812.422 903.765 805.19 918.341 C 794.958 938.965 794.889 949.443 770.449 955.964 C 768.647 956.046 767.867 955.446 766.26 954.63 L 765.748 952.78 C 768.053 947.692 786.65 941.785 787.923 938.173 C 800.93 901.255 821.969 878.859 864.682 873.381 z" fill="rgb(142,227,212)" transform="translate(0,0)"></path>
<path d="M 334.069 1058.14 C 340.118 1058.96 344.482 1060.98 346.02 1067.22 C 349.243 1080.3 348.87 1093.27 334.716 1097.72 C 325.968 1096.64 321.089 1092.44 319.93 1083.87 C 318.134 1070.58 319.717 1060.3 334.069 1058.14 z" fill="rgb(254,254,254)" transform="translate(0,0)"></path>
<path d="M 330.519 1063.14 C 330.958 1063.14 331.397 1063.15 331.835 1063.17 C 343.409 1063.68 341.465 1078.06 340.086 1086.08 C 339.45 1089.78 338.035 1090.34 335.426 1092.53 C 324.887 1089.88 325.088 1084.05 325.718 1073.71 C 326.012 1068.89 326.946 1066.53 330.519 1063.14 z" fill="rgb(39,47,53)" transform="translate(0,0)"></path>
<path d="M 823.329 451.598 C 827.44 453.144 828.479 453.786 828.452 457.927 C 826.292 460.942 824.215 463.194 821.618 465.84 C 803.33 484.473 785.393 503.659 766.704 521.879 C 763.636 521.317 762.643 520.349 761.111 517.987 C 762.19 510.715 799.607 477.841 806.557 468.391 C 808.877 465.238 820.257 454.187 823.329 451.598 z" fill="rgb(142,227,212)" transform="translate(0,0)"></path>
<path d="M 1222.62 846.286 C 1224.13 846.658 1227.92 848.07 1227.57 849.769 C 1223.35 870.019 1205.96 887.217 1185.27 888.24 C 1164.85 889.25 1154.53 886.774 1142.2 903.12 C 1139.52 901.932 1139.22 901.946 1137.67 899.61 C 1137.7 898.815 1137.69 897.918 1138.08 897.209 C 1150.25 875.166 1173.17 884.931 1191.63 879.873 C 1209.97 874.845 1214.84 861.456 1222.62 846.286 z" fill="rgb(142,227,212)" transform="translate(0,0)"></path>
<path d="M 789.452 848.451 C 797.451 848.247 804.192 854.378 804.745 862.36 C 805.298 870.343 799.467 877.345 791.517 878.246 C 786.056 878.865 780.696 876.437 777.559 871.924 C 774.422 867.411 774.015 861.541 776.499 856.638 C 778.983 851.735 783.958 848.591 789.452 848.451 z" fill="rgb(142,227,212)" transform="translate(0,0)"></path>
<path d="M 786.908 857.616 C 789.048 856.537 791.605 856.71 793.581 858.065 C 795.557 859.421 796.638 861.744 796.402 864.129 C 796.166 866.513 794.651 868.58 792.448 869.523 C 789.186 870.918 785.405 869.471 783.908 866.254 C 782.411 863.037 783.739 859.212 786.908 857.616 z" fill="rgb(39,47,53)" transform="translate(0,0)"></path>
<path d="M 364.576 1068.46 C 378.911 1064.49 387.306 1098.3 359.982 1096.29 C 360.017 1100.55 360.207 1101.85 358.715 1105.87 L 356.63 1106.31 C 353.291 1101.29 353.092 1076.87 354.579 1070.59 L 356.109 1069.72 C 359.868 1069.91 361.041 1069.75 364.576 1068.46 z" fill="rgb(254,254,254)" transform="translate(0,0)"></path>
<path d="M 362.59 1072.53 C 374.396 1072.89 374.265 1084.08 369.044 1091.57 C 366.075 1091.86 364.104 1092.44 361.578 1091.04 C 357.821 1085.71 358.124 1077.16 362.59 1072.53 z" fill="rgb(39,47,53)" transform="translate(0,0)"></path>
<path d="M 402.45 485.9 C 414.603 485.983 415.463 504.147 409.751 511.58 C 406.111 516.316 402.315 513.303 397.663 513.779 L 397.997 515.999 C 397.672 518.991 397.708 522.606 394.239 523.159 C 390.637 518.964 391.363 494.065 392.469 487.97 C 392.701 486.698 398.017 488.228 398.984 487.846 C 399.899 487.484 401.535 486.414 402.45 485.9 z" fill="rgb(254,254,254)" transform="translate(0,0)"></path>
<path d="M 399.303 491.436 C 402.397 491.56 402.894 491.385 405.419 492.943 C 409.146 498.66 408.245 505.028 404.061 510.227 L 399.579 508.761 C 394.9 504.543 396.543 496.31 399.303 491.436 z" fill="rgb(39,47,53)" transform="translate(0,0)"></path>
<path d="M 1058.06 484.949 C 1058.86 485.216 1063.97 487.351 1063.89 487.365 C 1078.48 484.925 1082.78 489.617 1081.11 504.033 C 1080.75 507.197 1081.07 510.144 1079.83 513.538 C 1076.77 514.312 1077.92 514.484 1075.32 513.29 C 1075.35 510.543 1075.34 507.796 1075.3 505.049 C 1075.2 499.943 1075.7 493.549 1072.13 490.096 C 1064.84 492.292 1066.71 504.148 1066.82 510.25 C 1067.16 513.034 1065.6 513.629 1063.56 514.386 C 1057.98 509.76 1063.29 502.032 1060.99 493.524 C 1059.26 491.09 1059.15 490.523 1056.48 489.616 C 1050.27 494.965 1054.54 508.525 1049.51 514.258 L 1047.78 513.569 C 1046.55 510.241 1046.36 488.765 1047.91 485.905 L 1049.71 485.578 L 1052.57 487.581 L 1058.06 484.949 z" fill="rgb(254,254,254)" transform="translate(0,0)"></path>
<path d="M 872.106 475.478 C 874.965 475.72 877.176 475.812 878.476 478.67 C 881.93 486.266 889.759 505.548 887.962 513.396 L 886.606 513.713 C 883.277 511.327 882.645 508.117 881.289 504.204 L 870.905 504.318 C 867.956 506.428 868.204 508.392 867.281 512.55 C 864.891 514.292 865.926 513.825 862.382 513.636 C 861.373 509.946 870.435 482.028 872.106 475.478 z" fill="rgb(254,254,254)" transform="translate(0,0)"></path>
<path d="M 1459.11 471.985 C 1464.73 472.214 1472.19 471.822 1472.7 478.473 C 1469.89 481.274 1460.15 474.815 1456.27 481.424 C 1459.59 488.38 1472.06 490.162 1475.59 500.754 C 1474.67 508.431 1468.29 509.867 1461.47 510.901 C 1456.98 509.986 1452.76 509.562 1450.06 506.026 L 1451.08 502.047 C 1454.75 500.551 1460.4 508.707 1468.05 501.991 C 1468.3 494.651 1431.69 483.85 1459.11 471.985 z" fill="rgb(254,254,254)" transform="translate(0,0)"></path>
<path d="M 1029.09 485.104 C 1036.03 485.822 1043.16 490.36 1042.36 498.02 C 1037.67 504.935 1029.33 500.833 1024.54 504.655 C 1028.18 511.277 1034.14 509.031 1039.85 507.65 L 1040.43 509.989 C 1032.01 527.806 999.687 495.046 1029.09 485.104 z" fill="rgb(254,254,254)" transform="translate(0,0)"></path>
<path d="M 1030.08 489.57 C 1033.31 490.867 1035 492.097 1035.89 495.515 C 1034.5 498.028 1035.28 497.204 1031.79 498.284 C 1027.95 498.09 1026.26 498.687 1024.32 495.482 C 1025.35 492.464 1027.49 491.391 1030.08 489.57 z" fill="rgb(39,47,53)" transform="translate(0,0)"></path>
<path d="M 930.9 476.126 C 935.266 476.073 941.707 476.697 944.465 480.315 L 943.826 482.657 C 939.187 485.164 934.942 479.264 928.101 484.212 C 927.581 491.681 965.705 504.911 934.613 514.773 C 929.668 513.97 924.601 513.697 921.519 509.556 C 922.077 506.771 921.443 507.934 923.512 505.96 C 930.343 506.791 930.765 511.269 938.169 506.658 C 939.962 498.21 904.866 488.874 930.9 476.126 z" fill="rgb(254,254,254)" transform="translate(0,0)"></path>
<path d="M 435.775 1068.14 C 439.812 1067.94 444.28 1067.21 447.373 1070.37 C 452.382 1075.49 454.145 1090.79 449.422 1096.1 C 443.061 1096.35 438.57 1097.53 432.628 1096.37 C 422.78 1081.17 438.432 1082.65 445.115 1077.58 L 444.893 1075.64 C 439.306 1070.42 435.216 1075.67 430.529 1072.38 C 431.6 1070.35 433.762 1069.38 435.775 1068.14 z" fill="rgb(254,254,254)" transform="translate(0,0)"></path>
<path d="M 437.155 1083.86 C 441.342 1083.79 443.223 1083.33 445.672 1086.62 C 445.469 1089.64 444.843 1090.27 443.137 1092.83 C 439.002 1092.91 438.223 1092.6 435.595 1090.4 C 435.147 1086.51 435.196 1087.75 437.155 1083.86 z" fill="rgb(39,47,53)" transform="translate(0,0)"></path>
<path d="M 1506.25 483.234 C 1510.67 482.907 1516.33 481.958 1519.4 486.042 C 1524.31 492.571 1524.31 501.466 1523.34 509.196 C 1519.89 512.331 1519.8 509.892 1516.56 507.884 C 1516.6 507.907 1514.23 509.184 1514.06 509.281 C 1510.99 511.097 1509.18 511.19 1505.73 511.181 C 1502.3 508.069 1500.66 505.627 1501.01 500.9 C 1503.16 495.084 1511.49 494.199 1516.5 491.324 L 1515.16 489.063 C 1513.19 488.222 1506.51 488.967 1502.46 488.215 L 1501.65 486.835 C 1502.49 485.514 1504.83 484.177 1506.25 483.234 z" fill="rgb(254,254,254)" transform="translate(0,0)"></path>
<path d="M 1509.26 498.141 C 1512.94 498.087 1513.73 497.442 1516.42 499.153 C 1516.2 502.491 1515.38 502.704 1513.39 505.742 C 1509.31 505.421 1509.52 505.606 1507.03 503.499 C 1506.99 500.179 1506.72 501.482 1509.26 498.141 z" fill="rgb(39,47,53)" transform="translate(0,0)"></path>
<path d="M 487.064 1068.15 L 487.809 1068.24 C 494.351 1069.13 501.638 1074.24 500.578 1081.3 C 496.579 1085.57 488.756 1085.09 482.793 1085.45 L 482.666 1087.09 C 486.457 1094.13 489.793 1092.62 496.679 1090.39 C 498.176 1093.34 498.23 1092.33 497.496 1094.82 C 476.513 1106.67 467.252 1073.76 487.064 1068.15 z" fill="rgb(254,254,254)" transform="translate(0,0)"></path>
<path d="M 484.602 1072.74 C 488.479 1072.8 490.607 1073.11 493.357 1075.83 C 493.979 1078.74 494.064 1077.53 492.818 1080.33 C 489.472 1080.38 485.683 1080.91 483.039 1079.25 C 482.487 1076.12 483.177 1076.01 484.602 1072.74 z" fill="rgb(39,47,53)" transform="translate(0,0)"></path>
<path d="M 390.898 1067.95 C 399.069 1068.27 406.135 1072.58 405.758 1081.54 C 402.618 1086.39 396.054 1083.29 388.725 1085.25 L 388.033 1086.62 C 389.79 1093.51 394.852 1092.11 400.783 1091.44 L 401.887 1091.47 L 402.893 1092.79 L 401.617 1094.78 C 398.188 1096.92 393.7 1097.53 389.792 1096.85 C 380.832 1095.29 381.721 1082.94 383.03 1076.42 C 383.947 1071.85 387.356 1069.98 390.898 1067.95 z" fill="rgb(254,254,254)" transform="translate(0,0)"></path>
<path d="M 390.779 1072.47 C 394.5 1072.52 396.962 1073.19 399.18 1076.33 C 399.321 1079.21 399.704 1077.94 398.025 1080.26 C 394.763 1080.3 391.15 1080.82 388.627 1079.14 C 388.333 1075.8 389.036 1075.77 390.779 1072.47 z" fill="rgb(39,47,53)" transform="translate(0,0)"></path>
<path d="M 1550.88 482.981 C 1558.21 482.78 1568.56 486.733 1567.39 495.109 C 1560.02 503.304 1553.07 494.35 1548.99 500.053 C 1550.63 503.664 1549.61 502.401 1553.03 504.743 C 1557.22 505.43 1558.55 504.792 1562.62 503.603 C 1562.97 503.954 1564.2 505.752 1564.58 506.27 L 1563.65 508.324 C 1550.97 514.931 1528.27 499.048 1550.88 482.981 z" fill="rgb(254,254,254)" transform="translate(0,0)"></path>
<path d="M 1550.61 487.822 C 1554 487.609 1554.96 487.405 1558.21 488.755 C 1560.22 491.628 1559.79 490.275 1559.73 493.896 C 1556.37 494.041 1553.75 494.356 1550.46 493.595 L 1549.42 491.7 L 1550.61 487.822 z" fill="rgb(39,47,53)" transform="translate(0,0)"></path>
<path d="M 963.29 766.129 C 966.189 766.09 967.139 766.979 968.269 769.309 C 965.86 772.788 958.196 772.567 952.436 777.838 C 948.569 780.348 944.739 789.734 941.007 791.586 C 937.743 793.205 931.975 790.513 927.364 793.244 C 927.061 796.02 927.106 797.87 927.136 800.624 C 920.29 800.393 917.309 797.257 919.107 790.177 C 923.973 784.305 935.485 785.719 937.198 783.935 C 947.884 772.804 946.422 769.729 963.29 766.129 z" fill="rgb(142,227,212)" transform="translate(0,0)"></path>
<path d="M 884.281 745.117 C 887.506 744.898 891.245 744.248 893.065 747.223 C 890.233 751.129 880.779 754.035 876.797 757.023 C 874.784 758.534 871.283 766.557 869.343 768.557 C 865.697 772.317 861.464 769.036 856.148 769.358 C 853.299 772.396 854.141 771.893 853.412 776.764 C 851.209 777.536 851.067 777.423 848.705 776.916 C 845.814 774.465 846.617 775.711 845.486 772.267 C 846.825 762.73 856.175 761.751 863.858 762.47 C 870.126 752.915 873.873 749.347 884.281 745.117 z" fill="rgb(142,227,212)" transform="translate(0,0)"></path>
<path d="M 328.725 477.011 C 333.294 476.805 340.617 477.03 343.393 481.302 C 340.717 482.987 331.453 481.539 327.018 485.547 C 325.709 493.776 362.671 503.018 334.975 515.292 C 330.665 515.521 323.329 514.942 321.026 510.968 L 322.045 508.937 C 328.691 506.902 330.828 513.643 337.74 507.443 C 338.667 497.489 304.488 490.987 328.725 477.011 z" fill="rgb(254,254,254)" transform="translate(0,0)"></path>
<path d="M 349.443 475.25 C 351.926 475.273 352.013 475.279 354.251 476.288 C 356.546 481.234 352.232 485.209 356.418 488.052 C 357.425 487.709 362.015 486.15 362.706 486.166 C 374.618 486.436 371.405 508.52 366.905 514.463 L 365.524 514.063 C 364.704 508.77 364.93 501.338 364.917 495.83 L 363.843 492.615 C 361.594 490.972 361.29 490.736 358.529 490.756 C 351.738 496.819 358.463 510.153 352.403 514.282 L 349.989 513.13 C 348.228 506.404 349.265 483.348 349.443 475.25 z" fill="rgb(254,254,254)" transform="translate(0,0)"></path>
<path d="M 963.987 1069.48 C 976.502 1071.28 965.281 1086.92 972.439 1094.47 C 987.672 1100.02 978.926 1076.7 983.522 1070.22 C 986.459 1069.78 985.33 1069.53 987.751 1070.96 L 987.982 1075.75 C 988.029 1080.91 988.659 1095.47 986.895 1099.48 C 984.571 1099.38 983.325 1098.57 981.158 1097.59 C 960.885 1110.02 963.798 1080.28 963.987 1069.48 z" fill="rgb(254,254,254)" transform="translate(0,0)"></path>
<path d="M 960.745 504.733 C 962.929 496.328 963.495 492.94 968.311 485.738 L 969.935 485.595 C 971.42 491.021 967.007 501.78 965.119 507.228 C 962.751 514.816 960.448 526.435 949.569 523.611 C 948.008 518.957 953.227 520.822 955.409 514.696 C 958.273 506.659 950.581 492.837 946.708 485.563 C 949.676 485.588 950.451 485.465 953.094 486.743 C 957.126 491.635 958.654 498.495 960.745 504.733 z" fill="rgb(254,254,254)" transform="translate(0,0)"></path>
<path d="M 1004.33 1068.96 C 1008.39 1069.55 1013.14 1069.92 1015.72 1073.21 L 1015.37 1075.44 C 1009.8 1077.89 1006.84 1072.28 1001.04 1076.78 C 1003.06 1081.24 1012.28 1083.08 1016.85 1090.77 C 1017.3 1097.99 1012.15 1099.51 1006.11 1101.19 C 1004.88 1100.99 1003.64 1100.78 1002.41 1100.56 C 997.829 1099.72 997.324 1099.52 994.999 1096.15 L 995.4 1094.26 C 1001.13 1091.38 1004.79 1098.94 1009.99 1093.45 C 1008.63 1088.98 999.777 1086.51 995.255 1080.02 C 994.212 1072.91 998.335 1071.18 1004.33 1068.96 z" fill="rgb(254,254,254)" transform="translate(0,0)"></path>
<path d="M 903.525 1060.09 C 910.45 1059.93 929.431 1058.95 934.763 1060.82 C 935.352 1063.65 935.545 1062.56 934.278 1064.93 C 931.116 1066.21 926.353 1065.26 922.761 1064.87 L 922.772 1087.5 C 923.016 1094.08 924.109 1096.17 920.267 1100.48 L 918.707 1099.57 C 915.778 1092 916.844 1074.05 916.995 1065.22 C 909.48 1065.47 905.313 1067.74 903.525 1060.09 z" fill="rgb(254,254,254)" transform="translate(0,0)"></path>
<path d="M 981.866 485.02 C 986.763 484.831 992.32 485.048 994.674 490.088 C 993.514 490.813 985.076 490.777 982.05 491.179 L 981.143 492.553 C 983.147 496.541 992.11 499.204 995.542 505.003 C 996.24 511.836 991.131 513.326 985.438 515.091 L 984.317 514.853 C 980.484 514.021 976.376 512.947 974.107 509.432 C 977.536 507.268 985.114 510.304 989.454 507.642 C 987.307 502.011 975.6 502.032 975.686 491.652 C 977.332 487.87 978.491 487.364 981.866 485.02 z" fill="rgb(254,254,254)" transform="translate(0,0)"></path>
<path d="M 1092.77 485.053 C 1097.03 485.12 1102.2 485.093 1105.14 488.634 C 1103.13 495.065 1097.49 488.208 1092.51 491.878 C 1092.3 495.444 1102.26 498.228 1106.86 504.972 C 1107.56 508.722 1107.81 507.395 1106.44 510.386 C 1103.03 513.245 1102.55 513.537 1098.26 514.689 C 1093.69 514.331 1089.68 514.137 1086.51 510.784 L 1087.04 508.315 C 1092.38 506.393 1094.45 511.414 1100.55 508.432 L 1101.08 506.405 C 1096.92 500.237 1076.11 498.247 1092.77 485.053 z" fill="rgb(254,254,254)" transform="translate(0,0)"></path>
<path d="M 1100.09 749.084 C 1103.22 748.925 1107.45 748.312 1109.8 750.156 C 1108.16 753.458 1099.23 756.18 1095.85 759.256 C 1093.25 761.634 1089.96 769.014 1087.78 770.64 C 1085.46 772.369 1084.33 770.407 1081.31 774.926 C 1080.27 776.723 1079.67 777.506 1078.39 779.148 L 1075.77 779.143 L 1074.05 777.326 C 1073.24 774.339 1073.54 773.832 1074.67 770.899 C 1082.84 763.185 1090.8 752.976 1100.09 749.084 z" fill="rgb(142,227,212)" transform="translate(0,0)"></path>
<path d="M 1024.92 1061.37 C 1033.15 1062.86 1027.41 1065.02 1031.11 1069.99 L 1035.95 1070.34 L 1036.9 1072.07 C 1027.42 1080.6 1022.76 1091.48 1038.26 1096.43 L 1036.57 1099.46 C 1033.34 1101.14 1029.57 1100.11 1026.71 1098.19 C 1019.61 1089.35 1028.63 1080.07 1020.95 1073.55 L 1021.19 1071.02 L 1023.78 1069.75 C 1025.4 1067.22 1024.84 1064.84 1024.92 1061.37 z" fill="rgb(254,254,254)" transform="translate(0,0)"></path>
<path d="M 1484.96 483.068 C 1486.45 482.991 1487.95 482.952 1489.45 482.953 C 1493.66 482.975 1494.62 483.706 1497.6 486.683 C 1496.8 489.796 1489.82 486.607 1484.42 492.439 C 1482.12 497.222 1483.15 501.881 1487.58 504.833 C 1491.2 505.465 1492.28 504.812 1495.6 503.513 L 1497.38 505.176 C 1497.45 509.44 1492.29 510.983 1488.94 510.518 C 1473.26 508.343 1475.34 491.017 1484.96 483.068 z" fill="rgb(254,254,254)" transform="translate(0,0)"></path>
<path d="M 459.799 1062.24 C 466.722 1062.85 462.774 1063.76 466.082 1067.9 C 469.749 1068.1 471.331 1067.66 472.654 1071.25 C 470.971 1073.53 467.409 1072.38 465.253 1074.83 C 463.482 1097.98 468.389 1087.13 474.269 1095.6 C 470.584 1097.18 466.303 1098.2 462.721 1095.94 C 457.968 1090.8 460.819 1081.29 459.376 1073.82 C 457.47 1073.15 457.287 1073.15 455.527 1071.99 C 455.929 1068.85 456.437 1069.34 459.427 1066.84 L 459.799 1062.24 z" fill="rgb(254,254,254)" transform="translate(0,0)"></path>
<path d="M 1003.66 479.896 C 1005.7 479.556 1005.56 479.608 1007.51 480.359 C 1007.79 482.846 1007.73 483.347 1008.83 485.538 L 1012.88 486.525 L 1013.53 489.001 C 1008.94 492.311 1005.08 497.606 1007.34 503.439 C 1009.59 509.221 1010.5 508.722 1015.65 511.178 C 1014.83 513.098 1014.7 513.015 1013.04 514.157 C 1009.63 514.387 1008.52 514.654 1005.37 513.066 C 997.778 505.572 1006.75 494.812 999.121 490.091 L 998.907 487.494 C 1001.85 484.648 1002.57 483.889 1003.66 479.896 z" fill="rgb(254,254,254)" transform="translate(0,0)"></path>
<path d="M 1527.08 471.268 C 1544.02 471.038 1532.56 491.036 1535.95 501.525 C 1537.81 507.269 1539.4 503.638 1540.84 510.545 C 1528.63 510.412 1529.05 503.953 1529.3 493.536 C 1529.42 488.311 1529.62 483.876 1529.38 478.623 C 1527.28 475.575 1526.85 475.072 1527.08 471.268 z" fill="rgb(254,254,254)" transform="translate(0,0)"></path>
<path d="M 939.286 1069.23 L 942.352 1070.16 C 943.229 1071.94 943.127 1072.02 944.872 1073.11 C 949.948 1070.7 951.901 1068.16 957.903 1070.85 L 957.711 1072.42 C 952.673 1077.94 950.146 1074.3 945.199 1080.34 L 944.607 1081.08 C 944.364 1085.51 945.268 1096.54 941.116 1098.49 C 937.682 1092.34 938.685 1076.49 939.286 1069.23 z" fill="rgb(254,254,254)" transform="translate(0,0)"></path>
<path d="M 893.655 475.365 C 896.064 475.621 896.438 475.552 898.553 476.624 C 901.194 482.339 899.669 505.514 899.454 513.75 C 897.826 513.916 896.874 513.64 895.29 513.344 C 892.534 508.997 893.65 482.824 893.655 475.365 z" fill="rgb(254,254,254)" transform="translate(0,0)"></path>
<path d="M 1530.5 1060.37 C 1532.64 1060.8 1533.18 1061.08 1535.2 1061.97 C 1536.66 1066.04 1535.48 1085.72 1536.29 1091.2 C 1536.76 1094.43 1537.75 1096.32 1538.41 1099.79 C 1535.32 1099.66 1534.66 1099.88 1532.3 1098.15 C 1528.26 1091.45 1530.2 1069.63 1530.5 1060.37 z" fill="rgb(254,254,254)" transform="translate(0,0)"></path>
<path d="M 420.762 1067.81 C 423.675 1068.4 424.486 1068.4 426.635 1070.38 C 425.894 1072.52 419.337 1074.97 416.61 1076.32 C 415.333 1079.6 415.749 1092.74 415.628 1097.61 C 413.892 1097.25 413.032 1096.86 411.422 1096.22 C 409.362 1091.82 409.22 1077.01 410.28 1071.89 C 411.305 1066.95 412.405 1072.71 420.762 1067.81 z" fill="rgb(254,254,254)" transform="translate(0,0)"></path>
<path d="M 1141.26 782.05 C 1145.77 781.939 1146.57 781.86 1150.84 783.306 L 1151.2 784.424 C 1145.96 789.799 1139.8 788.624 1134.21 796.168 C 1132.52 799.243 1133.03 799.5 1130.23 800.921 L 1128.36 799.692 C 1125.5 790.559 1134.1 784.94 1141.26 782.05 z" fill="rgb(142,227,212)" transform="translate(0,0)"></path>
<path d="M 378.04 486.14 L 382.362 486.971 C 385.398 490.959 384.041 508.381 384.021 514.661 L 379.632 513.892 C 376.582 509.975 377.973 492.14 378.04 486.14 z" fill="rgb(254,254,254)" transform="translate(0,0)"></path>
<path d="M 1113.76 796.715 C 1118.77 797.361 1122.97 799.707 1124.2 804.898 C 1123.14 807.414 1123.83 806.55 1121.06 807.987 C 1115.92 808.221 1110.45 809.682 1108.88 803.86 C 1109.88 800.307 1111.23 799.291 1113.76 796.715 z" fill="rgb(142,227,212)" transform="translate(0,0)"></path>
<path d="M 1055.79 773.873 C 1062.2 773.601 1066.98 772.892 1068.3 780.533 C 1066.75 783.416 1067.72 782.6 1064.69 783.626 L 1061.32 781.868 L 1060.41 780.567 C 1056.48 782.217 1056.5 783.364 1052.15 783.316 L 1051.35 781.621 C 1052.08 777.34 1052.74 776.872 1055.79 773.873 z" fill="rgb(142,227,212)" transform="translate(0,0)"></path>
<path d="M 1685.3 273.988 C 1686.13 274.28 1687.18 275.221 1687.68 275.963 C 1692.36 282.845 1688.04 284.502 1682.77 286.883 C 1681.8 286.47 1680.65 285.229 1680.15 284.312 C 1676.29 277.191 1680.11 276.041 1685.3 273.988 z" fill="rgb(142,227,212)" transform="translate(0,0)"></path>
<path d="M 1727.7 263.419 C 1728.58 263.966 1729.15 265.083 1729.47 266.089 C 1731.98 273.901 1726.61 274.469 1721.35 275.64 C 1720.15 272.859 1718.94 269.036 1719.81 266.105 C 1722.95 263.367 1722.87 264.149 1727.7 263.419 z" fill="rgb(142,227,212)" transform="translate(0,0)"></path>
<path d="M 1648.63 294.722 C 1650.91 297.251 1653.43 299.36 1654 302.549 C 1652.6 306.271 1652.29 305.589 1648.56 308.391 C 1646.06 306.772 1643.38 304.338 1642.69 301.371 C 1644.1 297.35 1644.74 297.855 1648.63 294.722 z" fill="rgb(142,227,212)" transform="translate(0,0)"></path>
<path d="M 1578.23 400.682 C 1581.56 400.793 1584.19 400.596 1587.08 402.31 C 1588.84 406.091 1588.07 406.2 1587.61 411.003 C 1584.17 410.684 1581.59 410.709 1578.48 409.23 C 1576.97 405.824 1577.76 404.98 1578.23 400.682 z" fill="rgb(142,227,212)" transform="translate(0,0)"></path>
<path d="M 1592.74 360.32 C 1595.78 361.369 1597.62 361.787 1600.09 363.943 C 1601.19 368.312 1600.51 367.828 1598.93 372.829 C 1595.72 371.838 1592.98 371.378 1590.67 369.064 C 1590.12 364.925 1590.98 364.762 1592.74 360.32 z" fill="rgb(142,227,212)" transform="translate(0,0)"></path>
<path d="M 1617.29 324.669 C 1619.78 325.872 1622.4 327.665 1623.32 330.348 C 1623.34 333.593 1621.14 335.564 1619.04 338.045 C 1616.46 335.969 1614.41 334.553 1612.61 331.722 C 1613.16 327.79 1613.93 328.181 1617.29 324.669 z" fill="rgb(142,227,212)" transform="translate(0,0)"></path>
<path d="M 1761.96 262.66 C 1765.35 262.673 1767.03 262.511 1770.31 263.651 C 1772.19 267.239 1771.36 267.956 1771.03 272.701 C 1767.86 273.049 1766.12 273.554 1763.19 272.357 C 1761.25 269.822 1761.89 266.138 1761.96 262.66 z" fill="rgb(142,227,212)" transform="translate(0,0)"></path>
<path d="M 1804.52 270.034 C 1807.67 270.947 1809.18 271.079 1811.53 273.367 C 1812.31 276.397 1810.34 279.674 1809.02 282.81 C 1806.14 281.806 1804.82 281.526 1802.5 279.423 C 1801.75 275.147 1802.76 274.753 1804.52 270.034 z" fill="rgb(142,227,212)" transform="translate(0,0)"></path>
<metadata><recraft-signature>{"signed_by": "recraft", "signature_b64": "eNG4lA5tvwv/1ErXFKGYmtyutH19nhOO9gg/fnYlsgj2ShHAZd3fpO2vra2YlK8RRFMEt/DIg+5eOlzeN+bQBw==", "signing_algo": "Ed25519", "generation_timestamp": 1779033469, "identifier": "29e65828-7bad-4b08-a08b-9b500ea8a60b"}</recraft-signature></metadata></svg>